<svg width="121" height="22" viewBox="0 0 121 22" fill="none" xmlns="http://www.w3.org/2000/svg">
<g clip-path="url(#clip0_4_226)">
<path d="M34.9241 9.1585C33.6243 9.31848 32.8044 9.69841 32.2645 10.2383C31.8246 10.6782 31.6046 11.2182 31.6046 11.7581C31.6046 12.7379 32.3045 13.4378 33.1844 13.4378C33.7243 13.4378 34.2642 13.2178 34.5441 12.8979C34.6441 12.7979 34.7641 12.5779 34.7641 12.358L34.9241 9.1585ZM37.1437 14.9575C36.0639 14.9575 35.0841 14.2577 34.8041 13.1778C34.2642 14.1577 33.2244 14.9575 31.8846 14.9575C30.3648 14.9575 29.0651 13.7577 29.0651 12.258C29.0651 10.1383 31.0647 8.61859 34.8641 8.5786V8.03869C34.9241 6.51894 34.0442 5.5991 32.5245 5.5991C31.4447 5.5991 30.3048 6.29898 29.545 7.21883C29.485 7.27882 29.165 6.93887 29.165 6.89888C30.1449 4.93921 31.9246 3.85939 33.7643 3.85939C35.8839 3.85939 37.4037 5.37914 37.3437 7.91871L37.1837 12.138C37.1837 13.1178 37.6236 13.5378 38.1035 13.5378C38.6435 13.5378 39.0234 13.0978 39.2434 12.5179C39.2434 12.458 39.5633 12.6179 39.5633 12.6779C39.5833 14.1377 38.5035 14.9575 37.1437 14.9575ZM50.6415 14.5776H47.7619C47.7019 14.5776 47.7019 14.0377 47.7619 14.0377C48.9617 13.8777 49.1217 13.7577 49.1217 11.4381V8.17867C49.1217 6.71891 48.2619 5.67908 47.0021 5.67908C46.1422 5.67908 45.3223 6.11901 44.9424 6.65892C44.6625 6.97887 44.5025 7.57876 44.5025 8.33864V11.4181C44.5025 13.7577 44.7824 13.8577 45.9622 14.0177C45.9622 14.0177 46.0222 14.5576 45.9622 14.5576H40.4632C40.4032 14.5576 40.4032 14.0177 40.4032 14.0177C41.7029 13.7977 41.8629 13.7377 41.8629 11.4181V7.45879C41.8629 5.07918 41.583 4.9592 40.1832 4.75924C40.0832 4.75924 40.1232 4.21933 40.1832 4.21933H44.3025V6.59893H44.3625C45.2823 4.85922 46.7021 3.83939 48.4218 3.83939C50.3815 3.83939 51.8812 5.35914 51.8812 7.85872V11.3781C51.8812 13.7177 52.1012 13.8177 53.401 13.9777C53.501 13.9777 53.461 14.5176 53.401 14.5176C52.6011 14.5776 51.4013 14.5776 50.6415 14.5776ZM59.36 14.9575C56.1005 14.9575 54.0009 12.418 54.0009 9.47845C54.0009 6.33897 56.1205 3.83939 59.58 3.83939C61.1997 3.83939 62.0196 4.3793 62.4995 4.3793C62.7194 4.3793 62.9394 4.21933 63.0394 3.93937C63.0394 3.87938 63.6993 3.87938 63.6993 3.93937V7.83872C63.6993 7.89871 63.0394 7.89871 63.0394 7.83872C62.1795 6.05902 60.9797 4.53927 59.58 4.53927C57.8403 4.53927 56.8204 6.37897 56.8204 8.91855C56.8204 11.6181 58.2202 13.4178 60.1799 13.4178C61.4796 13.4178 62.9394 12.4979 63.5393 11.4581C63.5993 11.3581 64.0192 11.5581 64.0192 11.6781C63.3193 13.5378 61.4796 14.9575 59.36 14.9575ZM72.5378 8.07868V7.31881C72.5378 5.63909 71.7179 4.65925 70.6981 4.65925C69.3983 4.65925 68.4185 6.05902 68.1985 8.07868H72.5378ZM68.1985 9.31848C68.1985 11.6581 69.4983 13.4378 71.7179 13.4378C73.0177 13.4378 74.3175 12.5779 75.0174 11.4781C75.0174 11.4181 75.4573 11.5781 75.4573 11.6981C74.8574 13.5378 72.9177 14.9575 70.7381 14.9575C67.3187 14.9575 65.319 12.458 65.319 9.47845C65.319 6.49895 67.4387 3.83939 71.0181 3.83939C73.7176 3.83939 75.5173 5.61909 75.6773 8.05869V8.81856H68.2985C68.1985 8.93854 68.1985 9.2185 68.1985 9.31848ZM81.0964 14.9575C79.4167 14.9575 77.9569 14.5176 77.457 14.1977C77.397 14.1377 77.237 12.7379 77.237 11.3181C77.237 11.2582 77.8969 11.2182 77.8969 11.3181C78.7568 13.2178 80.0166 14.2976 81.3563 14.2976C82.4961 14.2976 83.316 13.6977 83.316 12.7779C83.316 11.6981 82.0162 11.1982 80.7164 10.6183C79.1367 10.0184 77.357 9.21849 77.357 7.19883C77.357 5.61909 78.7168 3.99936 81.2563 3.99936C82.3362 3.99936 83.036 4.43929 83.536 4.43929C83.7559 4.43929 83.9759 4.27932 84.1359 3.99936C84.1359 3.93937 84.7958 3.93937 84.7958 3.99936V7.57877C84.7958 7.63876 84.1359 7.63876 84.1359 7.57877C83.276 5.95904 82.2362 4.81923 80.9964 4.81923C79.8566 4.81923 79.3167 5.5791 79.3167 6.179C79.3167 7.25882 80.5565 7.69874 81.8562 8.23865C83.436 8.89854 85.2757 9.69841 85.2757 11.7581C85.2757 13.4978 83.636 14.9575 81.0964 14.9575ZM86.4555 5.35914C86.2955 5.35914 86.2355 4.91921 86.3955 4.81923C87.5353 3.7994 89.435 2.05969 90.4548 0.979867C90.5148 0.919877 90.8947 0.979867 90.8947 1.07985V4.27932H94.5741C94.6741 4.27932 94.6741 5.29915 94.5741 5.29915H90.8947V11.3181C90.8947 12.6779 91.7146 13.2778 92.5745 13.2778C93.2344 13.2778 93.9342 12.7379 94.2542 12.078C94.2542 12.018 94.6941 12.238 94.6941 12.298C94.2542 13.7577 92.8544 14.8975 91.2747 14.8975C89.595 14.8975 88.2352 13.8177 88.2352 11.6981V5.35914H86.4555ZM103.593 7.09885C103.273 7.09885 102.453 6.11901 101.853 6.11901C101.573 6.11901 101.253 6.27898 100.993 6.55894C100.553 6.99886 100.173 8.01869 100.173 8.89855V11.4981C100.173 13.8777 100.553 13.9377 101.793 14.0977C101.793 14.0977 101.853 14.6376 101.793 14.6376H96.0539C95.9939 14.6376 95.9939 14.0977 96.0539 14.0977C97.3537 13.8777 97.5136 13.8177 97.5136 11.4981V7.53877C97.5136 5.19916 97.2337 5.03919 95.8339 4.83922C95.7339 4.83922 95.7739 4.29931 95.8339 4.29931H100.013V6.99886H100.113C100.213 6.67892 100.433 6.29898 100.593 5.91904C101.353 4.67925 102.273 3.91938 103.253 3.91938C104.173 3.91938 104.933 4.61926 104.933 5.37913C104.993 6.23899 103.853 7.09885 103.593 7.09885ZM114.811 8.49861L111.272 17.5571C110.032 20.7566 108.892 21.3965 107.372 21.3965C106.512 21.3965 105.532 20.9565 105.532 20.6966C105.473 20.2567 106.072 18.6969 106.392 18.6969C106.492 18.6969 107.792 19.2968 108.452 19.2968C109.372 19.2968 109.972 18.6969 110.452 17.3971L111.112 15.6574C110.892 14.7976 108.292 9.09851 107.972 8.33864C107.312 6.81889 106.892 5.63909 106.452 5.19916C106.172 4.91921 105.912 4.81923 105.153 4.71924C105.093 4.71924 105.093 4.17933 105.153 4.17933C105.852 4.17933 107.312 4.23932 108.132 4.23932C108.952 4.23932 110.352 4.17933 111.052 4.17933C111.112 4.17933 111.112 4.71924 111.052 4.71924C109.432 4.93921 109.592 5.47911 110.452 7.63875L112.351 12.238L113.871 8.27865C114.411 6.91888 114.691 6.11901 114.691 5.61909C114.691 5.01919 114.311 4.79923 113.171 4.75924C113.111 4.75924 113.111 4.15934 113.171 4.15934C113.931 4.15934 114.911 4.21933 115.551 4.21933C116.031 4.21933 116.531 4.15934 117.451 4.15934C117.51 4.15934 117.55 4.75924 117.451 4.75924C116.851 4.81923 116.591 4.9792 116.251 5.29915C115.831 5.73907 115.511 6.61893 114.811 8.49861Z" fill="#9CA0AC"/>
<path d="M16.7671 3.5794C14.8674 1.51975 12.9677 1.83969 12.6478 1.89968C12.8078 1.95967 12.9677 5.53908 14.9874 7.41876C16.3472 8.65856 19.1067 8.23862 19.1067 8.23862C19.1067 8.23862 18.6268 5.57907 16.7671 3.5794ZM19.0467 10.5582C18.4468 10.5582 16.0072 10.7782 14.3875 12.7779C12.7078 14.8975 12.7678 16.5772 12.3878 16.9572C12.7078 17.0572 16.1272 17.3971 17.587 15.1775C18.9867 13.1178 19.0467 10.8982 19.0467 10.5582ZM4.20921 9.09848C4.58915 9.15847 5.88893 10.8382 8.22854 11.0582C10.7681 11.3381 11.648 10.0383 11.6879 10.0383C11.6879 9.87835 9.62831 7.65872 7.34869 7.65872C5.76895 7.69871 4.20921 9.09848 4.20921 9.09848ZM13.4677 10.2383C13.4077 10.2983 11.308 13.1178 6.30886 12.3579C2.28953 11.698 0.829781 9.47841 0.569824 9.43842C0.889771 8.99849 3.92926 6.5589 7.44867 6.61889C10.9081 6.71888 13.4677 8.67855 13.4677 8.67855H15.6873C13.9076 8.13864 11.7279 7.15881 10.7481 4.99917C9.88827 2.9995 10.0482 1.7997 9.6683 0.119978C9.6683 0.119978 13.6876 -0.199967 16.7671 1.7997C19.5866 3.63939 21.1464 8.51858 21.2064 8.67855H22.9461L22.5661 0L24.7258 0.0599875C24.3458 2.33961 24.8258 18.5969 24.7258 18.5969C24.5058 18.6569 22.6661 18.7569 22.5061 18.3169C22.5061 18.3169 22.9461 10.3583 22.9861 10.1983H21.3063C21.3063 10.2983 21.1464 14.7975 17.7269 17.1971C14.3075 19.5767 9.38835 18.8768 9.38835 18.8768C9.98825 17.957 9.38835 16.9772 11.128 14.3176C13.1277 11.2781 15.7873 10.1983 15.7273 10.1983C15.5873 10.2383 13.5276 10.2383 13.4677 10.2383Z" fill="#9CA0AC"/>
<path d="M119.57 5.17903C119.73 5.17903 119.83 5.11904 119.83 4.97907C119.83 4.85909 119.77 4.7791 119.57 4.7791H119.41V5.17903H119.57ZM119.25 4.63912H119.61C119.81 4.63912 120.01 4.71911 120.01 4.97907C120.01 5.11904 119.93 5.23902 119.81 5.27902L120.07 5.73894H119.87L119.67 5.33901H119.43V5.73894H119.27V4.63912H119.25ZM120.39 5.19903C120.39 4.69911 120.03 4.31918 119.59 4.31918C119.15 4.31918 118.79 4.69911 118.79 5.19903C118.79 5.69895 119.15 6.05888 119.59 6.05888C120.03 6.05888 120.39 5.69895 120.39 5.19903ZM118.65 5.19903C118.65 4.57913 119.09 4.1792 119.61 4.1792C120.13 4.1792 120.57 4.57913 120.57 5.19903C120.57 5.79893 120.15 6.21886 119.61 6.21886C119.09 6.19886 118.65 5.79893 118.65 5.19903Z" fill="#9CA0AC"/>
</g>
<defs>
<clipPath id="clip0_4_226">
<rect width="120" height="22" fill="white" transform="translate(0.569824)"/>
</clipPath>
</defs>
</svg>
