<svg width="13" height="16" viewBox="0 0 13 16" fill="none" xmlns="http://www.w3.org/2000/svg">
<g clip-path="url(#clip0_4_87)">
<path d="M5.5279 2.46008L6.1721 1.80969C6.44487 1.5343 6.88594 1.5343 7.1558 1.80969L12.7969 7.50208C13.0696 7.77747 13.0696 8.22278 12.7969 8.49524L7.1558 14.1906C6.88304 14.4659 6.44196 14.4659 6.1721 14.1906L5.5279 13.5402C5.25223 13.2618 5.25804 12.8077 5.53951 12.5353L9.03616 9.172H0.696429C0.310491 9.172 0 8.85852 0 8.46887V7.53137C0 7.14172 0.310491 6.82825 0.696429 6.82825H9.03616L5.53951 3.46497C5.25513 3.1925 5.24933 2.7384 5.5279 2.46008Z" fill="white"/>
</g>
<defs>
<clipPath id="clip0_4_87">
<rect width="13" height="15" fill="white" transform="translate(0 0.5)"/>
</clipPath>
</defs>
</svg>
