<svg width="70" height="34" viewBox="0 0 70 34" fill="none" xmlns="http://www.w3.org/2000/svg">
<path d="M32.0146 5.44125L32.015 5.44199C32.0656 5.52909 35.1257 10.8176 38.3644 16.4158L37.9435 16.6593L38.3644 16.4158C41.4465 21.7437 44.6333 27.252 44.7091 27.3829C44.7788 27.5016 44.9282 27.5904 45.0843 27.5904C45.3275 27.5904 45.5283 27.3909 45.5283 27.1441V6.85571C45.5283 5.32542 46.7692 4.07846 48.2994 4.07846C49.278 4.07846 50.192 4.59766 50.6837 5.4406C50.6839 5.44086 50.684 5.44112 50.6842 5.44138L50.2522 5.69318C50.3024 5.77854 53.2756 10.9214 56.4621 16.4331L56.597 16.6665C58.7009 20.3061 60.8539 24.0299 62.0311 26.0661C62.5839 27.0223 62.9216 27.6064 62.938 27.6349L32.0146 5.44125ZM32.0146 5.44125C31.5227 4.59799 30.6086 4.07846 29.6296 4.07846C28.1001 4.07846 26.8585 5.32534 26.8585 6.85571V26.73C26.8585 26.842 26.7995 27.0058 26.6679 27.1464C26.5408 27.2823 26.3847 27.3555 26.2316 27.3555H16.126C10.4376 27.3555 5.80695 22.7153 5.80695 17.0101C5.80695 11.3049 10.4376 6.66472 16.126 6.66472H20.8143M32.0146 5.44125L20.8143 6.66472M20.8143 6.66472V9.65764V6.66472ZM53.2543 3.6447C53.4504 3.9808 58.5664 12.8075 60.2053 15.6351L53.2543 3.6447ZM53.2543 3.6447C52.2007 1.83928 50.2028 0.698608 48.0764 0.698608C44.7456 0.698608 42.0445 3.40748 42.0445 6.74613V15.5006L53.2543 3.6447ZM63.7451 27.5904C63.5892 27.5904 63.4399 27.5018 63.3701 27.3833L22.3118 23.8625C22.9485 23.8614 23.3857 23.3531 23.3837 22.77H23.8837V22.7695V6.74613C23.8837 3.68236 26.3622 1.19861 29.4156 1.19861C31.367 1.19861 33.199 2.24721 34.1616 3.89672L34.1618 3.897C34.2782 4.09618 36.1401 7.30801 37.9741 10.4721L40.4806 14.7965L41.3013 16.2126L41.5308 16.6085L41.5912 16.7127L41.6066 16.7394L41.6106 16.7462L41.6115 16.7479L41.6118 16.7483C41.6118 16.7484 41.6119 16.7485 42.0445 16.4978L41.6119 16.7485L42.5445 18.3576V16.4978V6.74613C42.5445 3.68236 45.023 1.19861 48.0764 1.19861C50.0277 1.19861 51.8598 2.24721 52.8224 3.89671L52.8224 3.89677C52.9388 4.0961 54.8008 7.30815 56.6348 10.4721L59.1413 14.7965L59.9621 16.2126L60.1916 16.6085L60.252 16.7127L60.2674 16.7395L60.2713 16.7462L60.2723 16.7479L60.2726 16.7483C60.2726 16.7484 60.2727 16.7485 60.7053 16.4978L60.2727 16.7485L61.2053 18.3576V16.4978V1.34054H64.1885V27.1441C64.1885 27.3914 63.9879 27.5904 63.7451 27.5904Z" fill="#9CA0AC" stroke="#9CA0AC"/>
<path d="M20.8142 1.34033H16.1309C7.49946 1.34033 0.5 8.35455 0.5 17.0099C0.5 25.6656 7.49948 32.68 16.1309 32.68H26.3333H26.3336C28.1691 32.681 29.6177 32.144 30.6058 31.1678C31.5924 30.1929 32.1809 28.7196 32.1784 26.7257V26.7251V17.5021V15.6423L33.111 17.2514L32.6784 17.5021C33.111 17.2514 33.111 17.2515 33.1111 17.2515L33.1113 17.252L33.1123 17.2537L33.1163 17.2605L33.1319 17.2874L33.1927 17.3923L33.4237 17.7909L34.2496 19.2158L36.7682 23.561C38.6088 26.7364 40.4707 29.9481 40.5613 30.103L40.5615 30.1034C41.5241 31.7527 43.3562 32.8013 45.3075 32.8013C48.3612 32.8013 50.8392 30.3176 50.8392 27.254V17.5021V15.6423L51.7718 17.2514L51.3392 17.5021C51.7718 17.2514 51.7718 17.2515 51.7719 17.2516L51.7721 17.252L51.7731 17.2537L51.777 17.2604L51.7925 17.2871L51.8529 17.3914L52.0824 17.7873L52.9031 19.2034L55.4096 23.5279C57.2435 26.6918 59.1055 29.9038 59.222 30.1034C60.1849 31.7527 62.017 32.8013 63.9683 32.8013C67.0217 32.8013 69.5 30.3175 69.5 27.254V1.34033H66.5165V27.1442C66.5165 28.6748 65.2755 29.9214 63.7453 29.9214C62.7664 29.9214 61.8523 29.4019 61.3604 28.559L61.3599 28.5582C61.3092 28.471 58.2512 23.1821 55.0152 17.584C53.6979 15.3058 52.3618 12.9945 51.2577 11.0847L50.7043 10.1274L49.2517 7.61479L48.8343 6.89315L48.7196 6.69495L48.688 6.64031L48.679 6.62482L48.6764 6.62036L48.6756 6.619L48.6744 6.61708C48.6056 6.49893 48.4559 6.40952 48.2994 6.40952C48.0565 6.40952 47.856 6.60864 47.856 6.85551V27.1442C47.856 28.6749 46.6143 29.9214 45.0845 29.9214C44.1054 29.9214 43.1921 29.4018 42.6998 28.5593L42.6991 28.5582C42.6485 28.4711 39.5885 23.1826 36.3498 17.584M20.8142 1.34033L36.3498 17.584M20.8142 1.34033V4.33355H16.1262C9.15125 4.33355 3.47916 10.0209 3.47916 17.0099C3.47916 23.9995 9.15125 29.6865 16.1262 29.6865H26.2319C27.8158 29.6865 29.1862 28.3143 29.1862 26.73V6.85551C29.1862 6.60864 29.3867 6.40952 29.6296 6.40952C29.7854 6.40952 29.935 6.49835 30.0048 6.61733M20.8142 1.34033L30.0048 6.61733M36.3498 17.584C35.2288 15.6465 34.0942 13.6853 33.1004 11.9676C31.3532 8.94774 30.0415 6.68044 30.0048 6.61733M36.3498 17.584L30.0048 6.61733" fill="#9CA0AC" stroke="#9CA0AC"/>
<path d="M3.97931 17.01C3.97931 23.7243 9.42838 29.1867 16.1261 29.1867H26.2317C27.5391 29.1867 28.6863 28.0387 28.6863 26.7299V6.85563C28.6863 6.33396 29.1093 5.90964 29.6297 5.90964C29.9582 5.90964 30.2748 6.08829 30.4368 6.36514C30.4871 6.45229 33.6877 11.9843 36.7827 17.3338C40.0217 22.9325 43.081 28.2203 43.1316 28.3071C43.5331 28.9946 44.2811 29.4213 45.0844 29.4213C46.3371 29.4213 47.3561 28.3998 47.3561 27.144V6.85563C47.3561 6.33396 47.7791 5.90964 48.2995 5.90964C48.628 5.90964 48.9449 6.08829 49.1066 6.36514C49.1586 6.45432 52.3557 11.9851 55.4482 17.3335C58.6845 22.9322 61.7418 28.2203 61.7924 28.3071C62.1936 28.9946 62.9419 29.4213 63.7452 29.4213C64.9979 29.4213 66.0166 28.3998 66.0166 27.144V0.840454H64.6886V27.144C64.6886 27.666 64.2656 28.0903 63.7452 28.0903C63.4167 28.0903 63.1001 27.9116 62.9381 27.6348C62.8864 27.5456 59.689 22.0151 56.5971 16.6664C53.3602 11.0674 50.3032 5.77966 50.2523 5.6931C49.8511 5.00532 49.1028 4.57838 48.2995 4.57838C47.0468 4.57838 46.0281 5.60013 46.0281 6.85563V27.144C46.0281 27.666 45.6048 28.0903 45.0844 28.0903C44.7559 28.0903 44.4393 27.9116 44.2773 27.6348C44.227 27.5479 41.0265 22.016 37.9314 16.6661C34.6924 11.0674 31.6331 5.77966 31.5825 5.6931C31.1813 5.00532 30.433 4.57838 29.6297 4.57838C28.3773 4.57838 27.3586 5.60013 27.3586 6.85563V26.7299C27.3586 27.2507 26.8664 27.8554 26.2317 27.8554H16.1261C10.1604 27.8554 5.30705 22.9902 5.30705 17.01C5.30705 11.0298 10.1604 6.16464 16.1261 6.16464H21.3141V4.83338H16.1261C9.42838 4.83338 3.97931 10.2957 3.97931 17.01Z" fill="white"/>
</svg>
