<svg width="134" height="36" viewBox="0 0 134 36" fill="none" xmlns="http://www.w3.org/2000/svg">
<rect x="0.5" width="133" height="36" rx="3" fill="#E6EBFF"/>
<g clip-path="url(#clip0_1264_24898)">
<path d="M22.7217 19.8182C22.7217 19.8182 20.9439 22.4503 20.9439 23.4546C20.9439 24.4588 21.7401 25.2727 22.7217 25.2727C23.7034 25.2727 24.4995 24.4588 24.4995 23.4546C24.4995 22.4503 22.7217 19.8182 22.7217 19.8182ZM22.4614 16.8938L16.6923 10.9935C16.5186 10.8159 16.2911 10.7273 16.0636 10.7273C15.8361 10.7273 15.6086 10.8159 15.4353 10.9935L13.1692 13.3111L10.7753 10.8625C10.6017 10.685 10.3203 10.685 10.1469 10.8625L9.51861 11.5051C9.34528 11.6827 9.34528 11.9705 9.51861 12.1477L11.9128 14.596L9.28056 17.2881C8.23916 18.3529 8.23916 20.0796 9.28056 21.1446L12.5358 24.4739C13.0564 25.0063 13.7389 25.2727 14.4211 25.2727C15.1036 25.2727 15.7859 25.0066 16.3064 24.4739L22.4612 18.1793C22.8084 17.8242 22.8084 17.2489 22.4614 16.8938ZM19.2331 18.91H10.3308C10.3686 18.8009 10.43 18.6833 10.5372 18.5739L10.9025 18.2003L13.1695 15.8818L14.7972 17.5466C15.1442 17.9014 15.707 17.9014 16.0539 17.5466C16.4009 17.1918 16.4009 16.6162 16.0539 16.2614L14.4261 14.5966L16.0636 12.9219L20.5759 17.5367L19.2331 18.91Z" fill="#0066FF"/>
</g>
<path d="M43.1201 19.7598C43.0199 20.8216 42.6279 21.651 41.9443 22.248C41.2607 22.8405 40.3516 23.1367 39.2168 23.1367C38.4238 23.1367 37.7243 22.9499 37.1182 22.5762C36.5166 22.1979 36.0518 21.6624 35.7236 20.9697C35.3955 20.277 35.2246 19.4727 35.2109 18.5566V17.627C35.2109 16.6882 35.3773 15.861 35.71 15.1455C36.0426 14.43 36.5189 13.8786 37.1387 13.4912C37.763 13.1038 38.4831 12.9102 39.2988 12.9102C40.3971 12.9102 41.2812 13.2087 41.9512 13.8057C42.6211 14.4027 43.0107 15.2458 43.1201 16.335H41.3975C41.3154 15.6195 41.1058 15.1045 40.7686 14.79C40.4359 14.471 39.946 14.3115 39.2988 14.3115C38.5469 14.3115 37.9681 14.5872 37.5625 15.1387C37.1615 15.6855 36.9564 16.4899 36.9473 17.5518V18.4336C36.9473 19.5091 37.1387 20.3294 37.5215 20.8945C37.9089 21.4596 38.474 21.7422 39.2168 21.7422C39.8958 21.7422 40.4062 21.5895 40.748 21.2842C41.0898 20.9788 41.3063 20.4707 41.3975 19.7598H43.1201ZM48.9922 22.2754C48.5046 22.8496 47.8118 23.1367 46.9141 23.1367C46.112 23.1367 45.5036 22.902 45.0889 22.4326C44.6787 21.9632 44.4736 21.2842 44.4736 20.3955V15.6035H46.1348V20.375C46.1348 21.3138 46.5244 21.7832 47.3037 21.7832C48.1104 21.7832 48.6549 21.4938 48.9375 20.915V15.6035H50.5986V23H49.0332L48.9922 22.2754ZM56.4365 20.9902C56.4365 20.694 56.3135 20.4684 56.0674 20.3135C55.8258 20.1585 55.4225 20.0218 54.8574 19.9033C54.2923 19.7848 53.8206 19.6344 53.4424 19.4521C52.613 19.0511 52.1982 18.4701 52.1982 17.709C52.1982 17.071 52.4671 16.5378 53.0049 16.1094C53.5426 15.681 54.2262 15.4668 55.0557 15.4668C55.9398 15.4668 56.653 15.6855 57.1953 16.123C57.7422 16.5605 58.0156 17.1279 58.0156 17.8252H56.3545C56.3545 17.5062 56.236 17.2419 55.999 17.0322C55.762 16.818 55.4476 16.7109 55.0557 16.7109C54.6911 16.7109 54.3926 16.7952 54.1602 16.9639C53.9323 17.1325 53.8184 17.3581 53.8184 17.6406C53.8184 17.8958 53.9255 18.0941 54.1396 18.2354C54.3538 18.3766 54.7868 18.5202 55.4385 18.666C56.0902 18.8073 56.6006 18.9782 56.9697 19.1787C57.3434 19.3747 57.6191 19.6117 57.7969 19.8896C57.9792 20.1676 58.0703 20.5049 58.0703 20.9014C58.0703 21.5667 57.7946 22.1068 57.2432 22.5215C56.6917 22.9316 55.9694 23.1367 55.0762 23.1367C54.4701 23.1367 53.93 23.0273 53.4561 22.8086C52.9821 22.5898 52.613 22.2891 52.3486 21.9062C52.0843 21.5234 51.9521 21.111 51.9521 20.6689H53.5654C53.5882 21.0609 53.7363 21.3639 54.0098 21.5781C54.2832 21.7878 54.6455 21.8926 55.0967 21.8926C55.5342 21.8926 55.8669 21.8105 56.0947 21.6465C56.3226 21.4779 56.4365 21.2591 56.4365 20.9902ZM61.6045 13.8057V15.6035H62.9102V16.834H61.6045V20.9629C61.6045 21.2454 61.6592 21.4505 61.7686 21.5781C61.8825 21.7012 62.083 21.7627 62.3701 21.7627C62.5615 21.7627 62.7552 21.7399 62.9512 21.6943V22.9795C62.5729 23.0843 62.2083 23.1367 61.8574 23.1367C60.5814 23.1367 59.9434 22.4326 59.9434 21.0244V16.834H58.7266V15.6035H59.9434V13.8057H61.6045ZM63.6689 19.2334C63.6689 18.5088 63.8125 17.8571 64.0996 17.2783C64.3867 16.695 64.79 16.2484 65.3096 15.9385C65.8291 15.624 66.4261 15.4668 67.1006 15.4668C68.0986 15.4668 68.9076 15.7881 69.5273 16.4307C70.1517 17.0732 70.4889 17.9255 70.5391 18.9873L70.5459 19.377C70.5459 20.1061 70.4046 20.7578 70.1221 21.332C69.8441 21.9062 69.443 22.3506 68.9189 22.665C68.3994 22.9795 67.7979 23.1367 67.1143 23.1367C66.0706 23.1367 65.2344 22.7904 64.6055 22.0977C63.9811 21.4004 63.6689 20.473 63.6689 19.3154V19.2334ZM65.3301 19.377C65.3301 20.138 65.4873 20.735 65.8018 21.168C66.1162 21.5964 66.5537 21.8105 67.1143 21.8105C67.6748 21.8105 68.11 21.5918 68.4199 21.1543C68.7344 20.7168 68.8916 20.0765 68.8916 19.2334C68.8916 18.486 68.7298 17.8936 68.4062 17.4561C68.0872 17.0186 67.652 16.7998 67.1006 16.7998C66.5583 16.7998 66.1276 17.0163 65.8086 17.4492C65.4896 17.8776 65.3301 18.5202 65.3301 19.377ZM73.5127 15.6035L73.5605 16.376C74.0801 15.7699 74.791 15.4668 75.6934 15.4668C76.6823 15.4668 77.359 15.8451 77.7236 16.6016C78.2614 15.8451 79.0179 15.4668 79.9932 15.4668C80.8089 15.4668 81.415 15.6924 81.8115 16.1436C82.2126 16.5947 82.4176 17.2601 82.4268 18.1396V23H80.7656V18.1875C80.7656 17.7181 80.6631 17.374 80.458 17.1553C80.2529 16.9365 79.9134 16.8271 79.4395 16.8271C79.0612 16.8271 78.7513 16.9297 78.5098 17.1348C78.2728 17.3353 78.1064 17.5996 78.0107 17.9277L78.0176 23H76.3564V18.1328C76.3337 17.2624 75.8893 16.8271 75.0234 16.8271C74.3581 16.8271 73.8864 17.0983 73.6084 17.6406V23H71.9473V15.6035H73.5127ZM85.8994 23H84.2383V15.6035H85.8994V23ZM84.1357 13.6826C84.1357 13.4274 84.2155 13.2155 84.375 13.0469C84.5391 12.8783 84.7715 12.7939 85.0723 12.7939C85.373 12.7939 85.6055 12.8783 85.7695 13.0469C85.9336 13.2155 86.0156 13.4274 86.0156 13.6826C86.0156 13.9333 85.9336 14.1429 85.7695 14.3115C85.6055 14.4756 85.373 14.5576 85.0723 14.5576C84.7715 14.5576 84.5391 14.4756 84.375 14.3115C84.2155 14.1429 84.1357 13.9333 84.1357 13.6826ZM89.4883 21.6738H93.4258V23H87.4238V21.9131L91.1768 16.9434H87.4922V15.6035H93.2822V16.6562L89.4883 21.6738ZM99.1748 23C99.1019 22.8587 99.0381 22.6286 98.9834 22.3096C98.4548 22.861 97.8076 23.1367 97.042 23.1367C96.2992 23.1367 95.693 22.9248 95.2236 22.501C94.7542 22.0771 94.5195 21.5531 94.5195 20.9287C94.5195 20.1403 94.8112 19.5365 95.3945 19.1172C95.9824 18.6934 96.821 18.4814 97.9102 18.4814H98.9287V17.9961C98.9287 17.6133 98.8216 17.3079 98.6074 17.0801C98.3932 16.8477 98.0674 16.7314 97.6299 16.7314C97.2516 16.7314 96.9417 16.8271 96.7002 17.0186C96.4587 17.2054 96.3379 17.4447 96.3379 17.7363H94.6768C94.6768 17.3307 94.8112 16.9525 95.0801 16.6016C95.349 16.2461 95.7135 15.9681 96.1738 15.7676C96.6387 15.5671 97.1559 15.4668 97.7256 15.4668C98.5915 15.4668 99.2819 15.6855 99.7969 16.123C100.312 16.556 100.576 17.1667 100.59 17.9551V21.291C100.59 21.9564 100.683 22.4873 100.87 22.8838V23H99.1748ZM97.3496 21.8037C97.6777 21.8037 97.9854 21.724 98.2725 21.5645C98.5641 21.4049 98.7829 21.1908 98.9287 20.9219V19.5273H98.0332C97.418 19.5273 96.9554 19.6344 96.6455 19.8486C96.3356 20.0628 96.1807 20.3659 96.1807 20.7578C96.1807 21.0768 96.2855 21.332 96.4951 21.5234C96.7093 21.7103 96.9941 21.8037 97.3496 21.8037ZM104.411 13.8057V15.6035H105.717V16.834H104.411V20.9629C104.411 21.2454 104.466 21.4505 104.575 21.5781C104.689 21.7012 104.89 21.7627 105.177 21.7627C105.368 21.7627 105.562 21.7399 105.758 21.6943V22.9795C105.38 23.0843 105.015 23.1367 104.664 23.1367C103.388 23.1367 102.75 22.4326 102.75 21.0244V16.834H101.533V15.6035H102.75V13.8057H104.411ZM108.759 23H107.098V15.6035H108.759V23ZM106.995 13.6826C106.995 13.4274 107.075 13.2155 107.234 13.0469C107.398 12.8783 107.631 12.7939 107.932 12.7939C108.232 12.7939 108.465 12.8783 108.629 13.0469C108.793 13.2155 108.875 13.4274 108.875 13.6826C108.875 13.9333 108.793 14.1429 108.629 14.3115C108.465 14.4756 108.232 14.5576 107.932 14.5576C107.631 14.5576 107.398 14.4756 107.234 14.3115C107.075 14.1429 106.995 13.9333 106.995 13.6826ZM110.263 19.2334C110.263 18.5088 110.406 17.8571 110.693 17.2783C110.98 16.695 111.384 16.2484 111.903 15.9385C112.423 15.624 113.02 15.4668 113.694 15.4668C114.692 15.4668 115.501 15.7881 116.121 16.4307C116.745 17.0732 117.083 17.9255 117.133 18.9873L117.14 19.377C117.14 20.1061 116.998 20.7578 116.716 21.332C116.438 21.9062 116.037 22.3506 115.513 22.665C114.993 22.9795 114.392 23.1367 113.708 23.1367C112.664 23.1367 111.828 22.7904 111.199 22.0977C110.575 21.4004 110.263 20.473 110.263 19.3154V19.2334ZM111.924 19.377C111.924 20.138 112.081 20.735 112.396 21.168C112.71 21.5964 113.147 21.8105 113.708 21.8105C114.269 21.8105 114.704 21.5918 115.014 21.1543C115.328 20.7168 115.485 20.0765 115.485 19.2334C115.485 18.486 115.324 17.8936 115 17.4561C114.681 17.0186 114.246 16.7998 113.694 16.7998C113.152 16.7998 112.721 17.0163 112.402 17.4492C112.083 17.8776 111.924 18.5202 111.924 19.377ZM120.086 15.6035L120.134 16.458C120.681 15.7972 121.398 15.4668 122.287 15.4668C123.827 15.4668 124.611 16.3486 124.639 18.1123V23H122.978V18.208C122.978 17.7386 122.875 17.3923 122.67 17.1689C122.469 16.9411 122.139 16.8271 121.679 16.8271C121.009 16.8271 120.51 17.1302 120.182 17.7363V23H118.521V15.6035H120.086Z" fill="#0066FF"/>
<defs>
<clipPath id="clip0_1264_24898">
<rect width="16" height="16" fill="white" transform="translate(8.5 10)"/>
</clipPath>
</defs>
</svg>
