<svg width="16" height="16" viewBox="0 0 16 16" fill="none" xmlns="http://www.w3.org/2000/svg">
<g id="fill-drip" clip-path="url(#clip0_1264_24911)">
<path id="Vector" d="M14.2217 9.8182C14.2217 9.8182 12.4439 12.4503 12.4439 13.4546C12.4439 14.4588 13.2401 15.2727 14.2217 15.2727C15.2034 15.2727 15.9995 14.4588 15.9995 13.4546C15.9995 12.4503 14.2217 9.8182 14.2217 9.8182ZM13.9614 6.89377L8.19226 0.993488C8.01864 0.815931 7.79114 0.727295 7.56364 0.727295C7.33614 0.727295 7.10864 0.815931 6.93531 0.993488L4.66918 3.3111L2.27529 0.862522C2.10167 0.684965 1.82028 0.684965 1.64695 0.862522L1.01861 1.50514C0.845279 1.68269 0.845279 1.97048 1.01861 2.14775L3.41279 4.59604L0.780557 7.28809C-0.260837 8.35286 -0.260837 10.0796 0.780557 11.1446L4.03585 14.4739C4.55641 15.0063 5.23891 15.2727 5.92113 15.2727C6.60364 15.2727 7.28586 15.0066 7.80642 14.4739L13.9612 8.17928C14.3084 7.82417 14.3084 7.24889 13.9614 6.89377ZM10.7331 8.90997H1.83084C1.86862 8.80087 1.93001 8.68326 2.03723 8.57389L2.40251 8.20031L4.66946 5.88184L6.29725 7.54661C6.64419 7.90144 7.20697 7.90144 7.55392 7.54661C7.90087 7.19178 7.90087 6.61622 7.55392 6.26139L5.92613 4.59661L7.56364 2.9219L12.0759 7.53667L10.7331 8.90997Z" fill="black"/>
</g>
<defs>
<clipPath id="clip0_1264_24911">
<rect width="16" height="16" fill="white"/>
</clipPath>
</defs>
</svg>
