<svg width="121" height="38" viewBox="0 0 121 38" fill="none" xmlns="http://www.w3.org/2000/svg">
<g clip-path="url(#clip0_4_215)">
<path d="M4.11811 6.08268V7.93326H8.03734V11.0057H4.11811V22.1397H0.569824V5.77799C0.569824 1.75686 2.96864 3.69116e-05 6.48025 3.69116e-05C7.25751 -0.0190376 8.03294 0.0841241 8.77818 0.305749V3.31293C8.30765 3.24883 7.83352 3.2148 7.35866 3.21103C5.33485 3.21001 4.11811 3.88563 4.11811 6.08268ZM36.7273 13.8274C36.7273 16.1576 35.8017 18.3924 34.1539 20.0401C32.5062 21.6878 30.2714 22.6135 27.9412 22.6135C25.611 22.6135 23.3762 21.6878 21.7284 20.0401C20.0807 18.3924 19.155 16.1576 19.155 13.8274C19.1902 11.5203 20.1313 9.31965 21.7752 7.70059C23.4191 6.08154 25.6339 5.17402 27.9412 5.17402C30.2485 5.17402 32.4633 6.08154 34.1072 7.70059C35.7511 9.31965 36.6922 11.5203 36.7273 13.8274ZM22.7665 13.861C22.7305 14.5561 22.837 15.2512 23.0793 15.9037C23.3216 16.5562 23.6946 17.1523 24.1755 17.6555C24.6564 18.1586 25.2351 18.5582 25.876 18.8297C26.5169 19.1012 27.2065 19.2389 27.9025 19.2344C28.9849 19.2899 30.059 19.0192 30.9858 18.4573C31.9126 17.8954 32.6494 17.0683 33.1008 16.083C33.5522 15.0976 33.6975 13.9995 33.5177 12.9307C33.338 11.8619 32.8416 10.8716 32.0927 10.0881C31.3438 9.30464 30.377 8.76399 29.3174 8.53617C28.2578 8.30834 27.1542 8.40384 26.1495 8.8103C25.1448 9.21675 24.2852 9.91544 23.6821 10.8159C23.0789 11.7164 22.76 12.7772 22.7665 13.861ZM49.1464 5.55074V8.69346H48.0601C45.4248 8.69346 43.1942 10.2139 43.1942 13.2893V22.1427H39.6459V5.55074H42.9577V7.71314C43.5263 6.97534 44.2591 6.38039 45.098 5.97562C45.9369 5.57086 46.8587 5.36745 47.79 5.38158C48.2478 5.37421 48.7044 5.43115 49.1464 5.55074ZM66.2458 15.0125H53.8727C54.0571 16.2876 54.717 17.4456 55.7199 18.2543C56.7229 19.0629 57.9946 19.4622 59.2797 19.372C61.0815 19.3594 62.8103 18.6583 64.112 17.4124L65.8015 19.8458C64.027 21.5667 61.6497 22.5249 59.1778 22.5157C58.0294 22.5546 56.8847 22.3649 55.8103 21.9576C54.7359 21.5502 53.7531 20.9333 52.9192 20.1428C52.0853 19.3523 51.4169 18.4039 50.9527 17.3528C50.4886 16.3016 50.238 15.1687 50.2156 14.0199C50.1932 12.871 50.3994 11.7292 50.8221 10.6608C51.2449 9.59231 51.8758 8.61855 52.6783 7.7961C53.4807 6.97365 54.4386 6.31891 55.4963 5.86994C56.554 5.42097 57.6904 5.18673 58.8395 5.18083C59.8503 5.14679 60.8574 5.31964 61.799 5.6888C62.7406 6.05795 63.5969 6.61561 64.3152 7.32756C65.0335 8.03952 65.5988 8.89074 65.9764 9.82901C66.354 10.7673 66.5358 11.7728 66.5108 12.7839C66.501 13.5343 66.4105 14.2815 66.2408 15.0125H66.2458ZM53.946 12.2418H62.9686C62.976 11.6899 62.8693 11.1424 62.6553 10.6336C62.4413 10.1249 62.1245 9.66579 61.7248 9.28514C61.3251 8.90449 60.8512 8.61048 60.3326 8.42152C59.814 8.23255 59.2619 8.15271 58.7111 8.187C57.5633 8.18601 56.4527 8.59339 55.5778 9.33627C54.703 10.0791 54.1209 11.109 53.9359 12.2418H53.946ZM83.7173 11.7689V22.1427H80.169V12.2418C80.2126 11.745 80.1508 11.2447 79.9878 10.7734C79.8247 10.3022 79.5641 9.87064 79.2228 9.50706C78.8815 9.14347 78.4674 8.85602 78.0074 8.66349C77.5474 8.47096 77.0519 8.37769 76.5534 8.38979C76.0464 8.37384 75.5415 8.46309 75.0706 8.65191C74.5997 8.84074 74.1731 9.12505 73.8175 9.48693C73.4619 9.84881 73.1852 10.2804 73.0047 10.7545C72.8242 11.2287 72.7438 11.735 72.7687 12.2418V22.1427H69.2204V5.55074H72.5323V7.20668C73.1722 6.53968 73.945 6.01458 74.8009 5.66542C75.6567 5.31625 76.5763 5.15081 77.5001 5.17981C81.4142 5.17879 83.7122 7.8823 83.7122 11.7679L83.7173 11.7689ZM102.248 9.03178L99.7468 10.9914C99.28 10.2247 98.6255 9.58963 97.845 9.14619C97.0646 8.70275 96.184 8.46557 95.2864 8.45704C93.8884 8.50414 92.5634 9.0926 91.5911 10.0982C90.6188 11.1038 90.0752 12.4479 90.0752 13.8467C90.0752 15.2456 90.6188 16.5896 91.5911 17.5953C92.5634 18.6009 93.8884 19.1893 95.2864 19.2364C96.1798 19.2263 97.0563 18.992 97.8356 18.5551C98.6149 18.1182 99.272 17.4926 99.7468 16.7357L102.248 18.6617C101.521 19.8596 100.492 20.8457 99.2645 21.5216C98.037 22.1976 96.6538 22.5396 95.2528 22.5137C94.1067 22.5261 92.9694 22.3111 91.907 21.8811C90.8445 21.4511 89.8778 20.8146 89.063 20.0085C88.2481 19.2025 87.6012 18.2428 87.1597 17.185C86.7182 16.1272 86.4909 14.9924 86.4909 13.8462C86.4909 12.7 86.7182 11.5652 87.1597 10.5075C87.6012 9.4497 88.2481 8.49001 89.063 7.68393C89.8778 6.87785 90.8445 6.24139 91.907 5.81138C92.9694 5.38138 94.1067 5.16637 95.2528 5.17879C96.6537 5.14613 98.0383 5.48541 99.2654 6.16206C100.493 6.83872 101.519 7.82857 102.239 9.03076L102.248 9.03178ZM120.305 15.0135H107.932C108.116 16.2886 108.776 17.4467 109.779 18.2553C110.782 19.0639 112.054 19.4632 113.339 19.373C115.141 19.3603 116.869 18.6592 118.171 17.4134L119.861 19.8468C118.086 21.5677 115.709 22.526 113.237 22.5167C112.089 22.5557 110.944 22.3659 109.87 21.9586C108.795 21.5512 107.812 20.9344 106.978 20.1438C106.145 19.3533 105.476 18.4049 105.012 17.3538C104.548 16.3027 104.297 15.1697 104.275 14.0209C104.252 12.8721 104.459 11.7302 104.881 10.6618C105.304 9.59333 105.935 8.61957 106.737 7.79712C107.54 6.97467 108.498 6.31992 109.556 5.87095C110.613 5.42198 111.75 5.18774 112.899 5.18185C113.909 5.14781 114.917 5.32066 115.858 5.68982C116.8 6.05897 117.656 6.61663 118.374 7.32858C119.093 8.04054 119.658 8.89176 120.036 9.83003C120.413 10.7683 120.595 11.7738 120.57 12.7849C120.56 13.535 120.47 14.2818 120.3 15.0125L120.305 15.0135ZM108.005 12.2428H117.028C117.035 11.6909 116.929 11.1434 116.715 10.6346C116.5 10.1259 116.184 9.66681 115.784 9.28616C115.384 8.90551 114.91 8.6115 114.392 8.42254C113.873 8.23357 113.321 8.15373 112.77 8.18802C111.623 8.18795 110.514 8.59563 109.64 9.33822C108.766 10.0808 108.184 11.1099 107.999 12.2418L108.005 12.2428ZM15.7423 0.370967H12.194V22.1417H15.7423V0.370967Z" fill="#9CA0AC"/>
<path d="M48.2211 32.9659C48.2442 33.2927 48.2001 33.6207 48.0914 33.9297C47.9826 34.2387 47.8116 34.5221 47.589 34.7623C47.3663 35.0025 47.0967 35.1945 46.7968 35.3264C46.497 35.4582 46.1733 35.5271 45.8457 35.5288C45.5438 35.542 45.2432 35.4825 44.9692 35.3551C44.6952 35.2278 44.4558 35.0364 44.2713 34.7971V35.4086H43.0484V27.9849H44.3844V30.9839C44.5732 30.7881 44.8015 30.6348 45.0542 30.5341C45.3069 30.4334 45.5781 30.3877 45.8498 30.4C46.1773 30.4022 46.5008 30.4716 46.8004 30.6039C47.1 30.7362 47.3693 30.9285 47.5915 31.169C47.8138 31.4095 47.9844 31.6931 48.0927 32.0022C48.2009 32.3113 48.2447 32.6393 48.2211 32.9659ZM46.8647 32.9557C46.8767 32.7826 46.8527 32.6088 46.7943 32.4454C46.7359 32.282 46.6444 32.1323 46.5255 32.0059C46.4065 31.8795 46.2628 31.7791 46.1032 31.7109C45.9436 31.6427 45.7716 31.6082 45.5981 31.6096C45.26 31.639 44.9451 31.7941 44.7158 32.0442C44.4864 32.2944 44.3592 32.6214 44.3592 32.9608C44.3592 33.3002 44.4864 33.6273 44.7158 33.8774C44.9451 34.1276 45.26 34.2827 45.5981 34.3121C45.7724 34.3131 45.9451 34.278 46.1052 34.2091C46.2653 34.1401 46.4094 34.0387 46.5284 33.9113C46.6474 33.7838 46.7387 33.6332 46.7966 33.4687C46.8545 33.3043 46.8777 33.1296 46.8647 32.9557Z" fill="#9CA0AC"/>
<path d="M53.8156 30.5099L51.4718 35.8354C51.3522 36.2602 51.097 36.6342 50.745 36.9004C50.3931 37.1667 49.9637 37.3105 49.5224 37.31C49.2316 37.3057 48.9424 37.2656 48.6613 37.1908V36.0698C48.8885 36.0892 49.0771 36.1096 49.235 36.1096C49.4548 36.1304 49.6752 36.0761 49.8603 35.9556C50.0453 35.8352 50.1841 35.6556 50.2541 35.4462L50.4028 35.119L48.5227 30.5059H49.9382L51.1355 33.723L52.4134 30.5059L53.8156 30.5099Z" fill="#9CA0AC"/>
<path d="M64.7234 32.3718V35.4106H63.3864V32.5573C63.4 32.4359 63.3874 32.313 63.3495 32.197C63.3116 32.0809 63.2493 31.9742 63.1668 31.8843C63.0842 31.7943 62.9833 31.723 62.8709 31.6753C62.7585 31.6275 62.6372 31.6044 62.5151 31.6075C62.3942 31.6028 62.2735 31.6234 62.161 31.668C62.0485 31.7126 61.9465 31.7803 61.8617 31.8667C61.7769 31.953 61.711 32.0562 61.6684 32.1695C61.6258 32.2828 61.6074 32.4038 61.6143 32.5247V35.4045H60.2773V32.5512C60.2911 32.4298 60.2786 32.3068 60.2408 32.1907C60.203 32.0745 60.1407 31.9678 60.0581 31.8778C59.9755 31.7878 59.8745 31.7165 59.7621 31.6688C59.6496 31.6211 59.5282 31.5982 59.406 31.6014C59.2823 31.5967 59.1589 31.6184 59.0442 31.6652C58.9294 31.7119 58.826 31.7826 58.7407 31.8725C58.6555 31.9623 58.5904 32.0694 58.5498 32.1864C58.5092 32.3034 58.494 32.4278 58.5052 32.5512V35.4045H57.1693V30.5049H58.3921V30.9411C58.5739 30.7611 58.7904 30.62 59.0285 30.5264C59.2666 30.4329 59.5213 30.3888 59.777 30.3969C60.0596 30.3796 60.342 30.4351 60.5969 30.5582C60.8519 30.6814 61.071 30.8679 61.2332 31.1C61.4385 30.8726 61.6904 30.6921 61.9718 30.5707C62.2531 30.4494 62.5573 30.3901 62.8636 30.3969C63.1213 30.3838 63.3788 30.4269 63.6182 30.5231C63.8576 30.6194 64.0732 30.7665 64.2501 30.9544C64.427 31.1422 64.5609 31.3663 64.6427 31.611C64.7244 31.8558 64.7519 32.1154 64.7234 32.3718Z" fill="#9CA0AC"/>
<path d="M67.425 28.7287C67.43 28.8995 67.384 29.0678 67.2927 29.2122C67.2014 29.3566 67.069 29.4704 66.9125 29.539C66.7561 29.6076 66.5827 29.6279 66.4147 29.5973C66.2466 29.5667 66.0915 29.4865 65.9693 29.3671C65.8472 29.2477 65.7635 29.0945 65.729 28.9272C65.6945 28.7599 65.7108 28.5861 65.7758 28.4281C65.8408 28.2701 65.9515 28.1352 66.0937 28.0406C66.236 27.946 66.4032 27.896 66.5741 27.8972C66.6849 27.8947 66.795 27.9144 66.8981 27.9551C67.0011 27.9958 67.0951 28.0566 67.1743 28.1341C67.2536 28.2115 67.3165 28.304 67.3596 28.4061C67.4026 28.5082 67.4249 28.6179 67.425 28.7287ZM67.2375 35.4095H65.9015V30.51H67.2375V35.4095Z" fill="#9CA0AC"/>
<path d="M69.8013 35.4105H68.4653V27.9868H69.8013V35.4105Z" fill="#9CA0AC"/>
<path d="M72.3672 35.4105H71.0313V27.9868H72.3672V35.4105Z" fill="#9CA0AC"/>
<path d="M77.0181 31.1346L76.3445 31.956C76.0511 31.6665 75.6581 31.5003 75.246 31.4913C74.9291 31.4913 74.7222 31.6003 74.7222 31.8378C74.7222 32.0365 74.8802 32.1353 75.2317 32.2729L75.7066 32.4716C76.5881 32.8283 77.0833 33.2033 77.0833 33.9666C77.0833 34.9764 76.2416 35.5308 75.1726 35.5308C74.7839 35.5412 74.398 35.4608 74.0458 35.2959C73.6936 35.131 73.3847 34.8863 73.1437 34.581L73.8173 33.7658C73.989 33.9646 74.1997 34.1261 74.4363 34.2402C74.673 34.3543 74.9305 34.4186 75.193 34.4292C75.5303 34.4292 75.8167 34.3008 75.8167 34.0216C75.8167 33.7933 75.6128 33.7047 75.3071 33.5763L74.7823 33.3582C73.9508 33.0219 73.4464 32.6357 73.4464 31.8633C73.4464 30.9237 74.2076 30.3887 75.247 30.3887C75.5787 30.3767 75.9091 30.4372 76.215 30.566C76.5209 30.6949 76.7949 30.8889 77.0181 31.1346Z" fill="#9CA0AC"/>
<path d="M78.3695 30.0739H77.9731V31.0737H77.7336V30.0739H77.3372V29.8538H78.3684L78.3695 30.0739ZM79.7492 31.0737H79.5077V30.401L79.1959 30.8086H79.1154L78.8097 30.401V31.0746H78.5651V29.8354H78.6456L79.1623 30.5009L79.6718 29.8354H79.7503L79.7492 31.0737Z" fill="#9CA0AC"/>
</g>
<defs>
<clipPath id="clip0_4_215">
<rect width="120" height="38" fill="white" transform="translate(0.569824)"/>
</clipPath>
</defs>
</svg>
