<svg width="229" height="19" viewBox="0 0 229 19" fill="none" xmlns="http://www.w3.org/2000/svg">
<path d="M3.30176 11.6111L3.49316 12.9236L3.77344 11.741L5.74219 4.79565H6.84961L8.77051 11.741L9.04395 12.9441L9.25586 11.6042L10.8008 4.79565H12.1201L9.70703 14.7488H8.51074L6.45996 7.49585L6.30273 6.73706L6.14551 7.49585L4.01953 14.7488H2.82324L0.416992 4.79565H1.72949L3.30176 11.6111ZM14.7588 14.7488H13.4941V7.35229H14.7588V14.7488ZM13.3916 5.39038C13.3916 5.1853 13.4531 5.01213 13.5762 4.87085C13.7038 4.72957 13.8906 4.65894 14.1367 4.65894C14.3828 4.65894 14.5697 4.72957 14.6973 4.87085C14.8249 5.01213 14.8887 5.1853 14.8887 5.39038C14.8887 5.59546 14.8249 5.76636 14.6973 5.90308C14.5697 6.03979 14.3828 6.10815 14.1367 6.10815C13.8906 6.10815 13.7038 6.03979 13.5762 5.90308C13.4531 5.76636 13.3916 5.59546 13.3916 5.39038ZM16.4814 10.989C16.4814 9.85425 16.7503 8.94279 17.2881 8.25464C17.8258 7.56193 18.5299 7.21558 19.4004 7.21558C20.2663 7.21558 20.9521 7.5118 21.458 8.10425V4.24878H22.7227V14.7488H21.5605L21.499 13.9558C20.9932 14.5756 20.2891 14.8855 19.3867 14.8855C18.5299 14.8855 17.8304 14.5346 17.2881 13.8328C16.7503 13.1309 16.4814 12.2149 16.4814 11.0847V10.989ZM17.7461 11.1326C17.7461 11.9711 17.9193 12.6274 18.2656 13.1013C18.612 13.5753 19.0905 13.8123 19.7012 13.8123C20.5033 13.8123 21.0889 13.4522 21.458 12.7322V9.33472C21.0798 8.63745 20.4987 8.28882 19.7148 8.28882C19.0951 8.28882 18.612 8.52808 18.2656 9.00659C17.9193 9.48511 17.7461 10.1938 17.7461 11.1326ZM24.3906 10.989C24.3906 9.83602 24.6572 8.92 25.1904 8.24097C25.7236 7.55737 26.43 7.21558 27.3096 7.21558C28.2119 7.21558 28.916 7.53459 29.4219 8.17261L29.4834 7.35229H30.6387V14.571C30.6387 15.5281 30.3538 16.2823 29.7842 16.8337C29.2191 17.3852 28.458 17.6609 27.501 17.6609C26.9678 17.6609 26.446 17.547 25.9355 17.3191C25.4251 17.0912 25.0355 16.7791 24.7666 16.3826L25.4229 15.6238C25.9652 16.2937 26.6283 16.6287 27.4121 16.6287C28.0273 16.6287 28.5059 16.4555 28.8477 16.1091C29.194 15.7628 29.3672 15.2751 29.3672 14.6462V14.0105C28.8613 14.5938 28.1709 14.8855 27.2959 14.8855C26.43 14.8855 25.7282 14.5369 25.1904 13.8396C24.6572 13.1423 24.3906 12.1921 24.3906 10.989ZM25.6621 11.1326C25.6621 11.9666 25.833 12.6228 26.1748 13.1013C26.5166 13.5753 26.9951 13.8123 27.6104 13.8123C28.4079 13.8123 28.9935 13.45 29.3672 12.7253V9.34839C28.9798 8.64201 28.3988 8.28882 27.624 8.28882C27.0088 8.28882 26.528 8.52808 26.1816 9.00659C25.8353 9.48511 25.6621 10.1938 25.6621 11.1326ZM35.6221 14.8855C34.6195 14.8855 33.8037 14.5574 33.1748 13.9011C32.5459 13.2403 32.2314 12.3585 32.2314 11.2556V11.0232C32.2314 10.2895 32.3704 9.6355 32.6484 9.06128C32.931 8.4825 33.3229 8.03133 33.8242 7.70776C34.3301 7.37964 34.877 7.21558 35.4648 7.21558C36.4264 7.21558 37.1738 7.53231 37.707 8.16577C38.2402 8.79924 38.5068 9.70614 38.5068 10.8865V11.4128H33.4961C33.5143 12.142 33.7262 12.7322 34.1318 13.1833C34.542 13.63 35.0615 13.8533 35.6904 13.8533C36.137 13.8533 36.5153 13.7621 36.8252 13.5798C37.1351 13.3975 37.4062 13.156 37.6387 12.8552L38.4111 13.4568C37.7913 14.4093 36.8617 14.8855 35.6221 14.8855ZM35.4648 8.25464C34.9544 8.25464 34.526 8.44149 34.1797 8.81519C33.8333 9.18433 33.6191 9.70386 33.5371 10.3738H37.2422V10.2781C37.2057 9.6355 37.0326 9.13875 36.7227 8.78784C36.4128 8.43237 35.9935 8.25464 35.4648 8.25464ZM41.6924 5.56128V7.35229H43.0732V8.32983H41.6924V12.9167C41.6924 13.213 41.7539 13.4363 41.877 13.5867C42 13.7325 42.2096 13.8054 42.5059 13.8054C42.6517 13.8054 42.8522 13.7781 43.1074 13.7234V14.7488C42.7747 14.8399 42.4512 14.8855 42.1367 14.8855C41.5716 14.8855 41.1455 14.7146 40.8584 14.3728C40.5713 14.031 40.4277 13.5457 40.4277 12.9167V8.32983H39.0811V7.35229H40.4277V5.56128H41.6924ZM54.2773 11.1326C54.2773 12.2582 54.0199 13.1651 53.5049 13.8533C52.9899 14.5414 52.2926 14.8855 51.4131 14.8855C50.5153 14.8855 49.8089 14.6007 49.2939 14.031V17.5925H48.0293V7.35229H49.1846L49.2461 8.17261C49.7611 7.53459 50.4766 7.21558 51.3926 7.21558C52.2812 7.21558 52.9831 7.55054 53.498 8.22046C54.0176 8.89038 54.2773 9.82235 54.2773 11.0164V11.1326ZM53.0127 10.989C53.0127 10.155 52.835 9.4965 52.4795 9.01343C52.124 8.53035 51.6364 8.28882 51.0166 8.28882C50.251 8.28882 49.6768 8.62834 49.2939 9.30737V12.8416C49.6722 13.516 50.251 13.8533 51.0303 13.8533C51.6364 13.8533 52.1172 13.614 52.4727 13.1355C52.8327 12.6524 53.0127 11.9369 53.0127 10.989ZM55.5557 10.9822C55.5557 10.2576 55.6969 9.60588 55.9795 9.0271C56.2666 8.44832 56.6631 8.00171 57.1689 7.68726C57.6794 7.3728 58.2604 7.21558 58.9121 7.21558C59.9193 7.21558 60.7327 7.56421 61.3525 8.26147C61.9769 8.95874 62.2891 9.88615 62.2891 11.0437V11.1326C62.2891 11.8526 62.1501 12.4998 61.8721 13.074C61.5986 13.6436 61.2044 14.088 60.6895 14.407C60.179 14.726 59.5911 14.8855 58.9258 14.8855C57.9232 14.8855 57.1097 14.5369 56.4854 13.8396C55.8656 13.1423 55.5557 12.2195 55.5557 11.071V10.9822ZM56.8271 11.1326C56.8271 11.9529 57.0163 12.6114 57.3945 13.1082C57.7773 13.6049 58.2878 13.8533 58.9258 13.8533C59.5684 13.8533 60.0788 13.6026 60.457 13.1013C60.8353 12.5955 61.0244 11.8891 61.0244 10.9822C61.0244 10.171 60.8307 9.51473 60.4434 9.01343C60.0605 8.50757 59.5501 8.25464 58.9121 8.25464C58.2878 8.25464 57.7842 8.50301 57.4014 8.99976C57.0186 9.4965 56.8271 10.2074 56.8271 11.1326ZM70.4238 13.0056L71.8457 7.35229H73.1104L70.957 14.7488H69.9316L68.1338 9.14331L66.3838 14.7488H65.3584L63.2119 7.35229H64.4697L65.9258 12.8894L67.6484 7.35229H68.667L70.4238 13.0056ZM77.4717 14.8855C76.4691 14.8855 75.6533 14.5574 75.0244 13.9011C74.3955 13.2403 74.0811 12.3585 74.0811 11.2556V11.0232C74.0811 10.2895 74.2201 9.6355 74.498 9.06128C74.7806 8.4825 75.1725 8.03133 75.6738 7.70776C76.1797 7.37964 76.7266 7.21558 77.3145 7.21558C78.276 7.21558 79.0234 7.53231 79.5566 8.16577C80.0898 8.79924 80.3564 9.70614 80.3564 10.8865V11.4128H75.3457C75.3639 12.142 75.5758 12.7322 75.9814 13.1833C76.3916 13.63 76.9111 13.8533 77.54 13.8533C77.9867 13.8533 78.3649 13.7621 78.6748 13.5798C78.9847 13.3975 79.2559 13.156 79.4883 12.8552L80.2607 13.4568C79.641 14.4093 78.7113 14.8855 77.4717 14.8855ZM77.3145 8.25464C76.804 8.25464 76.3757 8.44149 76.0293 8.81519C75.6829 9.18433 75.4688 9.70386 75.3867 10.3738H79.0918V10.2781C79.0553 9.6355 78.8822 9.13875 78.5723 8.78784C78.2624 8.43237 77.8431 8.25464 77.3145 8.25464ZM85.4014 8.48706C85.21 8.45516 85.0026 8.43921 84.7793 8.43921C83.9499 8.43921 83.387 8.7924 83.0908 9.49878V14.7488H81.8262V7.35229H83.0566L83.0771 8.20679C83.4919 7.54598 84.0798 7.21558 84.8408 7.21558C85.0869 7.21558 85.2738 7.24748 85.4014 7.31128V8.48706ZM89.5029 14.8855C88.5003 14.8855 87.6846 14.5574 87.0557 13.9011C86.4268 13.2403 86.1123 12.3585 86.1123 11.2556V11.0232C86.1123 10.2895 86.2513 9.6355 86.5293 9.06128C86.8118 8.4825 87.2038 8.03133 87.7051 7.70776C88.2109 7.37964 88.7578 7.21558 89.3457 7.21558C90.3073 7.21558 91.0547 7.53231 91.5879 8.16577C92.1211 8.79924 92.3877 9.70614 92.3877 10.8865V11.4128H87.377C87.3952 12.142 87.6071 12.7322 88.0127 13.1833C88.4229 13.63 88.9424 13.8533 89.5713 13.8533C90.0179 13.8533 90.3962 13.7621 90.7061 13.5798C91.016 13.3975 91.2871 13.156 91.5195 12.8552L92.292 13.4568C91.6722 14.4093 90.7425 14.8855 89.5029 14.8855ZM89.3457 8.25464C88.8353 8.25464 88.4069 8.44149 88.0605 8.81519C87.7142 9.18433 87.5 9.70386 87.418 10.3738H91.123V10.2781C91.0866 9.6355 90.9134 9.13875 90.6035 8.78784C90.2936 8.43237 89.8743 8.25464 89.3457 8.25464ZM93.5498 10.989C93.5498 9.85425 93.8187 8.94279 94.3564 8.25464C94.8942 7.56193 95.5983 7.21558 96.4688 7.21558C97.3346 7.21558 98.0205 7.5118 98.5264 8.10425V4.24878H99.791V14.7488H98.6289L98.5674 13.9558C98.0615 14.5756 97.3574 14.8855 96.4551 14.8855C95.5983 14.8855 94.8988 14.5346 94.3564 13.8328C93.8187 13.1309 93.5498 12.2149 93.5498 11.0847V10.989ZM94.8145 11.1326C94.8145 11.9711 94.9876 12.6274 95.334 13.1013C95.6803 13.5753 96.1589 13.8123 96.7695 13.8123C97.5716 13.8123 98.1572 13.4522 98.5264 12.7322V9.33472C98.1481 8.63745 97.5671 8.28882 96.7832 8.28882C96.1634 8.28882 95.6803 8.52808 95.334 9.00659C94.9876 9.48511 94.8145 10.1938 94.8145 11.1326Z" fill="#9CA0AC"/>
<rect x="106" y="0.748779" width="18" height="18" rx="9" fill="#0066FF"/>
<path d="M115.003 5.03758V5.64632C115.003 6.17014 114.905 6.25506 114.567 6.4392L111.416 8.03897V8.10979L114.552 9.68135C114.905 9.86529 115.003 9.93621 115.003 10.4742V11.1537C115.003 11.5784 114.862 11.72 114.496 11.5219L109.755 8.91667C109.474 8.76104 109.375 8.64771 109.375 8.32224V7.86913C109.375 7.54346 109.474 7.41603 109.755 7.26039L114.496 4.66939C114.862 4.47125 115.003 4.61278 115.003 5.03758Z" fill="white"/>
<path d="M115.504 7.27676L120.231 9.86765C120.526 10.0234 120.625 10.1366 120.625 10.4622V10.9153C120.625 11.2551 120.526 11.3683 120.231 11.524L115.504 14.1149C115.124 14.3132 114.997 14.1716 114.997 13.7468V13.1381C114.997 12.6143 115.095 12.5293 115.433 12.3594L118.585 10.7596V10.6746L115.448 9.10308C115.095 8.93324 114.997 8.84822 114.997 8.31019V7.63064C114.997 7.20584 115.124 7.06441 115.504 7.27676Z" fill="white"/>
<path d="M136.219 11.1326C136.219 12.2628 135.959 13.172 135.439 13.8601C134.92 14.5437 134.223 14.8855 133.348 14.8855C132.413 14.8855 131.691 14.5551 131.181 13.8943L131.119 14.7488H129.957V4.24878H131.222V8.16577C131.732 7.53231 132.436 7.21558 133.334 7.21558C134.232 7.21558 134.936 7.55509 135.446 8.23413C135.961 8.91317 136.219 9.84285 136.219 11.0232V11.1326ZM134.954 10.989C134.954 10.1277 134.788 9.46232 134.455 8.99292C134.122 8.52352 133.644 8.28882 133.02 8.28882C132.186 8.28882 131.586 8.67619 131.222 9.45093V12.6501C131.609 13.4249 132.213 13.8123 133.033 13.8123C133.639 13.8123 134.111 13.5776 134.448 13.1082C134.785 12.6388 134.954 11.9324 134.954 10.989ZM140.156 12.8962L141.879 7.35229H143.232L140.259 15.8904C139.799 17.1208 139.067 17.7361 138.064 17.7361L137.825 17.7156L137.354 17.6267V16.6013L137.695 16.6287C138.124 16.6287 138.456 16.5421 138.693 16.3689C138.935 16.1957 139.133 15.879 139.288 15.4187L139.568 14.6667L136.93 7.35229H138.311L140.156 12.8962ZM153.664 10.1482H149.351V13.6755H154.361V14.7488H148.038V4.79565H154.293V5.87573H149.351V9.07495H153.664V10.1482ZM156.986 7.35229L157.021 8.17261C157.563 7.53459 158.294 7.21558 159.215 7.21558C160.249 7.21558 160.953 7.61206 161.327 8.40503C161.573 8.04956 161.892 7.76245 162.284 7.5437C162.681 7.32495 163.148 7.21558 163.686 7.21558C165.308 7.21558 166.133 8.07463 166.16 9.79272V14.7488H164.896V9.86792C164.896 9.33927 164.775 8.94507 164.533 8.6853C164.292 8.42098 163.886 8.28882 163.316 8.28882C162.847 8.28882 162.457 8.43009 162.147 8.71265C161.838 8.99064 161.658 9.36662 161.607 9.84058V14.7488H160.336V9.9021C160.336 8.82658 159.81 8.28882 158.757 8.28882C157.927 8.28882 157.36 8.64201 157.055 9.34839V14.7488H155.79V7.35229H156.986ZM174.336 11.1326C174.336 12.2628 174.076 13.172 173.557 13.8601C173.037 14.5437 172.34 14.8855 171.465 14.8855C170.531 14.8855 169.808 14.5551 169.298 13.8943L169.236 14.7488H168.074V4.24878H169.339V8.16577C169.849 7.53231 170.553 7.21558 171.451 7.21558C172.349 7.21558 173.053 7.55509 173.563 8.23413C174.078 8.91317 174.336 9.84285 174.336 11.0232V11.1326ZM173.071 10.989C173.071 10.1277 172.905 9.46232 172.572 8.99292C172.24 8.52352 171.761 8.28882 171.137 8.28882C170.303 8.28882 169.703 8.67619 169.339 9.45093V12.6501C169.726 13.4249 170.33 13.8123 171.15 13.8123C171.757 13.8123 172.228 13.5776 172.565 13.1082C172.903 12.6388 173.071 11.9324 173.071 10.989ZM179.005 14.8855C178.002 14.8855 177.187 14.5574 176.558 13.9011C175.929 13.2403 175.614 12.3585 175.614 11.2556V11.0232C175.614 10.2895 175.753 9.6355 176.031 9.06128C176.314 8.4825 176.706 8.03133 177.207 7.70776C177.713 7.37964 178.26 7.21558 178.848 7.21558C179.809 7.21558 180.557 7.53231 181.09 8.16577C181.623 8.79924 181.89 9.70614 181.89 10.8865V11.4128H176.879C176.897 12.142 177.109 12.7322 177.515 13.1833C177.925 13.63 178.444 13.8533 179.073 13.8533C179.52 13.8533 179.898 13.7621 180.208 13.5798C180.518 13.3975 180.789 13.156 181.021 12.8552L181.794 13.4568C181.174 14.4093 180.244 14.8855 179.005 14.8855ZM178.848 8.25464C178.337 8.25464 177.909 8.44149 177.562 8.81519C177.216 9.18433 177.002 9.70386 176.92 10.3738H180.625V10.2781C180.589 9.6355 180.415 9.13875 180.105 8.78784C179.796 8.43237 179.376 8.25464 178.848 8.25464ZM183.052 10.989C183.052 9.85425 183.321 8.94279 183.858 8.25464C184.396 7.56193 185.1 7.21558 185.971 7.21558C186.837 7.21558 187.522 7.5118 188.028 8.10425V4.24878H189.293V14.7488H188.131L188.069 13.9558C187.563 14.5756 186.859 14.8855 185.957 14.8855C185.1 14.8855 184.401 14.5346 183.858 13.8328C183.321 13.1309 183.052 12.2149 183.052 11.0847V10.989ZM184.316 11.1326C184.316 11.9711 184.49 12.6274 184.836 13.1013C185.182 13.5753 185.661 13.8123 186.271 13.8123C187.074 13.8123 187.659 13.4522 188.028 12.7322V9.33472C187.65 8.63745 187.069 8.28882 186.285 8.28882C185.665 8.28882 185.182 8.52808 184.836 9.00659C184.49 9.48511 184.316 10.1938 184.316 11.1326ZM194.393 10.3123C193.267 9.98869 192.447 9.5922 191.932 9.1228C191.421 8.64884 191.166 8.06551 191.166 7.3728C191.166 6.58895 191.478 5.94181 192.103 5.4314C192.731 4.91642 193.547 4.65894 194.55 4.65894C195.233 4.65894 195.842 4.7911 196.375 5.05542C196.913 5.31974 197.327 5.68433 197.619 6.14917C197.915 6.61401 198.063 7.12215 198.063 7.67358H196.744C196.744 7.07202 196.553 6.60034 196.17 6.25854C195.787 5.91219 195.247 5.73901 194.55 5.73901C193.903 5.73901 193.397 5.88257 193.032 6.16968C192.672 6.45223 192.492 6.84644 192.492 7.35229C192.492 7.75789 192.663 8.10197 193.005 8.38452C193.351 8.66252 193.937 8.91772 194.762 9.15015C195.591 9.38257 196.238 9.64006 196.703 9.92261C197.173 10.2006 197.519 10.5264 197.742 10.9001C197.97 11.2738 198.084 11.7136 198.084 12.2195C198.084 13.0261 197.77 13.6733 197.141 14.1609C196.512 14.644 195.671 14.8855 194.618 14.8855C193.935 14.8855 193.297 14.7556 192.704 14.4958C192.112 14.2315 191.654 13.8715 191.33 13.4158C191.011 12.96 190.852 12.4428 190.852 11.864H192.171C192.171 12.4656 192.392 12.9418 192.834 13.2927C193.281 13.6391 193.875 13.8123 194.618 13.8123C195.311 13.8123 195.842 13.671 196.211 13.3884C196.58 13.1059 196.765 12.7208 196.765 12.2332C196.765 11.7455 196.594 11.3695 196.252 11.1052C195.91 10.8363 195.29 10.572 194.393 10.3123ZM199.239 10.9822C199.239 10.2576 199.381 9.60588 199.663 9.0271C199.95 8.44832 200.347 8.00171 200.853 7.68726C201.363 7.3728 201.944 7.21558 202.596 7.21558C203.603 7.21558 204.416 7.56421 205.036 8.26147C205.66 8.95874 205.973 9.88615 205.973 11.0437V11.1326C205.973 11.8526 205.834 12.4998 205.556 13.074C205.282 13.6436 204.888 14.088 204.373 14.407C203.863 14.726 203.275 14.8855 202.609 14.8855C201.607 14.8855 200.793 14.5369 200.169 13.8396C199.549 13.1423 199.239 12.2195 199.239 11.071V10.9822ZM200.511 11.1326C200.511 11.9529 200.7 12.6114 201.078 13.1082C201.461 13.6049 201.971 13.8533 202.609 13.8533C203.252 13.8533 203.762 13.6026 204.141 13.1013C204.519 12.5955 204.708 11.8891 204.708 10.9822C204.708 10.171 204.514 9.51473 204.127 9.01343C203.744 8.50757 203.234 8.25464 202.596 8.25464C201.971 8.25464 201.468 8.50301 201.085 8.99976C200.702 9.4965 200.511 10.2074 200.511 11.1326ZM210.525 13.8533C210.977 13.8533 211.371 13.7166 211.708 13.4431C212.045 13.1697 212.232 12.8279 212.269 12.4177H213.465C213.442 12.8416 213.296 13.2449 213.027 13.6277C212.758 14.0105 212.398 14.3158 211.947 14.5437C211.501 14.7716 211.027 14.8855 210.525 14.8855C209.518 14.8855 208.716 14.5505 208.119 13.8806C207.527 13.2061 207.23 12.2856 207.23 11.1189V10.907C207.23 10.1869 207.363 9.54663 207.627 8.98608C207.891 8.42554 208.27 7.99032 208.762 7.68042C209.258 7.37052 209.844 7.21558 210.519 7.21558C211.348 7.21558 212.036 7.46395 212.583 7.96069C213.134 8.45744 213.428 9.10229 213.465 9.89526H212.269C212.232 9.41675 212.05 9.02482 211.722 8.71948C211.398 8.40959 210.997 8.25464 210.519 8.25464C209.876 8.25464 209.377 8.48706 209.021 8.9519C208.671 9.41219 208.495 10.0798 208.495 10.9548V11.1941C208.495 12.0463 208.671 12.7026 209.021 13.1628C209.372 13.6231 209.874 13.8533 210.525 13.8533ZM216.261 14.7488H214.996V7.35229H216.261V14.7488ZM214.894 5.39038C214.894 5.1853 214.955 5.01213 215.078 4.87085C215.206 4.72957 215.393 4.65894 215.639 4.65894C215.885 4.65894 216.072 4.72957 216.199 4.87085C216.327 5.01213 216.391 5.1853 216.391 5.39038C216.391 5.59546 216.327 5.76636 216.199 5.90308C216.072 6.03979 215.885 6.10815 215.639 6.10815C215.393 6.10815 215.206 6.03979 215.078 5.90308C214.955 5.76636 214.894 5.59546 214.894 5.39038ZM222.857 14.7488C222.785 14.6029 222.725 14.3432 222.68 13.9695C222.092 14.5802 221.39 14.8855 220.574 14.8855C219.845 14.8855 219.246 14.6804 218.776 14.2703C218.312 13.8556 218.079 13.3315 218.079 12.698C218.079 11.9278 218.371 11.3308 218.954 10.907C219.542 10.4786 220.367 10.2644 221.429 10.2644H222.659V9.68335C222.659 9.24129 222.527 8.89038 222.263 8.63062C221.998 8.36629 221.609 8.23413 221.094 8.23413C220.643 8.23413 220.264 8.34806 219.959 8.57593C219.654 8.80379 219.501 9.07951 219.501 9.40308H218.229C218.229 9.03394 218.359 8.67847 218.619 8.33667C218.883 7.99032 219.239 7.71688 219.686 7.51636C220.137 7.31584 220.631 7.21558 221.169 7.21558C222.021 7.21558 222.689 7.42977 223.172 7.85815C223.655 8.28198 223.906 8.86759 223.924 9.61499V13.0193C223.924 13.6983 224.01 14.2384 224.184 14.6394V14.7488H222.857ZM220.759 13.7849C221.155 13.7849 221.531 13.6824 221.887 13.4773C222.242 13.2722 222.5 13.0056 222.659 12.6775V11.1599H221.668C220.118 11.1599 219.344 11.6134 219.344 12.5203C219.344 12.9167 219.476 13.2266 219.74 13.45C220.005 13.6733 220.344 13.7849 220.759 13.7849ZM227.28 14.7488H226.016V4.24878H227.28V14.7488Z" fill="#9CA0AC"/>
<path d="M146.883 16.116H228.347V16.7996H146.883V16.116Z" fill="#9CA0AC"/>
</svg>
