<svg width="97" height="17" viewBox="0 0 97 17" fill="none" xmlns="http://www.w3.org/2000/svg">
<g clip-path="url(#clip0_1264_26853)">
<path d="M4.19437 10.2383L3.63744 12.3174L1.60184 12.3605C0.9935 11.2321 0.648438 9.94114 0.648438 8.56926C0.648438 7.24267 0.971063 5.99167 1.54294 4.89014H1.54337L3.35562 5.22239L4.1495 7.02376C3.98334 7.50817 3.89278 8.02817 3.89278 8.56926C3.89284 9.15651 3.99922 9.71917 4.19437 10.2383Z" fill="#FBBB00"/>
<path d="M16.5086 7.07471C16.6004 7.55864 16.6483 8.05843 16.6483 8.56921C16.6483 9.14196 16.5881 9.70064 16.4734 10.2396C16.084 12.0734 15.0664 13.6747 13.6567 14.8079L13.6563 14.8075L11.3737 14.691L11.0506 12.6743C11.986 12.1257 12.717 11.2672 13.102 10.2396H8.82422V7.07471H13.1644H16.5086Z" fill="#518EF8"/>
<path d="M13.658 14.8075L13.6585 14.8079C12.2875 15.9099 10.5459 16.5692 8.65011 16.5692C5.60352 16.5692 2.95473 14.8664 1.60352 12.3605L4.19605 10.2383C4.87164 12.0413 6.61098 13.3249 8.65011 13.3249C9.52658 13.3249 10.3477 13.0879 11.0523 12.6743L13.658 14.8075Z" fill="#28B446"/>
<path d="M13.7573 2.41109L11.1656 4.53284C10.4364 4.07702 9.57441 3.81371 8.65091 3.81371C6.56563 3.81371 4.79375 5.15612 4.152 7.02384L1.54585 4.89021H1.54541C2.87685 2.32318 5.55903 0.569336 8.65091 0.569336C10.592 0.569336 12.3718 1.26077 13.7573 2.41109Z" fill="#F14336"/>
</g>
<path d="M32.9473 11.5693H27.3574V10.79L30.3105 7.50879C30.748 7.0127 31.0488 6.61035 31.2129 6.30176C31.3809 5.98926 31.4648 5.66699 31.4648 5.33496C31.4648 4.88965 31.3301 4.52441 31.0605 4.23926C30.791 3.9541 30.4316 3.81152 29.9824 3.81152C29.4434 3.81152 29.0234 3.96582 28.7227 4.27441C28.4258 4.5791 28.2773 5.00488 28.2773 5.55176H27.1934C27.1934 4.7666 27.4453 4.13184 27.9492 3.64746C28.457 3.16309 29.1348 2.9209 29.9824 2.9209C30.7754 2.9209 31.4023 3.12988 31.8633 3.54785C32.3242 3.96191 32.5547 4.51465 32.5547 5.20605C32.5547 6.0459 32.0195 7.0459 30.9492 8.20605L28.6641 10.6846H32.9473V11.5693ZM43.2769 10.0752L44.4956 5.22949H45.5796L43.7339 11.5693H42.855L41.314 6.76465L39.814 11.5693H38.9351L37.0952 5.22949H38.1734L39.4214 9.97559L40.898 5.22949H41.771L43.2769 10.0752ZM49.5579 11.6865C48.6985 11.6865 47.9993 11.4053 47.4602 10.8428C46.9212 10.2764 46.6516 9.52051 46.6516 8.5752V8.37598C46.6516 7.74707 46.7708 7.18652 47.0091 6.69434C47.2512 6.19824 47.5872 5.81152 48.0169 5.53418C48.4505 5.25293 48.9192 5.1123 49.4231 5.1123C50.2473 5.1123 50.888 5.38379 51.345 5.92676C51.802 6.46973 52.0305 7.24707 52.0305 8.25879V8.70996H47.7356C47.7512 9.33496 47.9329 9.84082 48.2805 10.2275C48.6321 10.6104 49.0774 10.8018 49.6165 10.8018C49.9993 10.8018 50.3235 10.7236 50.5891 10.5674C50.8548 10.4111 51.0872 10.2041 51.2864 9.94629L51.9485 10.4619C51.4173 11.2783 50.6204 11.6865 49.5579 11.6865ZM49.4231 6.00293C48.9856 6.00293 48.6184 6.16309 48.3216 6.4834C48.0247 6.7998 47.8411 7.24512 47.7708 7.81934H50.9466V7.7373C50.9153 7.18652 50.7669 6.76074 50.5012 6.45996C50.2356 6.15527 49.8762 6.00293 49.4231 6.00293ZM56.1612 11.6865C55.3018 11.6865 54.6026 11.4053 54.0635 10.8428C53.5245 10.2764 53.2549 9.52051 53.2549 8.5752V8.37598C53.2549 7.74707 53.3741 7.18652 53.6123 6.69434C53.8545 6.19824 54.1905 5.81152 54.6202 5.53418C55.0537 5.25293 55.5225 5.1123 56.0264 5.1123C56.8506 5.1123 57.4912 5.38379 57.9483 5.92676C58.4053 6.46973 58.6338 7.24707 58.6338 8.25879V8.70996H54.3389C54.3545 9.33496 54.5362 9.84082 54.8838 10.2275C55.2354 10.6104 55.6807 10.8018 56.2198 10.8018C56.6026 10.8018 56.9268 10.7236 57.1924 10.5674C57.458 10.4111 57.6905 10.2041 57.8897 9.94629L58.5518 10.4619C58.0205 11.2783 57.2237 11.6865 56.1612 11.6865ZM56.0264 6.00293C55.5889 6.00293 55.2217 6.16309 54.9248 6.4834C54.628 6.7998 54.4444 7.24512 54.3741 7.81934H57.5498V7.7373C57.5186 7.18652 57.3702 6.76074 57.1045 6.45996C56.8389 6.15527 56.4795 6.00293 56.0264 6.00293ZM61.9031 8.63379L61.2234 9.34277V11.5693H60.1395V2.56934H61.2234V8.0127L61.8035 7.31543L63.7781 5.22949H65.0965L62.6297 7.87793L65.3836 11.5693H64.1121L61.9031 8.63379ZM70.147 9.8877C70.147 9.59473 70.0357 9.36816 69.813 9.20801C69.5943 9.04395 69.2095 8.90332 68.6587 8.78613C68.1119 8.66895 67.6763 8.52832 67.3521 8.36426C67.0318 8.2002 66.7935 8.00488 66.6373 7.77832C66.4849 7.55176 66.4087 7.28223 66.4087 6.96973C66.4087 6.4502 66.6275 6.01074 67.065 5.65137C67.5064 5.29199 68.0689 5.1123 68.7525 5.1123C69.4712 5.1123 70.0533 5.29785 70.4986 5.66895C70.9478 6.04004 71.1724 6.51465 71.1724 7.09277H70.0826C70.0826 6.7959 69.9556 6.54004 69.7017 6.3252C69.4517 6.11035 69.1353 6.00293 68.7525 6.00293C68.358 6.00293 68.0494 6.08887 67.8267 6.26074C67.6041 6.43262 67.4927 6.65723 67.4927 6.93457C67.4927 7.19629 67.5962 7.39355 67.8033 7.52637C68.0103 7.65918 68.3834 7.78613 68.9224 7.90723C69.4654 8.02832 69.9048 8.17285 70.2408 8.34082C70.5767 8.50879 70.8248 8.71191 70.9849 8.9502C71.149 9.18457 71.231 9.47168 71.231 9.81152C71.231 10.3779 71.0045 10.833 70.5513 11.1768C70.0982 11.5166 69.5103 11.6865 68.7877 11.6865C68.2798 11.6865 67.8306 11.5967 67.44 11.417C67.0494 11.2373 66.7427 10.9873 66.5201 10.667C66.3013 10.3428 66.192 9.99316 66.192 9.61816H67.2759C67.2955 9.98145 67.44 10.2705 67.7095 10.4854C67.983 10.6963 68.3423 10.8018 68.7877 10.8018C69.1978 10.8018 69.5259 10.7197 69.772 10.5557C70.022 10.3877 70.147 10.165 70.147 9.8877ZM80.0137 11.5693C79.9512 11.4443 79.9005 11.2217 79.8614 10.9014C79.3575 11.4248 78.7559 11.6865 78.0567 11.6865C77.4317 11.6865 76.918 11.5107 76.5157 11.1592C76.1173 10.8037 75.918 10.3545 75.918 9.81152C75.918 9.15137 76.168 8.63965 76.668 8.27637C77.172 7.90918 77.879 7.72559 78.7891 7.72559H79.8438V7.22754C79.8438 6.84863 79.7305 6.54785 79.504 6.3252C79.2774 6.09863 78.9434 5.98535 78.502 5.98535C78.1153 5.98535 77.7911 6.08301 77.5294 6.27832C77.2677 6.47363 77.1368 6.70996 77.1368 6.9873H76.047C76.047 6.6709 76.1583 6.36621 76.3809 6.07324C76.6075 5.77637 76.9122 5.54199 77.295 5.37012C77.6817 5.19824 78.1055 5.1123 78.5665 5.1123C79.297 5.1123 79.8692 5.2959 80.2833 5.66309C80.6973 6.02637 80.9122 6.52832 80.9278 7.16895V10.0869C80.9278 10.6689 81.002 11.1318 81.1505 11.4756V11.5693H80.0137ZM78.2149 10.7432C78.5548 10.7432 78.877 10.6553 79.1817 10.4795C79.4864 10.3037 79.7071 10.0752 79.8438 9.79395V8.49316H78.9942C77.6661 8.49316 77.002 8.88184 77.002 9.65918C77.002 9.99902 77.1153 10.2646 77.3419 10.4561C77.5684 10.6475 77.8595 10.7432 78.2149 10.7432ZM82.6092 8.34668C82.6092 7.3584 82.8377 6.57324 83.2948 5.99121C83.7518 5.40527 84.3573 5.1123 85.1112 5.1123C85.8846 5.1123 86.4881 5.38574 86.9217 5.93262L86.9745 5.22949H87.9647V11.417C87.9647 12.2373 87.7205 12.8838 87.2323 13.3564C86.7479 13.8291 86.0955 14.0654 85.2752 14.0654C84.8182 14.0654 84.3709 13.9678 83.9334 13.7725C83.4959 13.5771 83.162 13.3096 82.9315 12.9697L83.494 12.3193C83.9588 12.8936 84.5272 13.1807 85.1991 13.1807C85.7264 13.1807 86.1366 13.0322 86.4295 12.7354C86.7264 12.4385 86.8748 12.0205 86.8748 11.4814V10.9365C86.4412 11.4365 85.8495 11.6865 85.0995 11.6865C84.3573 11.6865 83.7557 11.3877 83.2948 10.79C82.8377 10.1924 82.6092 9.37793 82.6092 8.34668ZM83.6991 8.46973C83.6991 9.18457 83.8455 9.74707 84.1385 10.1572C84.4315 10.5635 84.8416 10.7666 85.369 10.7666C86.0526 10.7666 86.5545 10.4561 86.8748 9.83496V6.94043C86.5428 6.33496 86.0448 6.03223 85.3807 6.03223C84.8534 6.03223 84.4412 6.2373 84.1444 6.64746C83.8475 7.05762 83.6991 7.66504 83.6991 8.46973ZM89.5582 8.34082C89.5582 7.71973 89.6793 7.16113 89.9215 6.66504C90.1676 6.16895 90.5074 5.78613 90.941 5.5166C91.3785 5.24707 91.8766 5.1123 92.4352 5.1123C93.2984 5.1123 93.9957 5.41113 94.527 6.00879C95.0621 6.60645 95.3297 7.40137 95.3297 8.39355V8.46973C95.3297 9.08691 95.2105 9.6416 94.9723 10.1338C94.7379 10.6221 94.4 11.0029 93.9586 11.2764C93.5211 11.5498 93.0172 11.6865 92.4469 11.6865C91.5875 11.6865 90.8902 11.3877 90.3551 10.79C89.8238 10.1924 89.5582 9.40137 89.5582 8.41699V8.34082ZM90.648 8.46973C90.648 9.17285 90.8102 9.7373 91.1344 10.1631C91.4625 10.5889 91.9 10.8018 92.4469 10.8018C92.9977 10.8018 93.4352 10.5869 93.7594 10.1572C94.0836 9.72363 94.2457 9.11816 94.2457 8.34082C94.2457 7.64551 94.0797 7.08301 93.7477 6.65332C93.4195 6.21973 92.982 6.00293 92.4352 6.00293C91.9 6.00293 91.4684 6.21582 91.1402 6.6416C90.8121 7.06738 90.648 7.67676 90.648 8.46973Z" fill="#9CA0AC"/>
<defs>
<clipPath id="clip0_1264_26853">
<rect width="16" height="16" fill="white" transform="translate(0.648438 0.569336)"/>
</clipPath>
</defs>
</svg>
