<svg width="154" height="41" viewBox="0 0 154 41" fill="none" xmlns="http://www.w3.org/2000/svg">
<path d="M55.3613 26.8799C54.623 26.8799 53.9609 26.7627 53.375 26.5283C52.7891 26.2881 52.291 25.957 51.8809 25.5352C51.4766 25.1133 51.166 24.624 50.9492 24.0674C50.7324 23.5049 50.624 22.9072 50.624 22.2744V21.9229C50.624 21.2021 50.7266 20.543 50.9316 19.9453C51.1367 19.3477 51.4297 18.8291 51.8105 18.3896C52.1973 17.9502 52.666 17.6133 53.2168 17.3789C53.7676 17.1387 54.3887 17.0186 55.0801 17.0186C55.7539 17.0186 56.3516 17.1299 56.873 17.3525C57.3945 17.5752 57.8311 17.8916 58.1826 18.3018C58.54 18.7119 58.8096 19.2041 58.9912 19.7783C59.1729 20.3467 59.2637 20.9795 59.2637 21.6768V22.7314H51.7051V21.0439H56.7764V20.8506C56.7764 20.499 56.7119 20.1855 56.583 19.9102C56.46 19.6289 56.2725 19.4062 56.0205 19.2422C55.7686 19.0781 55.4463 18.9961 55.0537 18.9961C54.7197 18.9961 54.4326 19.0693 54.1924 19.2158C53.9521 19.3623 53.7559 19.5674 53.6035 19.8311C53.457 20.0947 53.3457 20.4053 53.2695 20.7627C53.1992 21.1143 53.1641 21.501 53.1641 21.9229V22.2744C53.1641 22.6553 53.2168 23.0068 53.3223 23.3291C53.4336 23.6514 53.5889 23.9297 53.7881 24.1641C53.9932 24.3984 54.2393 24.5801 54.5264 24.709C54.8193 24.8379 55.1504 24.9023 55.5195 24.9023C55.9766 24.9023 56.4014 24.8145 56.7939 24.6387C57.1924 24.457 57.5352 24.1846 57.8223 23.8213L59.0527 25.1572C58.8535 25.4443 58.5811 25.7197 58.2354 25.9834C57.8955 26.2471 57.4854 26.4639 57.0049 26.6338C56.5244 26.7979 55.9766 26.8799 55.3613 26.8799ZM63.2363 19.1631V26.7041H60.6963V17.1943H63.0781L63.2363 19.1631ZM62.8848 21.6152H62.1816C62.1816 20.9531 62.2607 20.3438 62.4189 19.7871C62.583 19.2246 62.8203 18.7383 63.1309 18.3281C63.4473 17.9121 63.8369 17.5898 64.2998 17.3613C64.7627 17.1328 65.2988 17.0186 65.9082 17.0186C66.3301 17.0186 66.7168 17.083 67.0684 17.2119C67.4199 17.335 67.7217 17.5312 67.9736 17.8008C68.2314 18.0645 68.4307 18.4102 68.5713 18.8379C68.7119 19.2598 68.7822 19.7666 68.7822 20.3584V26.7041H66.251V20.6396C66.251 20.2061 66.1924 19.8721 66.0752 19.6377C65.958 19.4033 65.791 19.2393 65.5742 19.1455C65.3633 19.0518 65.1084 19.0049 64.8096 19.0049C64.4814 19.0049 64.1943 19.0723 63.9482 19.207C63.708 19.3418 63.5088 19.5293 63.3506 19.7695C63.1924 20.0039 63.0752 20.2793 62.999 20.5957C62.9229 20.9121 62.8848 21.252 62.8848 21.6152ZM68.5449 21.3252L67.6396 21.4395C67.6396 20.8184 67.7158 20.2412 67.8682 19.708C68.0264 19.1748 68.2578 18.7061 68.5625 18.3018C68.873 17.8975 69.2568 17.584 69.7139 17.3613C70.1709 17.1328 70.6982 17.0186 71.2959 17.0186C71.7529 17.0186 72.1689 17.0859 72.5439 17.2207C72.9189 17.3496 73.2383 17.5576 73.502 17.8447C73.7715 18.126 73.9766 18.4951 74.1172 18.9521C74.2637 19.4092 74.3369 19.9688 74.3369 20.6309V26.7041H71.7969V20.6309C71.7969 20.1914 71.7383 19.8574 71.6211 19.6289C71.5098 19.3945 71.3457 19.2334 71.1289 19.1455C70.918 19.0518 70.666 19.0049 70.373 19.0049C70.0684 19.0049 69.8018 19.0664 69.5732 19.1895C69.3447 19.3066 69.1543 19.4707 69.002 19.6816C68.8496 19.8926 68.7354 20.1387 68.6592 20.4199C68.583 20.6953 68.5449 20.9971 68.5449 21.3252ZM76.2969 13.2041H78.8281V24.5244L78.5732 26.7041H76.2969V13.2041ZM84.8486 21.8525V22.0371C84.8486 22.7461 84.7725 23.3965 84.6201 23.9883C84.4736 24.5801 84.2451 25.0928 83.9346 25.5264C83.624 25.9541 83.2373 26.2881 82.7744 26.5283C82.3174 26.7627 81.7783 26.8799 81.1572 26.8799C80.5771 26.8799 80.0732 26.7627 79.6455 26.5283C79.2236 26.2939 78.8691 25.9629 78.582 25.5352C78.2949 25.1074 78.0635 24.6064 77.8877 24.0322C77.7119 23.458 77.5801 22.8311 77.4922 22.1514V21.7471C77.5801 21.0674 77.7119 20.4404 77.8877 19.8662C78.0635 19.292 78.2949 18.791 78.582 18.3633C78.8691 17.9355 79.2236 17.6045 79.6455 17.3701C80.0674 17.1357 80.5654 17.0186 81.1396 17.0186C81.7666 17.0186 82.3115 17.1387 82.7744 17.3789C83.2432 17.6133 83.6299 17.9473 83.9346 18.3809C84.2451 18.8086 84.4736 19.3184 84.6201 19.9102C84.7725 20.4961 84.8486 21.1436 84.8486 21.8525ZM82.3174 22.0371V21.8525C82.3174 21.4658 82.2881 21.1025 82.2295 20.7627C82.1768 20.417 82.083 20.1152 81.9482 19.8574C81.8135 19.5938 81.6289 19.3857 81.3945 19.2334C81.166 19.0811 80.8701 19.0049 80.5068 19.0049C80.1611 19.0049 79.8682 19.0635 79.6279 19.1807C79.3877 19.2979 79.1885 19.4619 79.0303 19.6729C78.8779 19.8838 78.7637 20.1357 78.6875 20.4287C78.6113 20.7158 78.5645 21.0322 78.5469 21.3779V22.5293C78.5645 22.9922 78.6406 23.4023 78.7754 23.7598C78.916 24.1113 79.127 24.3896 79.4082 24.5947C79.6953 24.7939 80.0674 24.8936 80.5244 24.8936C80.8818 24.8936 81.1777 24.8232 81.4121 24.6826C81.6465 24.542 81.8281 24.3428 81.957 24.085C82.0918 23.8271 82.1855 23.5254 82.2383 23.1797C82.291 22.8281 82.3174 22.4473 82.3174 22.0371ZM90.7988 26.8799C90.0605 26.8799 89.3984 26.7627 88.8125 26.5283C88.2266 26.2881 87.7285 25.957 87.3184 25.5352C86.9141 25.1133 86.6035 24.624 86.3867 24.0674C86.1699 23.5049 86.0615 22.9072 86.0615 22.2744V21.9229C86.0615 21.2021 86.1641 20.543 86.3691 19.9453C86.5742 19.3477 86.8672 18.8291 87.248 18.3896C87.6348 17.9502 88.1035 17.6133 88.6543 17.3789C89.2051 17.1387 89.8262 17.0186 90.5176 17.0186C91.1914 17.0186 91.7891 17.1299 92.3105 17.3525C92.832 17.5752 93.2686 17.8916 93.6201 18.3018C93.9775 18.7119 94.2471 19.2041 94.4287 19.7783C94.6104 20.3467 94.7012 20.9795 94.7012 21.6768V22.7314H87.1426V21.0439H92.2139V20.8506C92.2139 20.499 92.1494 20.1855 92.0205 19.9102C91.8975 19.6289 91.71 19.4062 91.458 19.2422C91.2061 19.0781 90.8838 18.9961 90.4912 18.9961C90.1572 18.9961 89.8701 19.0693 89.6299 19.2158C89.3896 19.3623 89.1934 19.5674 89.041 19.8311C88.8945 20.0947 88.7832 20.4053 88.707 20.7627C88.6367 21.1143 88.6016 21.501 88.6016 21.9229V22.2744C88.6016 22.6553 88.6543 23.0068 88.7598 23.3291C88.8711 23.6514 89.0264 23.9297 89.2256 24.1641C89.4307 24.3984 89.6768 24.5801 89.9639 24.709C90.2568 24.8379 90.5879 24.9023 90.957 24.9023C91.4141 24.9023 91.8389 24.8145 92.2314 24.6387C92.6299 24.457 92.9727 24.1846 93.2598 23.8213L94.4902 25.1572C94.291 25.4443 94.0186 25.7197 93.6729 25.9834C93.333 26.2471 92.9229 26.4639 92.4424 26.6338C91.9619 26.7979 91.4141 26.8799 90.7988 26.8799ZM101.759 24.6299V13.2041H104.308V26.7041H102.014L101.759 24.6299ZM95.7471 22.0635V21.8789C95.7471 21.1523 95.8291 20.4932 95.9932 19.9014C96.1572 19.3037 96.3975 18.791 96.7139 18.3633C97.0303 17.9355 97.4199 17.6045 97.8828 17.3701C98.3457 17.1357 98.873 17.0186 99.4648 17.0186C100.021 17.0186 100.508 17.1357 100.924 17.3701C101.346 17.6045 101.703 17.9385 101.996 18.3721C102.295 18.7998 102.535 19.3066 102.717 19.8926C102.898 20.4727 103.03 21.1084 103.112 21.7998V22.2041C103.03 22.8662 102.898 23.4814 102.717 24.0498C102.535 24.6182 102.295 25.1162 101.996 25.5439C101.703 25.9658 101.346 26.2939 100.924 26.5283C100.502 26.7627 100.01 26.8799 99.4473 26.8799C98.8555 26.8799 98.3281 26.7598 97.8652 26.5195C97.4082 26.2793 97.0215 25.9424 96.7051 25.5088C96.3945 25.0752 96.1572 24.5654 95.9932 23.9795C95.8291 23.3936 95.7471 22.7549 95.7471 22.0635ZM98.2783 21.8789V22.0635C98.2783 22.4561 98.3076 22.8223 98.3662 23.1621C98.4307 23.502 98.5332 23.8037 98.6738 24.0674C98.8203 24.3252 99.0078 24.5273 99.2363 24.6738C99.4707 24.8145 99.7549 24.8848 100.089 24.8848C100.522 24.8848 100.88 24.7881 101.161 24.5947C101.442 24.3955 101.656 24.123 101.803 23.7773C101.955 23.4316 102.043 23.0332 102.066 22.582V21.4307C102.049 21.0615 101.996 20.7305 101.908 20.4375C101.826 20.1387 101.703 19.8838 101.539 19.6729C101.381 19.4619 101.182 19.2979 100.941 19.1807C100.707 19.0635 100.429 19.0049 100.106 19.0049C99.7783 19.0049 99.4971 19.0811 99.2627 19.2334C99.0283 19.3799 98.8379 19.582 98.6914 19.8398C98.5508 20.0977 98.4453 20.4023 98.375 20.7539C98.3105 21.0996 98.2783 21.4746 98.2783 21.8789ZM111.427 24.0762C111.427 23.8945 111.374 23.7305 111.269 23.584C111.163 23.4375 110.967 23.3027 110.68 23.1797C110.398 23.0508 109.991 22.9336 109.458 22.8281C108.978 22.7227 108.529 22.5908 108.113 22.4326C107.703 22.2686 107.346 22.0723 107.041 21.8438C106.742 21.6152 106.508 21.3457 106.338 21.0352C106.168 20.7188 106.083 20.3584 106.083 19.9541C106.083 19.5557 106.168 19.1807 106.338 18.8291C106.514 18.4775 106.763 18.167 107.085 17.8975C107.413 17.6221 107.812 17.4082 108.28 17.2559C108.755 17.0977 109.288 17.0186 109.88 17.0186C110.706 17.0186 111.415 17.1504 112.007 17.4141C112.604 17.6777 113.062 18.041 113.378 18.5039C113.7 18.9609 113.861 19.4824 113.861 20.0684H111.33C111.33 19.8223 111.277 19.6025 111.172 19.4092C111.072 19.21 110.914 19.0547 110.697 18.9434C110.486 18.8262 110.211 18.7676 109.871 18.7676C109.59 18.7676 109.347 18.8174 109.142 18.917C108.937 19.0107 108.778 19.1396 108.667 19.3037C108.562 19.4619 108.509 19.6377 108.509 19.8311C108.509 19.9775 108.538 20.1094 108.597 20.2266C108.661 20.3379 108.764 20.4404 108.904 20.5342C109.045 20.6279 109.227 20.7158 109.449 20.7979C109.678 20.874 109.959 20.9443 110.293 21.0088C110.979 21.1494 111.591 21.334 112.13 21.5625C112.669 21.7852 113.097 22.0898 113.413 22.4766C113.729 22.8574 113.888 23.3584 113.888 23.9795C113.888 24.4014 113.794 24.7881 113.606 25.1396C113.419 25.4912 113.149 25.7988 112.798 26.0625C112.446 26.3203 112.024 26.5225 111.532 26.6689C111.046 26.8096 110.498 26.8799 109.889 26.8799C109.004 26.8799 108.254 26.7217 107.639 26.4053C107.029 26.0889 106.566 25.6875 106.25 25.2012C105.939 24.709 105.784 24.2051 105.784 23.6895H108.184C108.195 24.0352 108.283 24.3135 108.447 24.5244C108.617 24.7354 108.831 24.8877 109.089 24.9814C109.353 25.0752 109.637 25.1221 109.941 25.1221C110.27 25.1221 110.542 25.0781 110.759 24.9902C110.976 24.8965 111.14 24.7734 111.251 24.6211C111.368 24.4629 111.427 24.2812 111.427 24.0762ZM115.127 22.0459V21.8613C115.127 21.1641 115.227 20.5225 115.426 19.9365C115.625 19.3447 115.915 18.832 116.296 18.3984C116.677 17.9648 117.146 17.6279 117.702 17.3877C118.259 17.1416 118.897 17.0186 119.618 17.0186C120.339 17.0186 120.98 17.1416 121.543 17.3877C122.105 17.6279 122.577 17.9648 122.958 18.3984C123.345 18.832 123.638 19.3447 123.837 19.9365C124.036 20.5225 124.136 21.1641 124.136 21.8613V22.0459C124.136 22.7373 124.036 23.3789 123.837 23.9707C123.638 24.5566 123.345 25.0693 122.958 25.5088C122.577 25.9424 122.108 26.2793 121.552 26.5195C120.995 26.7598 120.356 26.8799 119.636 26.8799C118.915 26.8799 118.273 26.7598 117.711 26.5195C117.154 26.2793 116.683 25.9424 116.296 25.5088C115.915 25.0693 115.625 24.5566 115.426 23.9707C115.227 23.3789 115.127 22.7373 115.127 22.0459ZM117.658 21.8613V22.0459C117.658 22.4443 117.693 22.8164 117.764 23.1621C117.834 23.5078 117.945 23.8125 118.098 24.0762C118.256 24.334 118.461 24.5361 118.713 24.6826C118.965 24.8291 119.272 24.9023 119.636 24.9023C119.987 24.9023 120.289 24.8291 120.541 24.6826C120.793 24.5361 120.995 24.334 121.147 24.0762C121.3 23.8125 121.411 23.5078 121.481 23.1621C121.558 22.8164 121.596 22.4443 121.596 22.0459V21.8613C121.596 21.4746 121.558 21.1113 121.481 20.7715C121.411 20.4258 121.297 20.1211 121.139 19.8574C120.986 19.5879 120.784 19.377 120.532 19.2246C120.28 19.0723 119.976 18.9961 119.618 18.9961C119.261 18.9961 118.956 19.0723 118.704 19.2246C118.458 19.377 118.256 19.5879 118.098 19.8574C117.945 20.1211 117.834 20.4258 117.764 20.7715C117.693 21.1113 117.658 21.4746 117.658 21.8613ZM129.62 24.9023C129.931 24.9023 130.206 24.8438 130.446 24.7266C130.687 24.6035 130.874 24.4336 131.009 24.2168C131.149 23.9941 131.223 23.7334 131.229 23.4346H133.61C133.604 24.1025 133.426 24.6973 133.074 25.2188C132.723 25.7344 132.251 26.1416 131.659 26.4404C131.067 26.7334 130.405 26.8799 129.673 26.8799C128.935 26.8799 128.29 26.7568 127.739 26.5107C127.194 26.2646 126.74 25.9248 126.377 25.4912C126.014 25.0518 125.741 24.542 125.56 23.9619C125.378 23.376 125.287 22.749 125.287 22.0811V21.8262C125.287 21.1523 125.378 20.5254 125.56 19.9453C125.741 19.3594 126.014 18.8496 126.377 18.416C126.74 17.9766 127.194 17.6338 127.739 17.3877C128.284 17.1416 128.923 17.0186 129.655 17.0186C130.435 17.0186 131.117 17.168 131.703 17.4668C132.295 17.7656 132.758 18.1934 133.092 18.75C133.432 19.3008 133.604 19.9541 133.61 20.71H131.229C131.223 20.3936 131.155 20.1064 131.026 19.8486C130.903 19.5908 130.722 19.3857 130.481 19.2334C130.247 19.0752 129.957 18.9961 129.611 18.9961C129.242 18.9961 128.94 19.0752 128.706 19.2334C128.472 19.3857 128.29 19.5967 128.161 19.8662C128.032 20.1299 127.941 20.4316 127.889 20.7715C127.842 21.1055 127.818 21.457 127.818 21.8262V22.0811C127.818 22.4502 127.842 22.8047 127.889 23.1445C127.936 23.4844 128.023 23.7861 128.152 24.0498C128.287 24.3135 128.472 24.5215 128.706 24.6738C128.94 24.8262 129.245 24.9023 129.62 24.9023ZM137.75 17.1943V26.7041H135.21V17.1943H137.75ZM135.052 14.7158C135.052 14.3467 135.181 14.042 135.438 13.8018C135.696 13.5615 136.042 13.4414 136.476 13.4414C136.903 13.4414 137.246 13.5615 137.504 13.8018C137.768 14.042 137.899 14.3467 137.899 14.7158C137.899 15.085 137.768 15.3896 137.504 15.6299C137.246 15.8701 136.903 15.9902 136.476 15.9902C136.042 15.9902 135.696 15.8701 135.438 15.6299C135.181 15.3896 135.052 15.085 135.052 14.7158ZM144.975 24.5596V20.3232C144.975 20.0186 144.925 19.7578 144.825 19.541C144.726 19.3184 144.57 19.1455 144.359 19.0225C144.154 18.8994 143.888 18.8379 143.56 18.8379C143.278 18.8379 143.035 18.8877 142.83 18.9873C142.625 19.0811 142.467 19.2188 142.355 19.4004C142.244 19.5762 142.188 19.7842 142.188 20.0244H139.657C139.657 19.6201 139.751 19.2363 139.938 18.873C140.126 18.5098 140.398 18.1904 140.756 17.915C141.113 17.6338 141.538 17.4141 142.03 17.2559C142.528 17.0977 143.085 17.0186 143.7 17.0186C144.438 17.0186 145.095 17.1416 145.669 17.3877C146.243 17.6338 146.694 18.0029 147.022 18.4951C147.356 18.9873 147.523 19.6025 147.523 20.3408V24.4102C147.523 24.9316 147.556 25.3594 147.62 25.6934C147.685 26.0215 147.778 26.3086 147.901 26.5547V26.7041H145.344C145.221 26.4463 145.127 26.124 145.062 25.7373C145.004 25.3447 144.975 24.9521 144.975 24.5596ZM145.309 20.9121L145.326 22.3447H143.911C143.577 22.3447 143.287 22.3828 143.041 22.459C142.795 22.5352 142.593 22.6436 142.435 22.7842C142.276 22.9189 142.159 23.0771 142.083 23.2588C142.013 23.4404 141.978 23.6396 141.978 23.8564C141.978 24.0732 142.027 24.2695 142.127 24.4453C142.227 24.6152 142.37 24.75 142.558 24.8496C142.745 24.9434 142.965 24.9902 143.217 24.9902C143.598 24.9902 143.929 24.9141 144.21 24.7617C144.491 24.6094 144.708 24.4219 144.86 24.1992C145.019 23.9766 145.101 23.7656 145.106 23.5664L145.774 24.6387C145.681 24.8789 145.552 25.1279 145.388 25.3857C145.229 25.6436 145.027 25.8867 144.781 26.1152C144.535 26.3379 144.239 26.5225 143.894 26.6689C143.548 26.8096 143.138 26.8799 142.663 26.8799C142.06 26.8799 141.512 26.7598 141.02 26.5195C140.533 26.2734 140.146 25.9365 139.859 25.5088C139.578 25.0752 139.438 24.583 139.438 24.0322C139.438 23.5342 139.531 23.0918 139.719 22.7051C139.906 22.3184 140.182 21.9932 140.545 21.7295C140.914 21.46 141.374 21.2578 141.925 21.123C142.476 20.9824 143.114 20.9121 143.841 20.9121H145.309ZM152.146 13.2041V26.7041H149.606V13.2041H152.146Z" fill="white"/>
<rect y="0.704102" width="40" height="40" rx="6.66667" fill="white"/>
<path d="M19.6589 12.2083V13.3251C19.6589 14.2862 19.479 14.442 18.8585 14.7798L13.077 17.7149V17.8448L18.8322 20.7281C19.479 21.0656 19.6589 21.1957 19.6589 22.1828V23.4294C19.6589 24.2085 19.4002 24.4684 18.7291 24.1049L10.0307 19.3252C9.51516 19.0396 9.33331 18.8317 9.33331 18.2346V17.4033C9.33331 16.8058 9.51516 16.572 10.0307 16.2864L18.7291 11.5328C19.4002 11.1693 19.6589 11.4289 19.6589 12.2083Z" fill="#111827"/>
<path d="M20.5775 16.3158L29.2497 21.0692C29.7915 21.3549 29.9733 21.5627 29.9733 22.16V22.9913C29.9733 23.6147 29.7915 23.8224 29.2497 24.1081L20.5775 28.8616C19.8802 29.2253 19.6477 28.9656 19.6477 28.1863V27.0694C19.6477 26.1084 19.8277 25.9524 20.4482 25.6408L26.2296 22.7056V22.5498L20.4744 19.6665C19.8277 19.3549 19.6477 19.1989 19.6477 18.2118V16.965C19.6477 16.1856 19.8802 15.9262 20.5775 16.3158Z" fill="#111827"/>
</svg>
