<svg width="122" height="16" viewBox="0 0 122 16" fill="none" xmlns="http://www.w3.org/2000/svg">
<g clip-path="url(#clip0_4_230)">
<path d="M9.42819 1.98844L9.77971 1.52761C9.84032 1.45485 9.88881 1.36996 9.96154 1.2972C9.88881 1.13954 9.81608 0.957638 9.69486 0.751478C9.45243 0.690842 9.2706 0.666588 9.07666 0.642334C9.02817 0.727223 8.95544 0.799986 8.90695 0.872748L8.55542 1.33358L8.2039 1.79441L8.04631 2.00057C8.42209 2.04907 8.78574 2.18247 9.12514 2.40076L9.42819 1.98844ZM12.7981 8.57344C12.2647 7.42137 11.101 6.46333 10.507 6.24504C10.4222 3.8075 8.97968 2.89797 7.58569 2.89797H7.29477H7.00385C5.60986 2.89797 4.1795 3.8075 4.08252 6.25717C3.50068 6.47545 2.337 7.51838 1.79153 8.67045C1.1612 10.0166 1.37939 12.8543 1.40364 13.1332L1.45212 13.8972H3.36735C4.77346 13.8972 5.20984 12.4905 5.34318 11.4718C5.76744 12.3207 6.44625 13.6183 7.05234 14.9523L7.29477 15.4495L7.5372 14.8916C8.14329 13.5698 8.8221 12.345 9.24636 11.4839C9.3797 12.5026 9.81608 13.8972 11.2222 13.8972H13.1375L13.186 13.0968C13.2102 12.8058 13.4284 9.93167 12.7981 8.57344ZM4.27647 10.1014C4.27647 11.6416 4.00979 12.5147 3.37947 12.5147H2.54307C2.50671 11.5567 2.51883 10.0287 2.85823 9.31319C3.11279 8.76747 3.51281 8.13686 3.85221 7.80943L4.13101 9.37382L4.27647 10.1014ZM7.00385 4.13493H7.29477H7.58569C8.38572 4.13493 9.19788 4.54725 9.36759 6.06313H7.30689H5.22196C5.40379 4.54725 6.20382 4.13493 7.00385 4.13493ZM7.29477 12.733C7.02809 12.0903 6.66444 11.5446 6.40989 10.9989H8.19177C7.9251 11.5567 7.56145 12.1024 7.29477 12.733ZM9.3797 7.70029C9.33121 8.11261 9.23424 8.93725 9.14939 9.34957H5.45227C5.36742 8.93725 5.27045 8.11261 5.22196 7.70029H9.3797ZM12.0586 12.5147H11.2344C10.604 12.5147 10.3373 11.6416 10.3373 10.1014L10.4828 9.33744L10.7616 7.79731C11.101 8.12474 11.501 8.75534 11.7556 9.31319C12.0829 10.0408 12.095 11.5567 12.0586 12.5147ZM5.17348 1.98844L5.47652 2.37651C5.81592 2.15822 6.17957 2.02482 6.55535 1.97631L6.39777 1.77015L6.03411 1.33358L5.68259 0.872748C5.62198 0.799986 5.56137 0.727223 5.51288 0.642334C5.33106 0.666588 5.13711 0.690842 4.89468 0.751478C4.77346 0.969765 4.70073 1.13954 4.628 1.32145C4.70073 1.39421 4.74922 1.46697 4.80983 1.55186L5.17348 1.98844Z" fill="#9CA0AC"/>
<path d="M19.1741 3.85596H21.3438V12.1873H19.1741V3.85596Z" fill="#9CA0AC"/>
<path d="M28.1199 8.96147C27.5017 8.41575 26.9198 7.71238 26.9198 7.71238C26.9198 7.71238 27.0774 8.77956 27.0774 9.4708V12.1873H25.0773V3.74683H25.247L29.0896 7.06964C29.7563 7.66387 30.2896 8.33086 30.2896 8.33086C30.2896 8.33086 30.1563 7.25155 30.1563 6.56031V3.85597H32.1564V12.3085H31.9867L28.1199 8.96147Z" fill="#9CA0AC"/>
<path d="M35.8655 3.85596H38.8596C41.3203 3.85596 43.1991 5.45673 43.1991 8.01554C43.1991 10.5501 41.3324 12.1751 38.8596 12.1751H35.8655V3.85596ZM38.7626 10.3076C40.3142 10.3076 40.993 9.43441 40.993 8.02767C40.993 6.64518 40.302 5.74778 38.7626 5.74778H38.0474V10.3076H38.7626Z" fill="#9CA0AC"/>
<path d="M46.6538 8.90082V3.85596H48.8236V8.86444C48.8236 9.88311 49.2721 10.3924 50.2418 10.3924C51.2116 10.3924 51.6601 9.89524 51.6601 8.86444V3.85596H53.8299V8.90082C53.8299 11.1565 52.3268 12.3328 50.254 12.3328C48.1205 12.3328 46.6538 11.1443 46.6538 8.90082Z" fill="#9CA0AC"/>
<path d="M56.7997 10.4046L58.4967 9.41021C58.8482 10.0166 59.3695 10.4895 60.2301 10.4895C60.8241 10.4895 61.2483 10.2712 61.2483 9.88317C61.2483 9.48298 60.9453 9.3132 60.121 8.97364L59.7695 8.82811C58.3997 8.27027 57.4664 7.60328 57.4664 6.11165C57.4664 4.6564 58.5815 3.69836 60.1937 3.69836C61.3938 3.69836 62.2181 4.05005 62.909 5.12936L61.2604 6.07527C60.9695 5.61444 60.6665 5.48104 60.2543 5.48104C59.818 5.48104 59.5392 5.69933 59.5392 6.07527C59.5392 6.52397 59.9028 6.68162 60.3998 6.88778L60.7513 7.03331C62.2787 7.65179 63.3939 8.2824 63.3939 9.85892C63.3939 11.4112 62.2181 12.3207 60.2543 12.3207C58.5694 12.3328 57.3451 11.5203 56.7997 10.4046Z" fill="#9CA0AC"/>
<path d="M68.3758 5.73565H66.0121V3.85596H72.9215V5.73565H70.5577V12.1873H68.3758V5.73565Z" fill="#9CA0AC"/>
<path d="M83.0674 12.1873H80.631L79.4673 10.1742C79.3582 10.1863 79.2491 10.1863 79.1279 10.1863H78.4733V12.1751H76.3035V3.85596H79.1279C81.334 3.85596 82.9462 4.85038 82.9462 7.04538C82.9462 8.29446 82.3765 9.1191 81.4795 9.57993L83.0674 12.1873ZM79.0794 8.3551C80.2067 8.3551 80.728 7.99129 80.728 7.04538C80.728 6.09946 80.2188 5.72353 79.0794 5.72353H78.4733V8.3551H79.0794Z" fill="#9CA0AC"/>
<path d="M86.4978 3.85596H88.6676V12.1873H86.4978V3.85596Z" fill="#9CA0AC"/>
<path d="M92.1951 8.01568C92.1951 5.45687 94.2315 3.71057 96.6801 3.71057C99.1165 3.71057 101.165 5.469 101.165 8.01568C101.165 10.5381 99.1287 12.3208 96.6801 12.3208C94.2315 12.3329 92.1951 10.5381 92.1951 8.01568ZM98.9468 8.01568C98.9468 6.60894 98.0256 5.62665 96.6801 5.62665C95.3346 5.62665 94.4133 6.62107 94.4133 8.01568C94.4133 9.44668 95.3346 10.4047 96.6801 10.4047C98.0256 10.4047 98.9468 9.4588 98.9468 8.01568Z" fill="#9CA0AC"/>
<path d="M104.608 8.90082V3.85596H106.778V8.86444C106.778 9.88311 107.226 10.3924 108.196 10.3924C109.166 10.3924 109.614 9.89524 109.614 8.86444V3.85596H111.784V8.90082C111.784 11.1565 110.281 12.3328 108.208 12.3328C106.075 12.3328 104.608 11.1443 104.608 8.90082Z" fill="#9CA0AC"/>
<path d="M114.754 10.4046L116.451 9.41021C116.802 10.0166 117.323 10.4895 118.184 10.4895C118.778 10.4895 119.202 10.2712 119.202 9.88317C119.202 9.48298 118.899 9.3132 118.075 8.97364L117.723 8.82811C116.354 8.27027 115.42 7.60328 115.42 6.11165C115.42 4.6564 116.535 3.69836 118.148 3.69836C119.348 3.69836 120.172 4.05005 120.863 5.12936L119.214 6.07527C118.923 5.61444 118.62 5.48104 118.208 5.48104C117.772 5.48104 117.493 5.69933 117.493 6.07527C117.493 6.52397 117.857 6.68162 118.354 6.88778L118.705 7.03331C120.233 7.65179 121.348 8.2824 121.348 9.85892C121.348 11.4112 120.172 12.3207 118.208 12.3207C116.523 12.3328 115.299 11.5203 114.754 10.4046Z" fill="#9CA0AC"/>
</g>
<defs>
<clipPath id="clip0_4_230">
<rect width="121" height="15" fill="white" transform="translate(0.569824 0.5)"/>
</clipPath>
</defs>
</svg>
