<svg width="129" height="40" viewBox="0 0 129 40" fill="none" xmlns="http://www.w3.org/2000/svg">
<rect x="0.246582" y="0.885498" width="128.022" height="39.0577" rx="3.25481" fill="#E6EBFF"/>
<g clip-path="url(#clip0_1264_25621)">
<path d="M17.0344 11.8405L9.9809 14.5315C9.34676 14.773 8.92627 15.394 8.92627 16.084V23.8499C8.92627 24.4778 9.27555 25.0505 9.82491 25.3299L16.8784 28.9179C17.3362 29.1525 17.8753 29.1525 18.3331 28.9179L25.3866 25.3299C25.9393 25.0505 26.2852 24.4743 26.2852 23.8499V16.084C26.2852 15.394 25.8647 14.7764 25.2306 14.535L18.1772 11.844C17.8109 11.6991 17.404 11.6991 17.0344 11.8405ZM17.6074 13.983L24.1183 16.4669V16.5049L17.6074 19.1959L11.0966 16.5049V16.4669L17.6074 13.983ZM18.6926 26.2649V21.1278L24.1183 18.8854V23.5049L18.6926 26.2649Z" fill="#0066FF"/>
</g>
<path d="M40.5374 25.7349H38.6684V14.9364H40.5374V25.7349ZM44.3421 17.7102L44.394 18.6372C44.9873 17.9203 45.7661 17.5618 46.7302 17.5618C48.4014 17.5618 49.2519 18.5186 49.2815 20.432V25.7349H47.4793V20.5359C47.4793 20.0266 47.3681 19.6508 47.1456 19.4085C46.928 19.1613 46.5695 19.0377 46.0702 19.0377C45.3433 19.0377 44.8019 19.3665 44.4459 20.0241V25.7349H42.6437V17.7102H44.3421ZM53.3829 15.7596V17.7102H54.7994V19.0451H53.3829V23.5247C53.3829 23.8313 53.4422 24.0538 53.5609 24.1922C53.6845 24.3257 53.902 24.3925 54.2135 24.3925C54.4212 24.3925 54.6313 24.3677 54.8439 24.3183V25.7126C54.4336 25.8263 54.038 25.8832 53.6573 25.8832C52.2729 25.8832 51.5807 25.1193 51.5807 23.5915V19.0451H50.2605V17.7102H51.5807V15.7596H53.3829ZM59.7166 25.8832C58.5745 25.8832 57.6474 25.5247 56.9354 24.8078C56.2284 24.0859 55.8748 23.1267 55.8748 21.9302V21.7077C55.8748 20.9067 56.0281 20.1922 56.3347 19.5643C56.6462 18.9314 57.0813 18.4394 57.64 18.0884C58.1987 17.7373 58.8217 17.5618 59.509 17.5618C60.6017 17.5618 61.4447 17.9104 62.038 18.6076C62.6363 19.3047 62.9354 20.2911 62.9354 21.5668V22.2936H57.6919C57.7463 22.9561 57.9663 23.4802 58.352 23.8659C58.7426 24.2516 59.2321 24.4444 59.8204 24.4444C60.6462 24.4444 61.3186 24.1106 61.8377 23.4431L62.8093 24.3702C62.4879 24.8498 62.0578 25.2231 61.5188 25.4901C60.9848 25.7522 60.3841 25.8832 59.7166 25.8832ZM59.5015 19.0081C59.0071 19.0081 58.6066 19.1811 58.3001 19.5272C57.9984 19.8733 57.8056 20.3554 57.7216 20.9734H61.1554V20.8399C61.1159 20.2367 60.9552 19.7818 60.6734 19.4753C60.3915 19.1638 60.0009 19.0081 59.5015 19.0081ZM64.0256 21.6632C64.0256 20.4172 64.3173 19.4234 64.9008 18.6817C65.4892 17.9351 66.2679 17.5618 67.237 17.5618C68.1517 17.5618 68.8711 17.8807 69.3952 18.5186L69.4768 17.7102H71.101V25.4901C71.101 26.5433 70.7722 27.3739 70.1146 27.9821C69.462 28.5902 68.5794 28.8943 67.4669 28.8943C66.8785 28.8943 66.3025 28.7707 65.7389 28.5235C65.1801 28.2812 64.7549 27.9623 64.4632 27.5668L65.3161 26.4839C65.8699 27.1415 66.5522 27.4703 67.3631 27.4703C67.9613 27.4703 68.4335 27.3072 68.7796 26.9808C69.1257 26.6595 69.2988 26.1848 69.2988 25.5569V25.0155C68.7796 25.5939 68.0874 25.8832 67.2222 25.8832C66.2827 25.8832 65.5139 25.5099 64.9156 24.7633C64.3223 24.0167 64.0256 22.9833 64.0256 21.6632ZM65.8204 21.8189C65.8204 22.6249 65.9836 23.2602 66.3099 23.725C66.6412 24.1848 67.0986 24.4147 67.682 24.4147C68.4088 24.4147 68.9477 24.1032 69.2988 23.4802V19.95C68.9576 19.3418 68.4236 19.0377 67.6968 19.0377C67.1035 19.0377 66.6412 19.2726 66.3099 19.7423C65.9836 20.212 65.8204 20.9042 65.8204 21.8189ZM77.1603 19.3566C76.923 19.3171 76.6783 19.2973 76.4261 19.2973C75.6004 19.2973 75.0442 19.6137 74.7574 20.2466V25.7349H72.9552V17.7102H74.6758L74.7203 18.6076C75.1554 17.9104 75.7586 17.5618 76.5299 17.5618C76.787 17.5618 76.9997 17.5964 77.1678 17.6657L77.1603 19.3566ZM82.8711 25.7349C82.792 25.5816 82.7228 25.3319 82.6634 24.9858C82.0899 25.5841 81.3878 25.8832 80.5571 25.8832C79.7512 25.8832 79.0936 25.6533 78.5843 25.1935C78.0751 24.7336 77.8204 24.165 77.8204 23.4876C77.8204 22.6323 78.1369 21.9771 78.7697 21.5223C79.4076 21.0624 80.3173 20.8325 81.499 20.8325H82.6041V20.3059C82.6041 19.8906 82.4879 19.5593 82.2555 19.3121C82.0231 19.06 81.6696 18.9339 81.1949 18.9339C80.7846 18.9339 80.4483 19.0377 80.1863 19.2454C79.9242 19.4481 79.7932 19.7077 79.7932 20.0241H77.991C77.991 19.5841 78.1369 19.1737 78.4286 18.793C78.7203 18.4073 79.1158 18.1057 79.6152 17.8882C80.1195 17.6706 80.6807 17.5618 81.2988 17.5618C82.2382 17.5618 82.9873 17.7992 83.546 18.2738C84.1047 18.7435 84.3915 19.4061 84.4063 20.2614V23.8807C84.4063 24.6026 84.5077 25.1786 84.7104 25.6088V25.7349H82.8711ZM80.8909 24.437C81.2469 24.437 81.5806 24.3504 81.8921 24.1774C82.2085 24.0043 82.4459 23.7719 82.6041 23.4802V21.9673H81.6325C80.965 21.9673 80.4632 22.0834 80.127 22.3158C79.7907 22.5482 79.6226 22.877 79.6226 23.3022C79.6226 23.6483 79.7364 23.9252 79.9638 24.1329C80.1962 24.3356 80.5052 24.437 80.8909 24.437ZM88.5522 15.7596V17.7102H89.9687V19.0451H88.5522V23.5247C88.5522 23.8313 88.6115 24.0538 88.7302 24.1922C88.8538 24.3257 89.0713 24.3925 89.3828 24.3925C89.5905 24.3925 89.8006 24.3677 90.0132 24.3183V25.7126C89.6028 25.8263 89.2073 25.8832 88.8266 25.8832C87.4422 25.8832 86.7499 25.1193 86.7499 23.5915V19.0451H85.4298V17.7102H86.7499V15.7596H88.5522ZM93.2691 25.7349H91.4669V17.7102H93.2691V25.7349ZM91.3556 15.6261C91.3556 15.3492 91.4421 15.1193 91.6152 14.9364C91.7932 14.7534 92.0454 14.662 92.3717 14.662C92.698 14.662 92.9502 14.7534 93.1282 14.9364C93.3062 15.1193 93.3952 15.3492 93.3952 15.6261C93.3952 15.898 93.3062 16.1255 93.1282 16.3084C92.9502 16.4864 92.698 16.5754 92.3717 16.5754C92.0454 16.5754 91.7932 16.4864 91.6152 16.3084C91.4421 16.1255 91.3556 15.898 91.3556 15.6261ZM94.9007 21.6483C94.9007 20.8622 95.0565 20.1551 95.368 19.5272C95.6795 18.8943 96.117 18.4098 96.6807 18.0736C97.2444 17.7324 97.8921 17.5618 98.6238 17.5618C99.7067 17.5618 100.584 17.9104 101.257 18.6076C101.934 19.3047 102.3 20.2293 102.354 21.3813L102.362 21.8041C102.362 22.5952 102.209 23.3022 101.902 23.9252C101.6 24.5482 101.165 25.0303 100.597 25.3715C100.033 25.7126 99.3803 25.8832 98.6387 25.8832C97.5064 25.8832 96.5991 25.5074 95.9168 24.7559C95.2394 23.9994 94.9007 22.9932 94.9007 21.7373V21.6483ZM96.703 21.8041C96.703 22.6298 96.8735 23.2775 97.2147 23.7472C97.5559 24.212 98.0305 24.4444 98.6387 24.4444C99.2468 24.4444 99.719 24.2071 100.055 23.7324C100.396 23.2577 100.567 22.5631 100.567 21.6483C100.567 20.8375 100.391 20.1947 100.04 19.72C99.6943 19.2454 99.2221 19.0081 98.6238 19.0081C98.0355 19.0081 97.5682 19.2429 97.2221 19.7126C96.876 20.1774 96.703 20.8745 96.703 21.8041ZM105.558 17.7102L105.61 18.6372C106.204 17.9203 106.982 17.5618 107.946 17.5618C109.618 17.5618 110.468 18.5186 110.498 20.432V25.7349H108.696V20.5359C108.696 20.0266 108.584 19.6508 108.362 19.4085C108.144 19.1613 107.786 19.0377 107.286 19.0377C106.56 19.0377 106.018 19.3665 105.662 20.0241V25.7349H103.86V17.7102H105.558ZM116.839 23.5544C116.839 23.233 116.705 22.9883 116.438 22.8202C116.176 22.6521 115.739 22.5037 115.126 22.3752C114.513 22.2466 114.001 22.0834 113.59 21.8857C112.691 21.4506 112.241 20.8202 112.241 19.9945C112.241 19.3022 112.532 18.7237 113.116 18.259C113.699 17.7942 114.441 17.5618 115.341 17.5618C116.3 17.5618 117.074 17.7992 117.662 18.2738C118.255 18.7485 118.552 19.364 118.552 20.1205H116.75C116.75 19.7744 116.621 19.4877 116.364 19.2602C116.107 19.0278 115.766 18.9116 115.341 18.9116C114.945 18.9116 114.621 19.0031 114.369 19.186C114.122 19.369 113.998 19.6137 113.998 19.9203C113.998 20.1972 114.115 20.4123 114.347 20.5655C114.579 20.7188 115.049 20.8745 115.756 21.0328C116.463 21.186 117.017 21.3715 117.417 21.589C117.823 21.8016 118.122 22.0587 118.315 22.3603C118.513 22.6619 118.611 23.0278 118.611 23.458C118.611 24.1799 118.312 24.7658 117.714 25.2157C117.116 25.6607 116.332 25.8832 115.363 25.8832C114.705 25.8832 114.119 25.7645 113.605 25.5272C113.091 25.2899 112.691 24.9635 112.404 24.5482C112.117 24.1329 111.974 23.6854 111.974 23.2058H113.724C113.749 23.631 113.909 23.9598 114.206 24.1922C114.503 24.4197 114.896 24.5334 115.385 24.5334C115.86 24.5334 116.221 24.4444 116.468 24.2664C116.715 24.0834 116.839 23.8461 116.839 23.5544Z" fill="#0066FF"/>
<defs>
<clipPath id="clip0_1264_25621">
<rect width="17.359" height="17.359" fill="white" transform="translate(8.92627 11.7349)"/>
</clipPath>
</defs>
</svg>
