<svg width="100" height="30" viewBox="0 0 100 30" fill="none" xmlns="http://www.w3.org/2000/svg">
<path d="M17.4628 27.3377H17.9628V26.8377V3.16429V2.66429H17.4628H2.94221H2.44221V3.16429V26.8377V27.3377H2.94221H17.4628ZM19.9156 29.3221H0.5V0.677856H19.9156V29.3221Z" fill="#9CA0AC" stroke="#9CA0AC"/>
<mask id="path-2-inside-1_4_212" fill="white">
<path d="M32.5819 10.5135H32.5533C30.9246 7.86073 29.2804 5.51752 27.6221 3.15872H26.3568V13.4768H27.7533V6.07682H27.7674C29.4121 8.74516 31.0553 11.104 32.7141 13.4768H33.9794V3.15872H32.5819V10.5135ZM42.6628 13.4768L39.4186 3.15872H37.9648L34.4442 13.4768H35.9568L36.8447 10.6612H39.9131L40.7136 13.4768H42.6628ZM37.295 9.3929C37.7025 8.03661 38.1101 6.78586 38.4734 5.19189H38.503C38.9106 6.78536 39.2739 8.03661 39.6523 9.3929H37.295ZM44.3061 13.4768H46.0518V4.54465H48.7287V3.15872H41.6302V4.54465H44.3066V13.4768H44.3061ZM51.0262 3.15872H49.2955V13.4768H51.0262V3.15872ZM56.4096 13.6527C59.0719 13.6527 60.7302 11.2507 60.7302 8.16978C60.7302 5.28084 58.8965 2.98083 56.4096 2.98083C53.9216 2.98083 52.088 5.28084 52.088 8.16978C52.088 11.2512 53.7463 13.6527 56.4096 13.6527ZM56.4096 4.45571C58.1407 4.45571 58.8674 6.26827 58.8674 8.17028C58.8674 10.1452 58.2282 12.1793 56.4096 12.1793C54.591 12.1793 53.9513 10.1457 53.9513 8.17028C53.9513 6.26827 54.6784 4.45571 56.4096 4.45571ZM63.187 6.07682H63.203C64.8463 8.74516 66.4895 11.104 68.1483 13.4768H69.4136V3.15872H68.0171V10.5135H67.988C66.3593 7.86073 64.7151 5.51752 63.0568 3.15872H61.7915V13.4768H63.187V6.07682ZM72.2779 10.6612H75.3483L76.1483 13.4768H78.097L74.8538 3.15872H73.399L69.8779 13.4768H71.3925L72.2779 10.6612ZM73.9091 5.19189H73.9377C74.3442 6.78536 74.7081 8.03661 75.0875 9.3929H72.7292C73.1377 8.03661 73.5437 6.78536 73.9091 5.19189ZM83.7844 12.0904H80.3377V3.15872H78.6061V13.4768H83.7849V12.0904H83.7844ZM31.1588 25.2778C30.7945 25.4698 30.4025 25.5291 29.9372 25.5291C28.4392 25.5291 26.9844 24.0839 26.9844 21.6376C26.9844 19.2944 28.2498 17.805 30.1121 17.805C30.7814 17.805 31.5086 18.0552 31.9739 18.3497L32.5407 17.1271C31.9593 16.6839 31.0136 16.3306 30.0679 16.3306C27.0136 16.3306 25.1221 18.7924 25.1221 21.6075C25.1221 24.6442 27.0136 27.0029 30.0091 27.0029C30.9985 27.0029 31.9734 26.7391 32.905 26.3688V22.108H31.1588V25.2778ZM36.2347 22.109H39.0865V20.7241H36.2347V17.8939H39.1447V16.5085H34.49V26.8266H39.6684V25.4396H36.2347V22.109ZM44.5272 16.3311C42.0392 16.3311 40.2071 18.6306 40.2071 21.52C40.2071 24.6004 41.8648 27.0034 44.5272 27.0034C47.189 27.0034 48.8468 24.6004 48.8468 21.52C48.8468 18.6306 47.0141 16.3311 44.5272 16.3311ZM44.5272 25.5291C42.7081 25.5291 42.0684 23.4949 42.0684 21.5195C42.0684 19.6175 42.7955 17.8045 44.5272 17.8045C46.2578 17.8045 46.9849 19.617 46.9849 21.5195C46.9849 23.4949 46.3458 25.5291 44.5272 25.5291ZM55.4804 25.2778C55.1171 25.4698 54.7236 25.5291 54.2583 25.5291C52.7598 25.5291 51.305 24.0839 51.305 21.6376C51.305 19.2944 52.5709 17.805 54.4337 17.805C55.1025 17.805 55.8302 18.0552 56.294 18.3497L56.8618 17.1271C56.2804 16.6839 55.3342 16.3306 54.388 16.3306C51.3347 16.3306 49.4437 18.7924 49.4437 21.6075C49.4437 24.6442 51.3347 27.0029 54.3317 27.0029C55.3196 27.0029 56.294 26.7391 57.2262 26.3688V22.108H55.4804V25.2778ZM64.703 19.4864C64.703 17.4803 63.495 16.5085 61.5468 16.5085H58.8262V26.8266H60.5714V22.9351H61.3568L63.0005 26.8266H64.993L62.9432 22.5512C64.0618 21.9472 64.703 20.7241 64.703 19.4864ZM61.299 21.608C61.1236 21.623 60.7156 21.6381 60.5709 21.6527V17.8944H61.3432C62.3744 17.8944 62.9558 18.4974 62.9558 19.5592C62.9558 20.9442 62.1282 21.5643 61.299 21.608ZM68.5432 16.5085L65.0221 26.8266H66.5342L67.4221 24.0105H70.4915L71.2935 26.8266H73.2412L69.997 16.5085H68.5432ZM67.8744 22.7442C68.2814 21.3869 68.6885 20.1341 69.0523 18.5426H69.0819C69.4885 20.1341 69.8523 21.3869 70.2312 22.7442H67.8744ZM86.0136 20.4733H82.391V16.5085H80.6598V26.8266H82.391V21.8582H86.0136V26.8266H87.7583V16.5366H86.0136V20.4733ZM89.4307 26.8256H91.1613V16.5085H89.4307V26.8256ZM97.2714 25.5291C95.5839 25.5291 94.1578 24.0839 94.1578 21.6376C94.1578 19.2944 95.4538 17.805 97.2277 17.805C97.897 17.805 98.5955 18.114 99.0176 18.3793L99.5699 17.1276C98.9734 16.7145 98.1307 16.3311 97.2282 16.3311C94.188 16.3311 92.3111 18.7929 92.3111 21.608C92.3111 24.6447 94.2025 27.0034 97.2 27.0034C98.0432 27.0034 98.9739 26.6643 99.4975 26.2964L99.0181 25.0135C98.5669 25.308 97.9407 25.5291 97.2714 25.5291ZM76.5136 16.5085H73.795V26.8266H75.5407V22.9351H76.3251C78.4066 22.9351 79.6709 21.2241 79.6709 19.4864C79.6704 17.4803 78.4643 16.5085 76.5136 16.5085ZM76.2669 21.608C76.0925 21.6215 75.6714 21.6356 75.5402 21.6492V17.8939H76.3246C77.3437 17.8939 77.9257 18.4969 77.9257 19.5587C77.9252 20.9442 77.096 21.5643 76.2669 21.608Z"/>
</mask>
<path d="M32.5819 10.5135H32.5533C30.9246 7.86073 29.2804 5.51752 27.6221 3.15872H26.3568V13.4768H27.7533V6.07682H27.7674C29.4121 8.74516 31.0553 11.104 32.7141 13.4768H33.9794V3.15872H32.5819V10.5135ZM42.6628 13.4768L39.4186 3.15872H37.9648L34.4442 13.4768H35.9568L36.8447 10.6612H39.9131L40.7136 13.4768H42.6628ZM37.295 9.3929C37.7025 8.03661 38.1101 6.78586 38.4734 5.19189H38.503C38.9106 6.78536 39.2739 8.03661 39.6523 9.3929H37.295ZM44.3061 13.4768H46.0518V4.54465H48.7287V3.15872H41.6302V4.54465H44.3066V13.4768H44.3061ZM51.0262 3.15872H49.2955V13.4768H51.0262V3.15872ZM56.4096 13.6527C59.0719 13.6527 60.7302 11.2507 60.7302 8.16978C60.7302 5.28084 58.8965 2.98083 56.4096 2.98083C53.9216 2.98083 52.088 5.28084 52.088 8.16978C52.088 11.2512 53.7463 13.6527 56.4096 13.6527ZM56.4096 4.45571C58.1407 4.45571 58.8674 6.26827 58.8674 8.17028C58.8674 10.1452 58.2282 12.1793 56.4096 12.1793C54.591 12.1793 53.9513 10.1457 53.9513 8.17028C53.9513 6.26827 54.6784 4.45571 56.4096 4.45571ZM63.187 6.07682H63.203C64.8463 8.74516 66.4895 11.104 68.1483 13.4768H69.4136V3.15872H68.0171V10.5135H67.988C66.3593 7.86073 64.7151 5.51752 63.0568 3.15872H61.7915V13.4768H63.187V6.07682ZM72.2779 10.6612H75.3483L76.1483 13.4768H78.097L74.8538 3.15872H73.399L69.8779 13.4768H71.3925L72.2779 10.6612ZM73.9091 5.19189H73.9377C74.3442 6.78536 74.7081 8.03661 75.0875 9.3929H72.7292C73.1377 8.03661 73.5437 6.78536 73.9091 5.19189ZM83.7844 12.0904H80.3377V3.15872H78.6061V13.4768H83.7849V12.0904H83.7844ZM31.1588 25.2778C30.7945 25.4698 30.4025 25.5291 29.9372 25.5291C28.4392 25.5291 26.9844 24.0839 26.9844 21.6376C26.9844 19.2944 28.2498 17.805 30.1121 17.805C30.7814 17.805 31.5086 18.0552 31.9739 18.3497L32.5407 17.1271C31.9593 16.6839 31.0136 16.3306 30.0679 16.3306C27.0136 16.3306 25.1221 18.7924 25.1221 21.6075C25.1221 24.6442 27.0136 27.0029 30.0091 27.0029C30.9985 27.0029 31.9734 26.7391 32.905 26.3688V22.108H31.1588V25.2778ZM36.2347 22.109H39.0865V20.7241H36.2347V17.8939H39.1447V16.5085H34.49V26.8266H39.6684V25.4396H36.2347V22.109ZM44.5272 16.3311C42.0392 16.3311 40.2071 18.6306 40.2071 21.52C40.2071 24.6004 41.8648 27.0034 44.5272 27.0034C47.189 27.0034 48.8468 24.6004 48.8468 21.52C48.8468 18.6306 47.0141 16.3311 44.5272 16.3311ZM44.5272 25.5291C42.7081 25.5291 42.0684 23.4949 42.0684 21.5195C42.0684 19.6175 42.7955 17.8045 44.5272 17.8045C46.2578 17.8045 46.9849 19.617 46.9849 21.5195C46.9849 23.4949 46.3458 25.5291 44.5272 25.5291ZM55.4804 25.2778C55.1171 25.4698 54.7236 25.5291 54.2583 25.5291C52.7598 25.5291 51.305 24.0839 51.305 21.6376C51.305 19.2944 52.5709 17.805 54.4337 17.805C55.1025 17.805 55.8302 18.0552 56.294 18.3497L56.8618 17.1271C56.2804 16.6839 55.3342 16.3306 54.388 16.3306C51.3347 16.3306 49.4437 18.7924 49.4437 21.6075C49.4437 24.6442 51.3347 27.0029 54.3317 27.0029C55.3196 27.0029 56.294 26.7391 57.2262 26.3688V22.108H55.4804V25.2778ZM64.703 19.4864C64.703 17.4803 63.495 16.5085 61.5468 16.5085H58.8262V26.8266H60.5714V22.9351H61.3568L63.0005 26.8266H64.993L62.9432 22.5512C64.0618 21.9472 64.703 20.7241 64.703 19.4864ZM61.299 21.608C61.1236 21.623 60.7156 21.6381 60.5709 21.6527V17.8944H61.3432C62.3744 17.8944 62.9558 18.4974 62.9558 19.5592C62.9558 20.9442 62.1282 21.5643 61.299 21.608ZM68.5432 16.5085L65.0221 26.8266H66.5342L67.4221 24.0105H70.4915L71.2935 26.8266H73.2412L69.997 16.5085H68.5432ZM67.8744 22.7442C68.2814 21.3869 68.6885 20.1341 69.0523 18.5426H69.0819C69.4885 20.1341 69.8523 21.3869 70.2312 22.7442H67.8744ZM86.0136 20.4733H82.391V16.5085H80.6598V26.8266H82.391V21.8582H86.0136V26.8266H87.7583V16.5366H86.0136V20.4733ZM89.4307 26.8256H91.1613V16.5085H89.4307V26.8256ZM97.2714 25.5291C95.5839 25.5291 94.1578 24.0839 94.1578 21.6376C94.1578 19.2944 95.4538 17.805 97.2277 17.805C97.897 17.805 98.5955 18.114 99.0176 18.3793L99.5699 17.1276C98.9734 16.7145 98.1307 16.3311 97.2282 16.3311C94.188 16.3311 92.3111 18.7929 92.3111 21.608C92.3111 24.6447 94.2025 27.0034 97.2 27.0034C98.0432 27.0034 98.9739 26.6643 99.4975 26.2964L99.0181 25.0135C98.5669 25.308 97.9407 25.5291 97.2714 25.5291ZM76.5136 16.5085H73.795V26.8266H75.5407V22.9351H76.3251C78.4066 22.9351 79.6709 21.2241 79.6709 19.4864C79.6704 17.4803 78.4643 16.5085 76.5136 16.5085ZM76.2669 21.608C76.0925 21.6215 75.6714 21.6356 75.5402 21.6492V17.8939H76.3246C77.3437 17.8939 77.9257 18.4969 77.9257 19.5587C77.9252 20.9442 77.096 21.5643 76.2669 21.608Z" fill="#9CA0AC" stroke="#9CA0AC" stroke-width="2" mask="url(#path-2-inside-1_4_212)"/>
</svg>
