<svg width="180" height="37" viewBox="0 0 180 37" fill="none" xmlns="http://www.w3.org/2000/svg">
<rect x="0.78125" y="0.434326" width="179" height="36" rx="3" fill="#E8DDFF"/>
<g clip-path="url(#clip0_1264_26308)">
<path d="M24.2812 22.4343H10.7812V12.9343C10.7812 12.6581 10.5575 12.4343 10.2812 12.4343H9.28125C9.005 12.4343 8.78125 12.6581 8.78125 12.9343V23.4343C8.78125 23.9865 9.22906 24.4343 9.78125 24.4343H24.2812C24.5575 24.4343 24.7812 24.2106 24.7812 23.9343V22.9343C24.7812 22.6581 24.5575 22.4343 24.2812 22.4343ZM23.2812 13.4343H19.5919C18.9237 13.4343 18.5891 14.2421 19.0616 14.7146L20.0741 15.7271L17.7812 18.0203L15.4884 15.7275C15.0978 15.3368 14.4647 15.3368 14.0744 15.7275L11.9278 17.874C11.7325 18.0693 11.7325 18.3859 11.9278 18.5812L12.6347 19.2881C12.83 19.4834 13.1466 19.4834 13.3419 19.2881L14.7812 17.8484L17.0741 20.1412C17.4647 20.5318 18.0978 20.5318 18.4881 20.1412L21.4881 17.1412L22.5006 18.1537C22.9731 18.6262 23.7809 18.2915 23.7809 17.6234V13.9343C23.7812 13.6581 23.5575 13.4343 23.2812 13.4343Z" fill="#682EE6"/>
</g>
<path d="M39.4609 19.5994H37.5332V23.4343H35.8037V13.4812H39.3037C40.4521 13.4812 41.3385 13.7387 41.9629 14.2537C42.5872 14.7686 42.8994 15.5138 42.8994 16.489C42.8994 17.1544 42.7376 17.7126 42.4141 18.1638C42.0951 18.6104 41.6484 18.9545 41.0742 19.196L43.3096 23.3455V23.4343H41.457L39.4609 19.5994ZM37.5332 18.2117H39.3105C39.8939 18.2117 40.3496 18.0658 40.6777 17.7742C41.0059 17.4779 41.1699 17.0746 41.1699 16.5642C41.1699 16.031 41.0173 15.6186 40.7119 15.3269C40.4111 15.0352 39.96 14.8848 39.3584 14.8757H37.5332V18.2117ZM47.6367 23.571C46.584 23.571 45.7295 23.2406 45.0732 22.5798C44.4215 21.9145 44.0957 21.0304 44.0957 19.9275V19.7224C44.0957 18.9841 44.237 18.3256 44.5195 17.7468C44.8066 17.1635 45.2077 16.71 45.7227 16.3865C46.2376 16.0629 46.8118 15.9011 47.4453 15.9011C48.4525 15.9011 49.2295 16.2224 49.7764 16.865C50.3278 17.5076 50.6035 18.4167 50.6035 19.5925V20.2625H45.7705C45.8206 20.8731 46.0234 21.3562 46.3789 21.7117C46.7389 22.0671 47.1901 22.2449 47.7324 22.2449C48.4935 22.2449 49.1133 21.9373 49.5918 21.322L50.4873 22.1765C50.1911 22.6186 49.7946 22.9626 49.2979 23.2087C48.8057 23.4503 48.252 23.571 47.6367 23.571ZM47.4385 17.2341C46.9827 17.2341 46.6136 17.3936 46.3311 17.7126C46.0531 18.0317 45.8753 18.476 45.7979 19.0457H48.9629V18.9226C48.9264 18.3666 48.7783 17.9473 48.5186 17.6648C48.2588 17.3777 47.8988 17.2341 47.4385 17.2341ZM58.376 19.8113C58.376 20.9552 58.1162 21.8689 57.5967 22.5525C57.0771 23.2315 56.3799 23.571 55.5049 23.571C54.6937 23.571 54.0443 23.3044 53.5566 22.7712V26.2781H51.8955V16.0378H53.4268L53.4951 16.7898C53.9827 16.1973 54.6458 15.9011 55.4844 15.9011C56.3867 15.9011 57.0931 16.2384 57.6035 16.9128C58.1185 17.5828 58.376 18.5147 58.376 19.7087V19.8113ZM56.7217 19.6677C56.7217 18.9294 56.5736 18.3438 56.2773 17.9109C55.9857 17.4779 55.5664 17.2615 55.0195 17.2615C54.3405 17.2615 53.8529 17.5417 53.5566 18.1023V21.3835C53.8574 21.9578 54.3496 22.2449 55.0332 22.2449C55.5618 22.2449 55.9743 22.033 56.2705 21.6091C56.5713 21.1807 56.7217 20.5336 56.7217 19.6677ZM59.4766 19.6677C59.4766 18.9431 59.6201 18.2914 59.9072 17.7126C60.1943 17.1293 60.5977 16.6827 61.1172 16.3728C61.6367 16.0583 62.2337 15.9011 62.9082 15.9011C63.9062 15.9011 64.7152 16.2224 65.335 16.865C65.9593 17.5076 66.2965 18.3598 66.3467 19.4216L66.3535 19.8113C66.3535 20.5404 66.2122 21.1921 65.9297 21.7664C65.6517 22.3406 65.2507 22.7849 64.7266 23.0994C64.207 23.4138 63.6055 23.571 62.9219 23.571C61.8783 23.571 61.042 23.2247 60.4131 22.532C59.7887 21.8347 59.4766 20.9073 59.4766 19.7498V19.6677ZM61.1377 19.8113C61.1377 20.5723 61.2949 21.1694 61.6094 21.6023C61.9238 22.0307 62.3613 22.2449 62.9219 22.2449C63.4824 22.2449 63.9176 22.0261 64.2275 21.5886C64.542 21.1511 64.6992 20.5108 64.6992 19.6677C64.6992 18.9203 64.5374 18.3279 64.2139 17.8904C63.8949 17.4529 63.4596 17.2341 62.9082 17.2341C62.3659 17.2341 61.9352 17.4506 61.6162 17.8835C61.2972 18.3119 61.1377 18.9545 61.1377 19.8113ZM71.6309 17.5554C71.4121 17.519 71.1865 17.5007 70.9541 17.5007C70.193 17.5007 69.6803 17.7924 69.416 18.3757V23.4343H67.7549V16.0378H69.3408L69.3818 16.865C69.7829 16.2224 70.3389 15.9011 71.0498 15.9011C71.2868 15.9011 71.4827 15.933 71.6377 15.9968L71.6309 17.5554ZM75.1035 14.24V16.0378H76.4092V17.2683H75.1035V21.3972C75.1035 21.6798 75.1582 21.8848 75.2676 22.0125C75.3815 22.1355 75.582 22.197 75.8691 22.197C76.0605 22.197 76.2542 22.1742 76.4502 22.1287V23.4138C76.0719 23.5186 75.7074 23.571 75.3564 23.571C74.0804 23.571 73.4424 22.8669 73.4424 21.4587V17.2683H72.2256V16.0378H73.4424V14.24H75.1035ZM81.8301 21.4246C81.8301 21.1283 81.707 20.9028 81.4609 20.7478C81.2194 20.5929 80.8161 20.4561 80.251 20.3376C79.6859 20.2192 79.2142 20.0688 78.8359 19.8865C78.0065 19.4854 77.5918 18.9044 77.5918 18.1433C77.5918 17.5053 77.8607 16.9721 78.3984 16.5437C78.9362 16.1153 79.6198 15.9011 80.4492 15.9011C81.3333 15.9011 82.0465 16.1199 82.5889 16.5574C83.1357 16.9949 83.4092 17.5623 83.4092 18.2595H81.748C81.748 17.9405 81.6296 17.6762 81.3926 17.4666C81.1556 17.2524 80.8411 17.1453 80.4492 17.1453C80.0846 17.1453 79.7861 17.2296 79.5537 17.3982C79.3258 17.5668 79.2119 17.7924 79.2119 18.075C79.2119 18.3302 79.319 18.5284 79.5332 18.6697C79.7474 18.811 80.1803 18.9545 80.832 19.1003C81.4837 19.2416 81.9941 19.4125 82.3633 19.613C82.737 19.809 83.0127 20.046 83.1904 20.324C83.3727 20.602 83.4639 20.9392 83.4639 21.3357C83.4639 22.0011 83.1882 22.5411 82.6367 22.9558C82.0853 23.366 81.363 23.571 80.4697 23.571C79.8636 23.571 79.3236 23.4617 78.8496 23.2429C78.3757 23.0242 78.0065 22.7234 77.7422 22.3406C77.4779 21.9578 77.3457 21.5453 77.3457 21.1033H78.959C78.9818 21.4952 79.1299 21.7983 79.4033 22.0125C79.6768 22.2221 80.0391 22.3269 80.4902 22.3269C80.9277 22.3269 81.2604 22.2449 81.4883 22.0808C81.7161 21.9122 81.8301 21.6934 81.8301 21.4246ZM92.8223 23.4343C92.7493 23.2931 92.6855 23.0629 92.6309 22.7439C92.1022 23.2953 91.4551 23.571 90.6895 23.571C89.9466 23.571 89.3405 23.3591 88.8711 22.9353C88.4017 22.5115 88.167 21.9874 88.167 21.363C88.167 20.5746 88.4587 19.9708 89.042 19.5515C89.6299 19.1277 90.4684 18.9158 91.5576 18.9158H92.5762V18.4304C92.5762 18.0476 92.4691 17.7423 92.2549 17.5144C92.0407 17.282 91.7148 17.1658 91.2773 17.1658C90.8991 17.1658 90.5892 17.2615 90.3477 17.4529C90.1061 17.6397 89.9854 17.879 89.9854 18.1707H88.3242C88.3242 17.7651 88.4587 17.3868 88.7275 17.0359C88.9964 16.6804 89.361 16.4024 89.8213 16.2019C90.2861 16.0014 90.8034 15.9011 91.373 15.9011C92.2389 15.9011 92.9294 16.1199 93.4443 16.5574C93.9593 16.9903 94.2236 17.601 94.2373 18.3894V21.7253C94.2373 22.3907 94.3307 22.9216 94.5176 23.3181V23.4343H92.8223ZM90.9971 22.238C91.3252 22.238 91.6328 22.1583 91.9199 21.9988C92.2116 21.8393 92.4303 21.6251 92.5762 21.3562V19.9617H91.6807C91.0654 19.9617 90.6029 20.0688 90.293 20.283C89.9831 20.4972 89.8281 20.8002 89.8281 21.1921C89.8281 21.5111 89.9329 21.7664 90.1426 21.9578C90.3568 22.1446 90.6416 22.238 90.9971 22.238ZM97.5186 16.0378L97.5664 16.8923C98.1133 16.2315 98.8311 15.9011 99.7197 15.9011C101.26 15.9011 102.044 16.783 102.071 18.5466V23.4343H100.41V18.6423C100.41 18.1729 100.308 17.8266 100.103 17.6033C99.902 17.3754 99.5716 17.2615 99.1113 17.2615C98.4414 17.2615 97.9424 17.5645 97.6143 18.1707V23.4343H95.9531V16.0378H97.5186ZM103.459 19.6814C103.459 18.5421 103.723 17.6283 104.252 16.9402C104.781 16.2475 105.489 15.9011 106.378 15.9011C107.162 15.9011 107.795 16.1746 108.278 16.7214V12.9343H109.939V23.4343H108.436L108.354 22.6687C107.857 23.2703 107.194 23.571 106.364 23.571C105.498 23.571 104.797 23.2224 104.259 22.5251C103.726 21.8279 103.459 20.88 103.459 19.6814ZM105.12 19.825C105.12 20.5769 105.264 21.1648 105.551 21.5886C105.842 22.0079 106.255 22.2175 106.788 22.2175C107.467 22.2175 107.964 21.9145 108.278 21.3083V18.1501C107.973 17.5577 107.481 17.2615 106.802 17.2615C106.264 17.2615 105.849 17.4757 105.558 17.9041C105.266 18.3279 105.12 18.9682 105.12 19.825ZM120.891 21.1169H117.035L116.229 23.4343H114.431L118.19 13.4812H119.742L123.509 23.4343H121.704L120.891 21.1169ZM117.521 19.7224H120.405L118.963 15.5935L117.521 19.7224ZM125.696 16.0378L125.744 16.8923C126.291 16.2315 127.009 15.9011 127.897 15.9011C129.438 15.9011 130.222 16.783 130.249 18.5466V23.4343H128.588V18.6423C128.588 18.1729 128.485 17.8266 128.28 17.6033C128.08 17.3754 127.749 17.2615 127.289 17.2615C126.619 17.2615 126.12 17.5645 125.792 18.1707V23.4343H124.131V16.0378H125.696ZM136.367 23.4343C136.294 23.2931 136.23 23.0629 136.176 22.7439C135.647 23.2953 135 23.571 134.234 23.571C133.492 23.571 132.885 23.3591 132.416 22.9353C131.947 22.5115 131.712 21.9874 131.712 21.363C131.712 20.5746 132.004 19.9708 132.587 19.5515C133.175 19.1277 134.013 18.9158 135.103 18.9158H136.121V18.4304C136.121 18.0476 136.014 17.7423 135.8 17.5144C135.586 17.282 135.26 17.1658 134.822 17.1658C134.444 17.1658 134.134 17.2615 133.893 17.4529C133.651 17.6397 133.53 17.879 133.53 18.1707H131.869C131.869 17.7651 132.004 17.3868 132.272 17.0359C132.541 16.6804 132.906 16.4024 133.366 16.2019C133.831 16.0014 134.348 15.9011 134.918 15.9011C135.784 15.9011 136.474 16.1199 136.989 16.5574C137.504 16.9903 137.769 17.601 137.782 18.3894V21.7253C137.782 22.3907 137.876 22.9216 138.062 23.3181V23.4343H136.367ZM134.542 22.238C134.87 22.238 135.178 22.1583 135.465 21.9988C135.757 21.8393 135.975 21.6251 136.121 21.3562V19.9617H135.226C134.61 19.9617 134.148 20.0688 133.838 20.283C133.528 20.4972 133.373 20.8002 133.373 21.1921C133.373 21.5111 133.478 21.7664 133.688 21.9578C133.902 22.1446 134.187 22.238 134.542 22.238ZM142 21.0554L143.504 16.0378H145.274L142.335 24.5554C141.884 25.7996 141.118 26.4216 140.038 26.4216C139.797 26.4216 139.53 26.3806 139.238 26.2986V25.0134L139.553 25.0339C139.972 25.0339 140.286 24.9565 140.496 24.8015C140.71 24.6511 140.879 24.3959 141.002 24.0359L141.241 23.4001L138.644 16.0378H140.435L142 21.0554ZM148.002 23.4343H146.341V16.0378H148.002V23.4343ZM146.238 14.1169C146.238 13.8617 146.318 13.6498 146.478 13.4812C146.642 13.3126 146.874 13.2283 147.175 13.2283C147.476 13.2283 147.708 13.3126 147.872 13.4812C148.036 13.6498 148.118 13.8617 148.118 14.1169C148.118 14.3676 148.036 14.5772 147.872 14.7458C147.708 14.9099 147.476 14.9919 147.175 14.9919C146.874 14.9919 146.642 14.9099 146.478 14.7458C146.318 14.5772 146.238 14.3676 146.238 14.1169ZM151.898 14.24V16.0378H153.204V17.2683H151.898V21.3972C151.898 21.6798 151.953 21.8848 152.062 22.0125C152.176 22.1355 152.377 22.197 152.664 22.197C152.855 22.197 153.049 22.1742 153.245 22.1287V23.4138C152.867 23.5186 152.502 23.571 152.151 23.571C150.875 23.571 150.237 22.8669 150.237 21.4587V17.2683H149.021V16.0378H150.237V14.24H151.898ZM156.246 23.4343H154.585V16.0378H156.246V23.4343ZM154.482 14.1169C154.482 13.8617 154.562 13.6498 154.722 13.4812C154.886 13.3126 155.118 13.2283 155.419 13.2283C155.72 13.2283 155.952 13.3126 156.116 13.4812C156.28 13.6498 156.362 13.8617 156.362 14.1169C156.362 14.3676 156.28 14.5772 156.116 14.7458C155.952 14.9099 155.72 14.9919 155.419 14.9919C155.118 14.9919 154.886 14.9099 154.722 14.7458C154.562 14.5772 154.482 14.3676 154.482 14.1169ZM161.1 22.2449C161.514 22.2449 161.858 22.1241 162.132 21.8826C162.405 21.641 162.551 21.3425 162.569 20.9871H164.135C164.117 21.4473 163.973 21.878 163.704 22.2791C163.435 22.6755 163.071 22.99 162.61 23.2224C162.15 23.4548 161.653 23.571 161.12 23.571C160.086 23.571 159.265 23.2361 158.659 22.5662C158.053 21.8962 157.75 20.9711 157.75 19.7908V19.6199C157.75 18.4942 158.051 17.5942 158.652 16.9197C159.254 16.2406 160.074 15.9011 161.113 15.9011C161.993 15.9011 162.708 16.1586 163.26 16.6736C163.816 17.184 164.107 17.8562 164.135 18.6902H162.569C162.551 18.2664 162.405 17.9177 162.132 17.6443C161.863 17.3708 161.519 17.2341 161.1 17.2341C160.562 17.2341 160.147 17.4301 159.855 17.822C159.564 18.2094 159.416 18.7996 159.411 19.5925V19.8591C159.411 20.6612 159.555 21.2605 159.842 21.657C160.133 22.0489 160.553 22.2449 161.1 22.2449ZM169.535 21.4246C169.535 21.1283 169.412 20.9028 169.166 20.7478C168.924 20.5929 168.521 20.4561 167.956 20.3376C167.391 20.2192 166.919 20.0688 166.541 19.8865C165.712 19.4854 165.297 18.9044 165.297 18.1433C165.297 17.5053 165.566 16.9721 166.104 16.5437C166.641 16.1153 167.325 15.9011 168.154 15.9011C169.038 15.9011 169.752 16.1199 170.294 16.5574C170.841 16.9949 171.114 17.5623 171.114 18.2595H169.453C169.453 17.9405 169.335 17.6762 169.098 17.4666C168.861 17.2524 168.546 17.1453 168.154 17.1453C167.79 17.1453 167.491 17.2296 167.259 17.3982C167.031 17.5668 166.917 17.7924 166.917 18.075C166.917 18.3302 167.024 18.5284 167.238 18.6697C167.452 18.811 167.885 18.9545 168.537 19.1003C169.189 19.2416 169.699 19.4125 170.068 19.613C170.442 19.809 170.718 20.046 170.896 20.324C171.078 20.602 171.169 20.9392 171.169 21.3357C171.169 22.0011 170.893 22.5411 170.342 22.9558C169.79 23.366 169.068 23.571 168.175 23.571C167.569 23.571 167.029 23.4617 166.555 23.2429C166.081 23.0242 165.712 22.7234 165.447 22.3406C165.183 21.9578 165.051 21.5453 165.051 21.1033H166.664C166.687 21.4952 166.835 21.7983 167.108 22.0125C167.382 22.2221 167.744 22.3269 168.195 22.3269C168.633 22.3269 168.965 22.2449 169.193 22.0808C169.421 21.9122 169.535 21.6934 169.535 21.4246Z" fill="#682EE6"/>
<defs>
<clipPath id="clip0_1264_26308">
<rect width="16" height="16" fill="white" transform="translate(8.78125 10.4343)"/>
</clipPath>
</defs>
</svg>
