<svg width="145" height="37" viewBox="0 0 145 37" fill="none" xmlns="http://www.w3.org/2000/svg">
<rect x="0.919922" y="0.440002" width="143.667" height="36" rx="3" fill="#E8DDFF"/>
<g clip-path="url(#clip0_1264_25847)">
<path d="M20.4437 15.44V14.44C20.4437 12.2344 18.5639 10.44 16.2533 10.44C13.9426 10.44 12.0628 12.2344 12.0628 14.44V15.44H8.91992V23.94C8.91992 25.3207 10.0925 26.44 11.539 26.44H20.9675C22.414 26.44 23.5866 25.3207 23.5866 23.94V15.44H20.4437ZM14.158 14.44C14.158 13.3372 15.0979 12.44 16.2533 12.44C17.4086 12.44 18.3485 13.3372 18.3485 14.44V15.44H14.158V14.44ZM19.3961 18.19C18.9622 18.19 18.6104 17.8542 18.6104 17.44C18.6104 17.0258 18.9622 16.69 19.3961 16.69C19.8301 16.69 20.1818 17.0258 20.1818 17.44C20.1818 17.8542 19.8301 18.19 19.3961 18.19ZM13.1104 18.19C12.6765 18.19 12.3247 17.8542 12.3247 17.44C12.3247 17.0258 12.6765 16.69 13.1104 16.69C13.5443 16.69 13.8961 17.0258 13.8961 17.44C13.8961 17.8542 13.5443 18.19 13.1104 18.19Z" fill="#682EE6"/>
</g>
<path d="M39.9146 20.8765C39.9146 20.439 39.7596 20.1018 39.4497 19.8648C39.1444 19.6278 38.5907 19.3886 37.7886 19.147C36.9865 18.9055 36.3485 18.6366 35.8745 18.3404C34.9676 17.7707 34.5142 17.0279 34.5142 16.1119C34.5142 15.3098 34.84 14.649 35.4917 14.1295C36.1479 13.6099 36.9979 13.3502 38.0415 13.3502C38.7342 13.3502 39.3517 13.4778 39.894 13.733C40.4364 13.9882 40.8625 14.3528 41.1724 14.8267C41.4823 15.2961 41.6372 15.8179 41.6372 16.3922H39.9146C39.9146 15.8726 39.7505 15.467 39.4224 15.1754C39.0988 14.8791 38.634 14.731 38.0278 14.731C37.4627 14.731 37.0229 14.8518 36.7085 15.0933C36.3986 15.3349 36.2437 15.6721 36.2437 16.105C36.2437 16.4696 36.4123 16.775 36.7495 17.0211C37.0868 17.2626 37.6427 17.4996 38.4175 17.732C39.1922 17.9599 39.8143 18.2219 40.2837 18.5181C40.7531 18.8098 41.0972 19.147 41.3159 19.5298C41.5347 19.9081 41.644 20.3524 41.644 20.8629C41.644 21.6923 41.325 22.3531 40.687 22.8453C40.0535 23.3329 39.1922 23.5767 38.103 23.5767C37.383 23.5767 36.7199 23.4446 36.1138 23.1802C35.5122 22.9114 35.0428 22.5422 34.7056 22.0728C34.3729 21.6034 34.2065 21.0565 34.2065 20.4322H35.936C35.936 20.9973 36.1229 21.4348 36.4966 21.7447C36.8703 22.0546 37.4058 22.2095 38.103 22.2095C38.7046 22.2095 39.1558 22.0888 39.4565 21.8472C39.7619 21.6011 39.9146 21.2776 39.9146 20.8765ZM44.6382 16.8502C45.1805 16.2213 45.8664 15.9068 46.6958 15.9068C48.2726 15.9068 49.0724 16.8069 49.0952 18.607V23.44H47.4341V18.6685C47.4341 18.1581 47.3224 17.7981 47.0991 17.5884C46.8804 17.3742 46.5568 17.2672 46.1284 17.2672C45.4631 17.2672 44.9663 17.5634 44.6382 18.1558V23.44H42.9771V12.94H44.6382V16.8502ZM50.4692 19.6734C50.4692 18.9488 50.6128 18.2971 50.8999 17.7183C51.187 17.135 51.5903 16.6884 52.1099 16.3785C52.6294 16.064 53.2264 15.9068 53.9009 15.9068C54.8989 15.9068 55.7078 16.2281 56.3276 16.8707C56.952 17.5132 57.2892 18.3655 57.3394 19.4273L57.3462 19.817C57.3462 20.5461 57.2049 21.1978 56.9224 21.772C56.6444 22.3463 56.2433 22.7906 55.7192 23.105C55.1997 23.4195 54.5981 23.5767 53.9146 23.5767C52.8709 23.5767 52.0347 23.2304 51.4058 22.5377C50.7814 21.8404 50.4692 20.913 50.4692 19.7554V19.6734ZM52.1304 19.817C52.1304 20.578 52.2876 21.175 52.6021 21.608C52.9165 22.0364 53.354 22.2505 53.9146 22.2505C54.4751 22.2505 54.9103 22.0318 55.2202 21.5943C55.5347 21.1568 55.6919 20.5165 55.6919 19.6734C55.6919 18.926 55.5301 18.3336 55.2065 17.8961C54.8875 17.4586 54.4523 17.2398 53.9009 17.2398C53.3586 17.2398 52.9279 17.4563 52.6089 17.8892C52.2899 18.3176 52.1304 18.9602 52.1304 19.817ZM65.228 19.817C65.228 20.9608 64.9683 21.8746 64.4487 22.5582C63.9292 23.2372 63.2319 23.5767 62.3569 23.5767C61.5457 23.5767 60.8963 23.3101 60.4087 22.7769V26.2838H58.7476V16.0435H60.2788L60.3472 16.7955C60.8348 16.203 61.4979 15.9068 62.3364 15.9068C63.2388 15.9068 63.9451 16.244 64.4556 16.9185C64.9705 17.5884 65.228 18.5204 65.228 19.7144V19.817ZM63.5737 19.6734C63.5737 18.9351 63.4256 18.3495 63.1294 17.9166C62.8377 17.4836 62.4185 17.2672 61.8716 17.2672C61.1925 17.2672 60.7049 17.5474 60.4087 18.108V21.3892C60.7095 21.9634 61.2017 22.2505 61.8853 22.2505C62.4139 22.2505 62.8263 22.0386 63.1226 21.6148C63.4233 21.1864 63.5737 20.5393 63.5737 19.6734ZM73.1167 19.817C73.1167 20.9608 72.8569 21.8746 72.3374 22.5582C71.8179 23.2372 71.1206 23.5767 70.2456 23.5767C69.4344 23.5767 68.785 23.3101 68.2974 22.7769V26.2838H66.6362V16.0435H68.1675L68.2358 16.7955C68.7235 16.203 69.3866 15.9068 70.2251 15.9068C71.1274 15.9068 71.8338 16.244 72.3442 16.9185C72.8592 17.5884 73.1167 18.5204 73.1167 19.7144V19.817ZM71.4624 19.6734C71.4624 18.9351 71.3143 18.3495 71.0181 17.9166C70.7264 17.4836 70.3071 17.2672 69.7603 17.2672C69.0812 17.2672 68.5936 17.5474 68.2974 18.108V21.3892C68.5981 21.9634 69.0903 22.2505 69.7739 22.2505C70.3026 22.2505 70.715 22.0386 71.0112 21.6148C71.312 21.1864 71.4624 20.5393 71.4624 19.6734ZM78.9478 23.44C78.8748 23.2987 78.811 23.0686 78.7563 22.7496C78.2277 23.301 77.5806 23.5767 76.8149 23.5767C76.0721 23.5767 75.466 23.3648 74.9966 22.941C74.5272 22.5172 74.2925 21.9931 74.2925 21.3687C74.2925 20.5803 74.5841 19.9765 75.1675 19.5572C75.7554 19.1334 76.5939 18.9214 77.6831 18.9214H78.7017V18.4361C78.7017 18.0533 78.5946 17.7479 78.3804 17.5201C78.1662 17.2877 77.8403 17.1714 77.4028 17.1714C77.0246 17.1714 76.7147 17.2672 76.4731 17.4586C76.2316 17.6454 76.1108 17.8847 76.1108 18.1763H74.4497C74.4497 17.7707 74.5841 17.3925 74.853 17.0416C75.1219 16.6861 75.4865 16.4081 75.9468 16.2076C76.4116 16.0071 76.9289 15.9068 77.4985 15.9068C78.3644 15.9068 79.0549 16.1255 79.5698 16.563C80.0848 16.996 80.3491 17.6067 80.3628 18.3951V21.731C80.3628 22.3964 80.4562 22.9273 80.6431 23.3238V23.44H78.9478ZM77.1226 22.2437C77.4507 22.2437 77.7583 22.164 78.0454 22.0045C78.3371 21.845 78.5558 21.6308 78.7017 21.3619V19.9673H77.8062C77.1909 19.9673 76.7284 20.0744 76.4185 20.2886C76.1086 20.5028 75.9536 20.8059 75.9536 21.1978C75.9536 21.5168 76.0584 21.772 76.2681 21.9634C76.4823 22.1503 76.7671 22.2437 77.1226 22.2437ZM88.5933 19.817C88.5933 20.9654 88.3358 21.8791 87.8208 22.5582C87.3104 23.2372 86.6063 23.5767 85.7085 23.5767C84.8426 23.5767 84.1681 23.2645 83.6851 22.6402L83.603 23.44H82.0991V12.94H83.7603V16.7545C84.2388 16.1894 84.8836 15.9068 85.6948 15.9068C86.5972 15.9068 87.3058 16.2418 87.8208 16.9117C88.3358 17.5816 88.5933 18.5181 88.5933 19.7213V19.817ZM86.9321 19.6734C86.9321 18.8713 86.7909 18.2698 86.5083 17.8687C86.2257 17.4677 85.8156 17.2672 85.2778 17.2672C84.5578 17.2672 84.0519 17.5816 83.7603 18.2105V21.2593C84.0565 21.9019 84.5669 22.2232 85.2915 22.2232C85.811 22.2232 86.2121 22.0295 86.4946 21.6422C86.7772 21.2548 86.923 20.6692 86.9321 19.8853V19.6734ZM91.7583 23.44H90.0972V12.94H91.7583V23.44ZM96.8306 23.5767C95.7778 23.5767 94.9233 23.2463 94.2671 22.5855C93.6154 21.9201 93.2896 21.036 93.2896 19.9332V19.7281C93.2896 18.9898 93.4308 18.3313 93.7134 17.7525C94.0005 17.1692 94.4015 16.7157 94.9165 16.3922C95.4315 16.0686 96.0057 15.9068 96.6392 15.9068C97.6463 15.9068 98.4233 16.2281 98.9702 16.8707C99.5216 17.5132 99.7974 18.4224 99.7974 19.5982V20.2681H94.9644C95.0145 20.8788 95.2173 21.3619 95.5728 21.7173C95.9328 22.0728 96.384 22.2505 96.9263 22.2505C97.6873 22.2505 98.3071 21.9429 98.7856 21.3277L99.6812 22.1822C99.3849 22.6242 98.9884 22.9683 98.4917 23.2144C97.9995 23.456 97.4458 23.5767 96.8306 23.5767ZM96.6323 17.2398C96.1766 17.2398 95.8075 17.3993 95.5249 17.7183C95.2469 18.0373 95.0692 18.4817 94.9917 19.0513H98.1567V18.9283C98.1203 18.3723 97.9722 17.953 97.7124 17.6705C97.4526 17.3834 97.0926 17.2398 96.6323 17.2398ZM109.942 20.8765C109.942 20.439 109.787 20.1018 109.477 19.8648C109.172 19.6278 108.618 19.3886 107.816 19.147C107.014 18.9055 106.376 18.6366 105.902 18.3404C104.995 17.7707 104.542 17.0279 104.542 16.1119C104.542 15.3098 104.867 14.649 105.519 14.1295C106.175 13.6099 107.025 13.3502 108.069 13.3502C108.762 13.3502 109.379 13.4778 109.921 13.733C110.464 13.9882 110.89 14.3528 111.2 14.8267C111.51 15.2961 111.665 15.8179 111.665 16.3922H109.942C109.942 15.8726 109.778 15.467 109.45 15.1754C109.126 14.8791 108.661 14.731 108.055 14.731C107.49 14.731 107.05 14.8518 106.736 15.0933C106.426 15.3349 106.271 15.6721 106.271 16.105C106.271 16.4696 106.44 16.775 106.777 17.0211C107.114 17.2626 107.67 17.4996 108.445 17.732C109.22 17.9599 109.842 18.2219 110.311 18.5181C110.78 18.8098 111.125 19.147 111.343 19.5298C111.562 19.9081 111.671 20.3524 111.671 20.8629C111.671 21.6923 111.352 22.3531 110.714 22.8453C110.081 23.3329 109.22 23.5767 108.13 23.5767C107.41 23.5767 106.747 23.4446 106.141 23.1802C105.54 22.9114 105.07 22.5422 104.733 22.0728C104.4 21.6034 104.234 21.0565 104.234 20.4322H105.963C105.963 20.9973 106.15 21.4348 106.524 21.7447C106.898 22.0546 107.433 22.2095 108.13 22.2095C108.732 22.2095 109.183 22.0888 109.484 21.8472C109.789 21.6011 109.942 21.2776 109.942 20.8765ZM115.11 14.2457V16.0435H116.416V17.274H115.11V21.4029C115.11 21.6854 115.165 21.8905 115.274 22.0181C115.388 22.1412 115.588 22.2027 115.875 22.2027C116.067 22.2027 116.261 22.1799 116.457 22.1343V23.4195C116.078 23.5243 115.714 23.5767 115.363 23.5767C114.087 23.5767 113.449 22.8726 113.449 21.4644V17.274H112.232V16.0435H113.449V14.2457H115.11ZM117.174 19.6734C117.174 18.9488 117.318 18.2971 117.605 17.7183C117.892 17.135 118.295 16.6884 118.815 16.3785C119.334 16.064 119.931 15.9068 120.606 15.9068C121.604 15.9068 122.413 16.2281 123.033 16.8707C123.657 17.5132 123.994 18.3655 124.044 19.4273L124.051 19.817C124.051 20.5461 123.91 21.1978 123.627 21.772C123.349 22.3463 122.948 22.7906 122.424 23.105C121.905 23.4195 121.303 23.5767 120.62 23.5767C119.576 23.5767 118.74 23.2304 118.111 22.5377C117.486 21.8404 117.174 20.913 117.174 19.7554V19.6734ZM118.835 19.817C118.835 20.578 118.993 21.175 119.307 21.608C119.622 22.0364 120.059 22.2505 120.62 22.2505C121.18 22.2505 121.615 22.0318 121.925 21.5943C122.24 21.1568 122.397 20.5165 122.397 19.6734C122.397 18.926 122.235 18.3336 121.912 17.8961C121.593 17.4586 121.157 17.2398 120.606 17.2398C120.064 17.2398 119.633 17.4563 119.314 17.8892C118.995 18.3176 118.835 18.9602 118.835 19.817ZM129.329 17.5611C129.11 17.5246 128.884 17.5064 128.652 17.5064C127.891 17.5064 127.378 17.7981 127.114 18.3814V23.44H125.453V16.0435H127.039L127.08 16.8707C127.481 16.2281 128.037 15.9068 128.748 15.9068C128.985 15.9068 129.181 15.9387 129.335 16.0025L129.329 17.5611ZM133.088 21.0611L134.592 16.0435H136.363L133.423 24.5611C132.972 25.8052 132.207 26.4273 131.126 26.4273C130.885 26.4273 130.618 26.3863 130.327 26.3043V25.0191L130.641 25.0396C131.06 25.0396 131.375 24.9621 131.584 24.8072C131.799 24.6568 131.967 24.4016 132.09 24.0416L132.33 23.4058L129.732 16.0435H131.523L133.088 21.0611Z" fill="#682EE6"/>
<defs>
<clipPath id="clip0_1264_25847">
<rect width="14.6667" height="16" fill="white" transform="translate(8.91992 10.44)"/>
</clipPath>
</defs>
</svg>
