<svg width="104" height="37" viewBox="0 0 104 37" fill="none" xmlns="http://www.w3.org/2000/svg">
<rect x="0.124023" y="0.440186" width="103" height="36" rx="3" fill="#E8DDFF"/>
<g clip-path="url(#clip0_1264_25904)">
<path d="M23.9075 11.0371C23.8874 10.9435 23.8407 10.8578 23.7731 10.7902C23.7055 10.7226 23.6197 10.6759 23.5262 10.6558C22.52 10.4402 21.7328 10.4402 20.9484 10.4402C17.7234 10.4402 15.789 12.1652 14.3456 14.4402H11.0893C10.8113 14.4404 10.5387 14.518 10.3021 14.6641C10.0656 14.8103 9.87428 15.0194 9.74966 15.268L8.20528 18.3555C8.14825 18.4699 8.12139 18.5969 8.12725 18.7246C8.13312 18.8523 8.17151 18.9763 8.23879 19.085C8.30607 19.1937 8.4 19.2833 8.51167 19.3455C8.62334 19.4077 8.74904 19.4403 8.87685 19.4402H12.1197L11.4175 20.1424C11.23 20.3299 11.1247 20.5842 11.1247 20.8494C11.1247 21.1146 11.23 21.3689 11.4175 21.5564L13.0081 23.1474C13.101 23.2403 13.2112 23.3139 13.3325 23.3642C13.4539 23.4145 13.5839 23.4403 13.7153 23.4403C13.8466 23.4403 13.9767 23.4145 14.098 23.3642C14.2194 23.3139 14.3296 23.2403 14.4225 23.1474L15.1247 22.4452V25.6902C15.1246 25.8179 15.1572 25.9436 15.2194 26.0552C15.2815 26.1669 15.3712 26.2608 15.4798 26.328C15.5884 26.3953 15.7124 26.4337 15.84 26.4396C15.9677 26.4455 16.0947 26.4187 16.209 26.3617L19.2934 24.8183C19.5424 24.6939 19.7518 24.5026 19.8981 24.2658C20.0444 24.0289 20.1218 23.756 20.1215 23.4777V20.2149C22.39 18.768 24.1215 16.8274 24.1215 13.6183C24.1247 12.8308 24.1247 12.0433 23.9075 11.0371ZM20.1247 15.6902C19.8774 15.6902 19.6358 15.6169 19.4302 15.4795C19.2246 15.3422 19.0644 15.1469 18.9698 14.9185C18.8752 14.6901 18.8504 14.4388 18.8987 14.1963C18.9469 13.9538 19.066 13.7311 19.2408 13.5563C19.4156 13.3815 19.6383 13.2624 19.8808 13.2142C20.1233 13.166 20.3746 13.1907 20.603 13.2853C20.8314 13.3799 21.0266 13.5402 21.164 13.7457C21.3013 13.9513 21.3747 14.193 21.3747 14.4402C21.3747 14.7717 21.243 15.0896 21.0085 15.3241C20.7741 15.5585 20.4562 15.6902 20.1247 15.6902Z" fill="#682EE6"/>
</g>
<path d="M40.4932 20.8767C40.4932 20.4392 40.3382 20.102 40.0283 19.865C39.723 19.628 39.1693 19.3888 38.3672 19.1472C37.5651 18.9057 36.9271 18.6368 36.4531 18.3406C35.5462 17.7709 35.0928 17.0281 35.0928 16.1121C35.0928 15.31 35.4186 14.6492 36.0703 14.1296C36.7266 13.6101 37.5765 13.3503 38.6201 13.3503C39.3128 13.3503 39.9303 13.4779 40.4727 13.7332C41.015 13.9884 41.4411 14.3529 41.751 14.8269C42.0609 15.2963 42.2158 15.8181 42.2158 16.3923H40.4932C40.4932 15.8728 40.3291 15.4672 40.001 15.1755C39.6774 14.8793 39.2126 14.7312 38.6064 14.7312C38.0413 14.7312 37.6016 14.852 37.2871 15.0935C36.9772 15.335 36.8223 15.6723 36.8223 16.1052C36.8223 16.4698 36.9909 16.7751 37.3281 17.0212C37.6654 17.2628 38.2214 17.4998 38.9961 17.7322C39.7708 17.96 40.3929 18.2221 40.8623 18.5183C41.3317 18.81 41.6758 19.1472 41.8945 19.53C42.1133 19.9083 42.2227 20.3526 42.2227 20.863C42.2227 21.6925 41.9036 22.3533 41.2656 22.8455C40.6322 23.3331 39.7708 23.5769 38.6816 23.5769C37.9616 23.5769 37.2985 23.4447 36.6924 23.1804C36.0908 22.9115 35.6214 22.5424 35.2842 22.073C34.9515 21.6036 34.7852 21.0567 34.7852 20.4324H36.5146C36.5146 20.9975 36.7015 21.435 37.0752 21.7449C37.4489 22.0548 37.9844 22.2097 38.6816 22.2097C39.2832 22.2097 39.7344 22.0889 40.0352 21.8474C40.3405 21.6013 40.4932 21.2778 40.4932 20.8767ZM45.6611 14.2458V16.0437H46.9668V17.2742H45.6611V21.4031C45.6611 21.6856 45.7158 21.8907 45.8252 22.0183C45.9391 22.1414 46.1396 22.2029 46.4268 22.2029C46.6182 22.2029 46.8118 22.1801 47.0078 22.1345V23.4197C46.6296 23.5245 46.265 23.5769 45.9141 23.5769C44.638 23.5769 44 22.8728 44 21.4646V17.2742H42.7832V16.0437H44V14.2458H45.6611ZM47.7256 19.6736C47.7256 18.949 47.8691 18.2973 48.1562 17.7185C48.4434 17.1352 48.8467 16.6886 49.3662 16.3787C49.8857 16.0642 50.4827 15.907 51.1572 15.907C52.1553 15.907 52.9642 16.2283 53.584 16.8708C54.2083 17.5134 54.5456 18.3656 54.5957 19.4275L54.6025 19.8171C54.6025 20.5463 54.4613 21.198 54.1787 21.7722C53.9007 22.3464 53.4997 22.7908 52.9756 23.1052C52.4561 23.4197 51.8545 23.5769 51.1709 23.5769C50.1273 23.5769 49.291 23.2306 48.6621 22.5378C48.0378 21.8406 47.7256 20.9132 47.7256 19.7556V19.6736ZM49.3867 19.8171C49.3867 20.5782 49.5439 21.1752 49.8584 21.6082C50.1729 22.0365 50.6104 22.2507 51.1709 22.2507C51.7314 22.2507 52.1667 22.032 52.4766 21.5945C52.791 21.157 52.9482 20.5167 52.9482 19.6736C52.9482 18.9262 52.7865 18.3337 52.4629 17.8962C52.1439 17.4587 51.7087 17.24 51.1572 17.24C50.6149 17.24 50.1842 17.4565 49.8652 17.8894C49.5462 18.3178 49.3867 18.9604 49.3867 19.8171ZM59.8799 17.5613C59.6611 17.5248 59.4355 17.5066 59.2031 17.5066C58.4421 17.5066 57.9294 17.7983 57.665 18.3816V23.4402H56.0039V16.0437H57.5898L57.6309 16.8708C58.0319 16.2283 58.5879 15.907 59.2988 15.907C59.5358 15.907 59.7318 15.9389 59.8867 16.0027L59.8799 17.5613ZM63.6396 21.0613L65.1436 16.0437H66.9141L63.9746 24.5613C63.5234 25.8054 62.7578 26.4275 61.6777 26.4275C61.4362 26.4275 61.1696 26.3865 60.8779 26.3044V25.0193L61.1924 25.0398C61.6117 25.0398 61.9261 24.9623 62.1357 24.8074C62.3499 24.657 62.5186 24.4018 62.6416 24.0417L62.8809 23.406L60.2832 16.0437H62.0742L63.6396 21.0613ZM77.0928 21.1228H73.2373L72.4307 23.4402H70.6328L74.3926 13.4871H75.9443L79.7109 23.4402H77.9062L77.0928 21.1228ZM73.7227 19.7283H76.6074L75.165 15.5994L73.7227 19.7283ZM80.374 19.6873C80.374 18.5479 80.6383 17.6342 81.167 16.946C81.6956 16.2533 82.4043 15.907 83.293 15.907C84.0768 15.907 84.7103 16.1804 85.1934 16.7273V12.9402H86.8545V23.4402H85.3506L85.2686 22.6746C84.7718 23.2761 84.1087 23.5769 83.2793 23.5769C82.4134 23.5769 81.7116 23.2283 81.1738 22.531C80.6406 21.8337 80.374 20.8858 80.374 19.6873ZM82.0352 19.8308C82.0352 20.5828 82.1787 21.1707 82.4658 21.5945C82.7575 22.0138 83.1699 22.2234 83.7031 22.2234C84.3822 22.2234 84.8789 21.9203 85.1934 21.3142V18.156C84.888 17.5636 84.3958 17.2673 83.7168 17.2673C83.179 17.2673 82.7643 17.4815 82.4727 17.9099C82.181 18.3337 82.0352 18.974 82.0352 19.8308ZM92.7334 21.4304C92.7334 21.1342 92.6104 20.9086 92.3643 20.7537C92.1227 20.5987 91.7194 20.462 91.1543 20.3435C90.5892 20.225 90.1175 20.0746 89.7393 19.8923C88.9098 19.4913 88.4951 18.9102 88.4951 18.1492C88.4951 17.5111 88.764 16.9779 89.3018 16.5496C89.8395 16.1212 90.5231 15.907 91.3525 15.907C92.2367 15.907 92.9499 16.1257 93.4922 16.5632C94.0391 17.0007 94.3125 17.5681 94.3125 18.2654H92.6514C92.6514 17.9464 92.5329 17.682 92.2959 17.4724C92.0589 17.2582 91.7445 17.1511 91.3525 17.1511C90.988 17.1511 90.6895 17.2354 90.457 17.4041C90.2292 17.5727 90.1152 17.7983 90.1152 18.0808C90.1152 18.336 90.2223 18.5343 90.4365 18.6755C90.6507 18.8168 91.0837 18.9604 91.7354 19.1062C92.387 19.2475 92.8975 19.4184 93.2666 19.6189C93.6403 19.8149 93.916 20.0518 94.0938 20.3298C94.276 20.6078 94.3672 20.9451 94.3672 21.3416C94.3672 22.0069 94.0915 22.547 93.54 22.9617C92.9886 23.3718 92.2663 23.5769 91.373 23.5769C90.7669 23.5769 90.2269 23.4675 89.7529 23.2488C89.279 23.03 88.9098 22.7292 88.6455 22.3464C88.3812 21.9636 88.249 21.5512 88.249 21.1091H89.8623C89.8851 21.5011 90.0332 21.8041 90.3066 22.0183C90.5801 22.2279 90.9424 22.3328 91.3936 22.3328C91.8311 22.3328 92.1637 22.2507 92.3916 22.0867C92.6195 21.9181 92.7334 21.6993 92.7334 21.4304Z" fill="#682EE6"/>
<defs>
<clipPath id="clip0_1264_25904">
<rect width="16" height="16" fill="white" transform="translate(8.12402 10.4402)"/>
</clipPath>
</defs>
</svg>
