<svg width="51" height="50" viewBox="0 0 51 50" fill="none" xmlns="http://www.w3.org/2000/svg">
<g clip-path="url(#clip0_4_738)">
<path d="M39.4018 9.58208C37.5798 7.50651 36.5754 4.83829 36.5764 2.07593H34.3733C34.6578 3.60321 35.2505 5.05646 36.115 6.347C36.9796 7.63754 38.0979 8.73829 39.4018 9.58208ZM19.017 25.8238C17.4719 25.8317 15.9738 26.3561 14.7608 27.3136C13.5478 28.2712 12.6896 29.6069 12.3226 31.1085C11.9557 32.6101 12.1009 34.1913 12.7354 35.6008C13.3699 37.0103 14.4571 38.1672 15.8243 38.8874C15.0768 37.8549 14.6292 36.6357 14.5309 35.3646C14.4325 34.0935 14.6874 32.82 15.2672 31.6847C15.847 30.5494 16.7292 29.5965 17.8164 28.9314C18.9035 28.2663 20.1533 27.9148 21.4276 27.9158C22.1204 27.9248 22.8084 28.0327 23.4707 28.2361V19.8349C22.7943 19.7335 22.1116 19.6801 21.4276 19.6753H21.0603V26.0633C20.3945 25.8846 19.7061 25.8039 19.017 25.8238Z" fill="#FE2C55"/>
<path d="M21.0596 19.6912V17.7427C20.3836 17.6357 19.7008 17.577 19.0164 17.5672C12.3904 17.553 6.52425 21.8488 4.53446 28.1718C2.54467 34.4948 4.89339 41.3778 10.3321 45.1637C8.3377 43.0283 7.00373 40.361 6.49118 37.4838C5.97864 34.6066 6.30943 31.6425 7.44364 28.9493C8.57784 26.256 10.467 23.9488 12.883 22.306C15.299 20.6632 18.1387 19.7552 21.0592 19.6914L21.0596 19.6912Z" fill="#25F4EE"/>
<path d="M21.4286 41.7622C25.1332 41.7572 28.1783 38.8373 28.3406 35.1346V2.09218H34.3742C34.2511 1.40173 34.1924 0.701325 34.1988 0L25.9459 0V33.0105C25.8086 36.7321 22.7562 39.68 19.0339 39.686C17.9215 39.6765 16.8273 39.4029 15.8414 38.8875C16.4804 39.7733 17.3196 40.4953 18.2906 40.9949C19.2615 41.4945 20.3368 41.7574 21.4286 41.7622ZM45.6442 13.3031V11.4665C43.4235 11.4674 41.2522 10.8118 39.4027 9.58219C41.024 11.4678 43.2149 12.774 45.6442 13.3031Z" fill="#25F4EE"/>
<path d="M45.6398 13.3032V19.6914C41.5289 19.6834 37.5247 18.3816 34.1944 15.9703V32.7551C34.1767 41.1304 27.3852 47.9109 19.0136 47.9109C15.9045 47.9165 12.8702 46.9567 10.3293 45.164C12.4012 47.3935 15.0962 48.9471 18.0633 49.6225C21.0303 50.2978 24.1319 50.0636 26.964 48.9503C29.7961 47.837 32.2274 45.8963 33.9413 43.3809C35.6552 40.8654 36.5722 37.8919 36.5729 34.8477V18.1105C39.9144 20.5059 43.9235 21.7907 48.0342 21.7836V13.5582C47.2294 13.5558 46.427 13.4703 45.6398 13.3032Z" fill="#FE2C55"/>
<path d="M34.1985 32.7548V15.9701C37.5388 18.3676 41.5487 19.6527 45.6598 19.6432V13.2552C43.231 12.7421 41.0349 11.4529 39.4024 9.58208C38.0986 8.73829 36.9802 7.63754 36.1157 6.347C35.2511 5.05646 34.6585 3.60321 34.3739 2.07593H28.3403V35.1349C28.2815 36.5739 27.7762 37.9588 26.8945 39.0973C26.0127 40.2357 24.7985 41.0711 23.4203 41.4873C22.0422 41.9035 20.5687 41.8799 19.2047 41.4198C17.8406 40.9596 16.6536 40.0858 15.8088 38.9197C14.4414 38.1996 13.3539 37.0427 12.7193 35.6331C12.0847 34.2235 11.9393 32.6422 12.3063 31.1404C12.6733 29.6387 13.5317 28.3028 14.7448 27.3452C15.958 26.3876 17.4563 25.8633 19.0016 25.8556C19.6946 25.8618 20.383 25.9695 21.0448 26.1751V19.7869C18.1086 19.8368 15.2503 20.7402 12.8184 22.3871C10.3866 24.034 8.48621 26.3532 7.34905 29.062C6.21189 31.7708 5.88707 34.752 6.41419 37.6423C6.94132 40.5325 8.29762 43.2069 10.3177 45.3393C12.8835 47.073 15.9221 47.971 19.0177 47.9106C27.3892 47.9106 34.1808 41.1302 34.1985 32.7548Z" fill="black"/>
</g>
<defs>
<clipPath id="clip0_4_738">
<rect width="50" height="50" fill="white" transform="translate(0.5)"/>
</clipPath>
</defs>
</svg>
