<svg width="51" height="50" viewBox="0 0 51 50" fill="none" xmlns="http://www.w3.org/2000/svg">
<g clip-path="url(#clip0_4_749)">
<path d="M35.3997 4.8064C29.605 4.89417 25.0394 9.8987 25.0394 15.6934V17.0982C14.6792 15.2544 9.58686 12.4448 3.96772 6.56238C0.6314 13.0595 4.31892 18.503 8.35763 21.4882C5.63583 21.4882 3.3531 21.137 1.59712 19.5567C1.42157 19.4689 1.24592 19.5567 1.3337 19.7323C2.82626 25.1758 7.91856 29.1267 11.8695 30.2681C8.26975 30.2681 5.89915 30.7949 3.353 29.2145C3.17745 29.1267 3.00181 29.2145 3.08958 29.3901C5.02111 34.7458 8.88427 36.414 14.5034 36.414C11.6938 38.5212 7.91856 40.6284 0.806852 40.8039C0.54343 40.8039 0.367881 41.1551 0.631303 41.3307C3.26523 43.5256 9.76241 45.1938 18.8934 45.1938C33.907 45.1938 46.111 31.8484 46.111 15.3422V14.4643C48.4816 13.5863 49.7985 11.4791 50.5009 9.37195C50.5009 9.28418 50.4131 9.1964 50.3253 9.1964L45.3207 10.9524C45.233 10.9524 45.1452 10.7768 45.233 10.689C47.3404 9.02076 48.9207 6.91358 49.6231 4.89417C49.6231 4.89417 49.5353 4.8064 49.4474 4.8064C47.0768 5.77221 44.7941 6.73793 43.0381 7.26477C42.7747 7.35255 42.4235 7.35255 42.1602 7.177C41.0188 6.56238 37.5946 4.8064 35.3997 4.8064Z" fill="#1DA1F2"/>
</g>
<defs>
<clipPath id="clip0_4_749">
<rect width="50" height="50" fill="white" transform="translate(0.5)"/>
</clipPath>
</defs>
</svg>
