<svg width="230" height="19" viewBox="0 0 230 19" fill="none" xmlns="http://www.w3.org/2000/svg">
<path d="M3.80176 11.8257L3.99316 13.1382L4.27344 11.9556L6.24219 5.01025H7.34961L9.27051 11.9556L9.54395 13.1587L9.75586 11.8188L11.3008 5.01025H12.6201L10.207 14.9634H9.01074L6.95996 7.71045L6.80273 6.95166L6.64551 7.71045L4.51953 14.9634H3.32324L0.916992 5.01025H2.22949L3.80176 11.8257ZM15.2588 14.9634H13.9941V7.56689H15.2588V14.9634ZM13.8916 5.60498C13.8916 5.3999 13.9531 5.22673 14.0762 5.08545C14.2038 4.94417 14.3906 4.87354 14.6367 4.87354C14.8828 4.87354 15.0697 4.94417 15.1973 5.08545C15.3249 5.22673 15.3887 5.3999 15.3887 5.60498C15.3887 5.81006 15.3249 5.98096 15.1973 6.11768C15.0697 6.25439 14.8828 6.32275 14.6367 6.32275C14.3906 6.32275 14.2038 6.25439 14.0762 6.11768C13.9531 5.98096 13.8916 5.81006 13.8916 5.60498ZM16.9814 11.2036C16.9814 10.0688 17.2503 9.15739 17.7881 8.46924C18.3258 7.77653 19.0299 7.43018 19.9004 7.43018C20.7663 7.43018 21.4521 7.7264 21.958 8.31885V4.46338H23.2227V14.9634H22.0605L21.999 14.1704C21.4932 14.7902 20.7891 15.1001 19.8867 15.1001C19.0299 15.1001 18.3304 14.7492 17.7881 14.0474C17.2503 13.3455 16.9814 12.4295 16.9814 11.2993V11.2036ZM18.2461 11.3472C18.2461 12.1857 18.4193 12.842 18.7656 13.3159C19.112 13.7899 19.5905 14.0269 20.2012 14.0269C21.0033 14.0269 21.5889 13.6668 21.958 12.9468V9.54932C21.5798 8.85205 20.9987 8.50342 20.2148 8.50342C19.5951 8.50342 19.112 8.74268 18.7656 9.22119C18.4193 9.69971 18.2461 10.4084 18.2461 11.3472ZM24.8906 11.2036C24.8906 10.0506 25.1572 9.1346 25.6904 8.45557C26.2236 7.77197 26.93 7.43018 27.8096 7.43018C28.7119 7.43018 29.416 7.74919 29.9219 8.38721L29.9834 7.56689H31.1387V14.7856C31.1387 15.7427 30.8538 16.4969 30.2842 17.0483C29.7191 17.5998 28.958 17.8755 28.001 17.8755C27.4678 17.8755 26.946 17.7616 26.4355 17.5337C25.9251 17.3058 25.5355 16.9937 25.2666 16.5972L25.9229 15.8384C26.4652 16.5083 27.1283 16.8433 27.9121 16.8433C28.5273 16.8433 29.0059 16.6701 29.3477 16.3237C29.694 15.9774 29.8672 15.4897 29.8672 14.8608V14.2251C29.3613 14.8084 28.6709 15.1001 27.7959 15.1001C26.93 15.1001 26.2282 14.7515 25.6904 14.0542C25.1572 13.3569 24.8906 12.4067 24.8906 11.2036ZM26.1621 11.3472C26.1621 12.1812 26.333 12.8374 26.6748 13.3159C27.0166 13.7899 27.4951 14.0269 28.1104 14.0269C28.9079 14.0269 29.4935 13.6646 29.8672 12.9399V9.56299C29.4798 8.85661 28.8988 8.50342 28.124 8.50342C27.5088 8.50342 27.028 8.74268 26.6816 9.22119C26.3353 9.69971 26.1621 10.4084 26.1621 11.3472ZM36.1221 15.1001C35.1195 15.1001 34.3037 14.772 33.6748 14.1157C33.0459 13.4549 32.7314 12.5731 32.7314 11.4702V11.2378C32.7314 10.5041 32.8704 9.8501 33.1484 9.27588C33.431 8.6971 33.8229 8.24593 34.3242 7.92236C34.8301 7.59424 35.377 7.43018 35.9648 7.43018C36.9264 7.43018 37.6738 7.74691 38.207 8.38037C38.7402 9.01383 39.0068 9.92074 39.0068 11.1011V11.6274H33.9961C34.0143 12.3566 34.2262 12.9468 34.6318 13.3979C35.042 13.8446 35.5615 14.0679 36.1904 14.0679C36.637 14.0679 37.0153 13.9767 37.3252 13.7944C37.6351 13.6121 37.9062 13.3706 38.1387 13.0698L38.9111 13.6714C38.2913 14.6239 37.3617 15.1001 36.1221 15.1001ZM35.9648 8.46924C35.4544 8.46924 35.026 8.65609 34.6797 9.02979C34.3333 9.39893 34.1191 9.91846 34.0371 10.5884H37.7422V10.4927C37.7057 9.8501 37.5326 9.35335 37.2227 9.00244C36.9128 8.64697 36.4935 8.46924 35.9648 8.46924ZM42.1924 5.77588V7.56689H43.5732V8.54443H42.1924V13.1313C42.1924 13.4276 42.2539 13.6509 42.377 13.8013C42.5 13.9471 42.7096 14.02 43.0059 14.02C43.1517 14.02 43.3522 13.9927 43.6074 13.938V14.9634C43.2747 15.0545 42.9512 15.1001 42.6367 15.1001C42.0716 15.1001 41.6455 14.9292 41.3584 14.5874C41.0713 14.2456 40.9277 13.7603 40.9277 13.1313V8.54443H39.5811V7.56689H40.9277V5.77588H42.1924ZM54.7773 11.3472C54.7773 12.4728 54.5199 13.3797 54.0049 14.0679C53.4899 14.756 52.7926 15.1001 51.9131 15.1001C51.0153 15.1001 50.3089 14.8153 49.7939 14.2456V17.8071H48.5293V7.56689H49.6846L49.7461 8.38721C50.2611 7.74919 50.9766 7.43018 51.8926 7.43018C52.7812 7.43018 53.4831 7.76514 53.998 8.43506C54.5176 9.10498 54.7773 10.0369 54.7773 11.231V11.3472ZM53.5127 11.2036C53.5127 10.3696 53.335 9.7111 52.9795 9.22803C52.624 8.74495 52.1364 8.50342 51.5166 8.50342C50.751 8.50342 50.1768 8.84294 49.7939 9.52197V13.0562C50.1722 13.7306 50.751 14.0679 51.5303 14.0679C52.1364 14.0679 52.6172 13.8286 52.9727 13.3501C53.3327 12.867 53.5127 12.1515 53.5127 11.2036ZM56.0557 11.1968C56.0557 10.4722 56.1969 9.82048 56.4795 9.2417C56.7666 8.66292 57.1631 8.21631 57.6689 7.90186C58.1794 7.5874 58.7604 7.43018 59.4121 7.43018C60.4193 7.43018 61.2327 7.77881 61.8525 8.47607C62.4769 9.17334 62.7891 10.1007 62.7891 11.2583V11.3472C62.7891 12.0672 62.6501 12.7144 62.3721 13.2886C62.0986 13.8582 61.7044 14.3026 61.1895 14.6216C60.679 14.9406 60.0911 15.1001 59.4258 15.1001C58.4232 15.1001 57.6097 14.7515 56.9854 14.0542C56.3656 13.3569 56.0557 12.4341 56.0557 11.2856V11.1968ZM57.3271 11.3472C57.3271 12.1675 57.5163 12.826 57.8945 13.3228C58.2773 13.8195 58.7878 14.0679 59.4258 14.0679C60.0684 14.0679 60.5788 13.8172 60.957 13.3159C61.3353 12.8101 61.5244 12.1037 61.5244 11.1968C61.5244 10.3856 61.3307 9.72933 60.9434 9.22803C60.5605 8.72217 60.0501 8.46924 59.4121 8.46924C58.7878 8.46924 58.2842 8.71761 57.9014 9.21436C57.5186 9.7111 57.3271 10.422 57.3271 11.3472ZM70.9238 13.2202L72.3457 7.56689H73.6104L71.457 14.9634H70.4316L68.6338 9.35791L66.8838 14.9634H65.8584L63.7119 7.56689H64.9697L66.4258 13.104L68.1484 7.56689H69.167L70.9238 13.2202ZM77.9717 15.1001C76.9691 15.1001 76.1533 14.772 75.5244 14.1157C74.8955 13.4549 74.5811 12.5731 74.5811 11.4702V11.2378C74.5811 10.5041 74.7201 9.8501 74.998 9.27588C75.2806 8.6971 75.6725 8.24593 76.1738 7.92236C76.6797 7.59424 77.2266 7.43018 77.8145 7.43018C78.776 7.43018 79.5234 7.74691 80.0566 8.38037C80.5898 9.01383 80.8564 9.92074 80.8564 11.1011V11.6274H75.8457C75.8639 12.3566 76.0758 12.9468 76.4814 13.3979C76.8916 13.8446 77.4111 14.0679 78.04 14.0679C78.4867 14.0679 78.8649 13.9767 79.1748 13.7944C79.4847 13.6121 79.7559 13.3706 79.9883 13.0698L80.7607 13.6714C80.141 14.6239 79.2113 15.1001 77.9717 15.1001ZM77.8145 8.46924C77.304 8.46924 76.8757 8.65609 76.5293 9.02979C76.1829 9.39893 75.9688 9.91846 75.8867 10.5884H79.5918V10.4927C79.5553 9.8501 79.3822 9.35335 79.0723 9.00244C78.7624 8.64697 78.3431 8.46924 77.8145 8.46924ZM85.9014 8.70166C85.71 8.66976 85.5026 8.65381 85.2793 8.65381C84.4499 8.65381 83.887 9.007 83.5908 9.71338V14.9634H82.3262V7.56689H83.5566L83.5771 8.42139C83.9919 7.76058 84.5798 7.43018 85.3408 7.43018C85.5869 7.43018 85.7738 7.46208 85.9014 7.52588V8.70166ZM90.0029 15.1001C89.0003 15.1001 88.1846 14.772 87.5557 14.1157C86.9268 13.4549 86.6123 12.5731 86.6123 11.4702V11.2378C86.6123 10.5041 86.7513 9.8501 87.0293 9.27588C87.3118 8.6971 87.7038 8.24593 88.2051 7.92236C88.7109 7.59424 89.2578 7.43018 89.8457 7.43018C90.8073 7.43018 91.5547 7.74691 92.0879 8.38037C92.6211 9.01383 92.8877 9.92074 92.8877 11.1011V11.6274H87.877C87.8952 12.3566 88.1071 12.9468 88.5127 13.3979C88.9229 13.8446 89.4424 14.0679 90.0713 14.0679C90.5179 14.0679 90.8962 13.9767 91.2061 13.7944C91.516 13.6121 91.7871 13.3706 92.0195 13.0698L92.792 13.6714C92.1722 14.6239 91.2425 15.1001 90.0029 15.1001ZM89.8457 8.46924C89.3353 8.46924 88.9069 8.65609 88.5605 9.02979C88.2142 9.39893 88 9.91846 87.918 10.5884H91.623V10.4927C91.5866 9.8501 91.4134 9.35335 91.1035 9.00244C90.7936 8.64697 90.3743 8.46924 89.8457 8.46924ZM94.0498 11.2036C94.0498 10.0688 94.3187 9.15739 94.8564 8.46924C95.3942 7.77653 96.0983 7.43018 96.9688 7.43018C97.8346 7.43018 98.5205 7.7264 99.0264 8.31885V4.46338H100.291V14.9634H99.1289L99.0674 14.1704C98.5615 14.7902 97.8574 15.1001 96.9551 15.1001C96.0983 15.1001 95.3988 14.7492 94.8564 14.0474C94.3187 13.3455 94.0498 12.4295 94.0498 11.2993V11.2036ZM95.3145 11.3472C95.3145 12.1857 95.4876 12.842 95.834 13.3159C96.1803 13.7899 96.6589 14.0269 97.2695 14.0269C98.0716 14.0269 98.6572 13.6668 99.0264 12.9468V9.54932C98.6481 8.85205 98.0671 8.50342 97.2832 8.50342C96.6634 8.50342 96.1803 8.74268 95.834 9.22119C95.4876 9.69971 95.3145 10.4084 95.3145 11.3472Z" fill="#9CA0AC"/>
<rect x="106.5" y="0.963379" width="18" height="18" rx="9" fill="#0066FF"/>
<path d="M115.503 5.25223V5.86097C115.503 6.38479 115.405 6.4697 115.067 6.65385L111.916 8.25361V8.32443L115.052 9.896C115.405 10.0799 115.503 10.1509 115.503 10.6889V11.3683C115.503 11.793 115.362 11.9347 114.996 11.7365L110.255 9.13132C109.974 8.97568 109.875 8.86235 109.875 8.53688V8.08378C109.875 7.7581 109.974 7.63067 110.255 7.47504L114.996 4.88404C115.362 4.6859 115.503 4.82743 115.503 5.25223Z" fill="white"/>
<path d="M116.004 7.49163L120.731 10.0825C121.026 10.2383 121.125 10.3515 121.125 10.6771V11.1302C121.125 11.4699 121.026 11.5832 120.731 11.7389L116.004 14.3298C115.624 14.528 115.497 14.3865 115.497 13.9617V13.353C115.497 12.8292 115.595 12.7441 115.933 12.5743L119.085 10.9744V10.8895L115.948 9.31795C115.595 9.14811 115.497 9.06309 115.497 8.52507V7.84551C115.497 7.42071 115.624 7.27928 116.004 7.49163Z" fill="white"/>
<path d="M136.719 11.3472C136.719 12.4774 136.459 13.3866 135.939 14.0747C135.42 14.7583 134.723 15.1001 133.848 15.1001C132.913 15.1001 132.191 14.7697 131.681 14.1089L131.619 14.9634H130.457V4.46338H131.722V8.38037C132.232 7.74691 132.936 7.43018 133.834 7.43018C134.732 7.43018 135.436 7.76969 135.946 8.44873C136.461 9.12777 136.719 10.0575 136.719 11.2378V11.3472ZM135.454 11.2036C135.454 10.3423 135.288 9.67692 134.955 9.20752C134.622 8.73812 134.144 8.50342 133.52 8.50342C132.686 8.50342 132.086 8.89079 131.722 9.66553V12.8647C132.109 13.6395 132.713 14.0269 133.533 14.0269C134.139 14.0269 134.611 13.7922 134.948 13.3228C135.285 12.8534 135.454 12.147 135.454 11.2036ZM140.656 13.1108L142.379 7.56689H143.732L140.759 16.105C140.299 17.3354 139.567 17.9507 138.564 17.9507L138.325 17.9302L137.854 17.8413V16.8159L138.195 16.8433C138.624 16.8433 138.956 16.7567 139.193 16.5835C139.435 16.4103 139.633 16.0936 139.788 15.6333L140.068 14.8813L137.43 7.56689H138.811L140.656 13.1108ZM154.164 10.3628H149.851V13.8901H154.861V14.9634H148.538V5.01025H154.793V6.09033H149.851V9.28955H154.164V10.3628ZM157.486 7.56689L157.521 8.38721C158.063 7.74919 158.794 7.43018 159.715 7.43018C160.749 7.43018 161.453 7.82666 161.827 8.61963C162.073 8.26416 162.392 7.97705 162.784 7.7583C163.181 7.53955 163.648 7.43018 164.186 7.43018C165.808 7.43018 166.633 8.28923 166.66 10.0073V14.9634H165.396V10.0825C165.396 9.55387 165.275 9.15967 165.033 8.8999C164.792 8.63558 164.386 8.50342 163.816 8.50342C163.347 8.50342 162.957 8.64469 162.647 8.92725C162.338 9.20524 162.158 9.58122 162.107 10.0552V14.9634H160.836V10.1167C160.836 9.04118 160.31 8.50342 159.257 8.50342C158.427 8.50342 157.86 8.85661 157.555 9.56299V14.9634H156.29V7.56689H157.486ZM174.836 11.3472C174.836 12.4774 174.576 13.3866 174.057 14.0747C173.537 14.7583 172.84 15.1001 171.965 15.1001C171.031 15.1001 170.308 14.7697 169.798 14.1089L169.736 14.9634H168.574V4.46338H169.839V8.38037C170.349 7.74691 171.053 7.43018 171.951 7.43018C172.849 7.43018 173.553 7.76969 174.063 8.44873C174.578 9.12777 174.836 10.0575 174.836 11.2378V11.3472ZM173.571 11.2036C173.571 10.3423 173.405 9.67692 173.072 9.20752C172.74 8.73812 172.261 8.50342 171.637 8.50342C170.803 8.50342 170.203 8.89079 169.839 9.66553V12.8647C170.226 13.6395 170.83 14.0269 171.65 14.0269C172.257 14.0269 172.728 13.7922 173.065 13.3228C173.403 12.8534 173.571 12.147 173.571 11.2036ZM179.505 15.1001C178.502 15.1001 177.687 14.772 177.058 14.1157C176.429 13.4549 176.114 12.5731 176.114 11.4702V11.2378C176.114 10.5041 176.253 9.8501 176.531 9.27588C176.814 8.6971 177.206 8.24593 177.707 7.92236C178.213 7.59424 178.76 7.43018 179.348 7.43018C180.309 7.43018 181.057 7.74691 181.59 8.38037C182.123 9.01383 182.39 9.92074 182.39 11.1011V11.6274H177.379C177.397 12.3566 177.609 12.9468 178.015 13.3979C178.425 13.8446 178.944 14.0679 179.573 14.0679C180.02 14.0679 180.398 13.9767 180.708 13.7944C181.018 13.6121 181.289 13.3706 181.521 13.0698L182.294 13.6714C181.674 14.6239 180.744 15.1001 179.505 15.1001ZM179.348 8.46924C178.837 8.46924 178.409 8.65609 178.062 9.02979C177.716 9.39893 177.502 9.91846 177.42 10.5884H181.125V10.4927C181.089 9.8501 180.915 9.35335 180.605 9.00244C180.296 8.64697 179.876 8.46924 179.348 8.46924ZM183.552 11.2036C183.552 10.0688 183.821 9.15739 184.358 8.46924C184.896 7.77653 185.6 7.43018 186.471 7.43018C187.337 7.43018 188.022 7.7264 188.528 8.31885V4.46338H189.793V14.9634H188.631L188.569 14.1704C188.063 14.7902 187.359 15.1001 186.457 15.1001C185.6 15.1001 184.901 14.7492 184.358 14.0474C183.821 13.3455 183.552 12.4295 183.552 11.2993V11.2036ZM184.816 11.3472C184.816 12.1857 184.99 12.842 185.336 13.3159C185.682 13.7899 186.161 14.0269 186.771 14.0269C187.574 14.0269 188.159 13.6668 188.528 12.9468V9.54932C188.15 8.85205 187.569 8.50342 186.785 8.50342C186.165 8.50342 185.682 8.74268 185.336 9.22119C184.99 9.69971 184.816 10.4084 184.816 11.3472ZM194.893 10.5269C193.767 10.2033 192.947 9.8068 192.432 9.3374C191.921 8.86344 191.666 8.28011 191.666 7.5874C191.666 6.80355 191.978 6.15641 192.603 5.646C193.231 5.13102 194.047 4.87354 195.05 4.87354C195.733 4.87354 196.342 5.0057 196.875 5.27002C197.413 5.53434 197.827 5.89893 198.119 6.36377C198.415 6.82861 198.563 7.33675 198.563 7.88818H197.244C197.244 7.28662 197.053 6.81494 196.67 6.47314C196.287 6.12679 195.747 5.95361 195.05 5.95361C194.403 5.95361 193.897 6.09717 193.532 6.38428C193.172 6.66683 192.992 7.06104 192.992 7.56689C192.992 7.97249 193.163 8.31657 193.505 8.59912C193.851 8.87712 194.437 9.13232 195.262 9.36475C196.091 9.59717 196.738 9.85465 197.203 10.1372C197.673 10.4152 198.019 10.741 198.242 11.1147C198.47 11.4884 198.584 11.9282 198.584 12.4341C198.584 13.2407 198.27 13.8879 197.641 14.3755C197.012 14.8586 196.171 15.1001 195.118 15.1001C194.435 15.1001 193.797 14.9702 193.204 14.7104C192.612 14.4461 192.154 14.0861 191.83 13.6304C191.511 13.1746 191.352 12.6574 191.352 12.0786H192.671C192.671 12.6802 192.892 13.1564 193.334 13.5073C193.781 13.8537 194.375 14.0269 195.118 14.0269C195.811 14.0269 196.342 13.8856 196.711 13.603C197.08 13.3205 197.265 12.9354 197.265 12.4478C197.265 11.9601 197.094 11.5841 196.752 11.3198C196.41 11.0509 195.79 10.7866 194.893 10.5269ZM199.739 11.1968C199.739 10.4722 199.881 9.82048 200.163 9.2417C200.45 8.66292 200.847 8.21631 201.353 7.90186C201.863 7.5874 202.444 7.43018 203.096 7.43018C204.103 7.43018 204.916 7.77881 205.536 8.47607C206.16 9.17334 206.473 10.1007 206.473 11.2583V11.3472C206.473 12.0672 206.334 12.7144 206.056 13.2886C205.782 13.8582 205.388 14.3026 204.873 14.6216C204.363 14.9406 203.775 15.1001 203.109 15.1001C202.107 15.1001 201.293 14.7515 200.669 14.0542C200.049 13.3569 199.739 12.4341 199.739 11.2856V11.1968ZM201.011 11.3472C201.011 12.1675 201.2 12.826 201.578 13.3228C201.961 13.8195 202.471 14.0679 203.109 14.0679C203.752 14.0679 204.262 13.8172 204.641 13.3159C205.019 12.8101 205.208 12.1037 205.208 11.1968C205.208 10.3856 205.014 9.72933 204.627 9.22803C204.244 8.72217 203.734 8.46924 203.096 8.46924C202.471 8.46924 201.968 8.71761 201.585 9.21436C201.202 9.7111 201.011 10.422 201.011 11.3472ZM211.025 14.0679C211.477 14.0679 211.871 13.9312 212.208 13.6577C212.545 13.3843 212.732 13.0425 212.769 12.6323H213.965C213.942 13.0562 213.796 13.4595 213.527 13.8423C213.258 14.2251 212.898 14.5304 212.447 14.7583C212.001 14.9862 211.527 15.1001 211.025 15.1001C210.018 15.1001 209.216 14.7651 208.619 14.0952C208.027 13.4207 207.73 12.5002 207.73 11.3335V11.1216C207.73 10.4015 207.863 9.76123 208.127 9.20068C208.391 8.64014 208.77 8.20492 209.262 7.89502C209.758 7.58512 210.344 7.43018 211.019 7.43018C211.848 7.43018 212.536 7.67855 213.083 8.17529C213.634 8.67204 213.928 9.31689 213.965 10.1099H212.769C212.732 9.63135 212.55 9.23942 212.222 8.93408C211.898 8.62419 211.497 8.46924 211.019 8.46924C210.376 8.46924 209.877 8.70166 209.521 9.1665C209.171 9.62679 208.995 10.2944 208.995 11.1694V11.4087C208.995 12.2609 209.171 12.9172 209.521 13.3774C209.872 13.8377 210.374 14.0679 211.025 14.0679ZM216.761 14.9634H215.496V7.56689H216.761V14.9634ZM215.394 5.60498C215.394 5.3999 215.455 5.22673 215.578 5.08545C215.706 4.94417 215.893 4.87354 216.139 4.87354C216.385 4.87354 216.572 4.94417 216.699 5.08545C216.827 5.22673 216.891 5.3999 216.891 5.60498C216.891 5.81006 216.827 5.98096 216.699 6.11768C216.572 6.25439 216.385 6.32275 216.139 6.32275C215.893 6.32275 215.706 6.25439 215.578 6.11768C215.455 5.98096 215.394 5.81006 215.394 5.60498ZM223.357 14.9634C223.285 14.8175 223.225 14.5578 223.18 14.1841C222.592 14.7948 221.89 15.1001 221.074 15.1001C220.345 15.1001 219.746 14.895 219.276 14.4849C218.812 14.0701 218.579 13.5461 218.579 12.9126C218.579 12.1424 218.871 11.5454 219.454 11.1216C220.042 10.6932 220.867 10.479 221.929 10.479H223.159V9.89795C223.159 9.45589 223.027 9.10498 222.763 8.84521C222.498 8.58089 222.109 8.44873 221.594 8.44873C221.143 8.44873 220.764 8.56266 220.459 8.79053C220.154 9.01839 220.001 9.29411 220.001 9.61768H218.729C218.729 9.24854 218.859 8.89307 219.119 8.55127C219.383 8.20492 219.739 7.93148 220.186 7.73096C220.637 7.53044 221.131 7.43018 221.669 7.43018C222.521 7.43018 223.189 7.64437 223.672 8.07275C224.155 8.49658 224.406 9.08219 224.424 9.82959V13.2339C224.424 13.9129 224.51 14.453 224.684 14.854V14.9634H223.357ZM221.259 13.9995C221.655 13.9995 222.031 13.897 222.387 13.6919C222.742 13.4868 223 13.2202 223.159 12.8921V11.3745H222.168C220.618 11.3745 219.844 11.828 219.844 12.7349C219.844 13.1313 219.976 13.4412 220.24 13.6646C220.505 13.8879 220.844 13.9995 221.259 13.9995ZM227.78 14.9634H226.516V4.46338H227.78V14.9634Z" fill="#9CA0AC"/>
<path d="M147.383 16.3306H228.847V17.0142H147.383V16.3306Z" fill="#9CA0AC"/>
</svg>
