<svg width="16" height="16" viewBox="0 0 16 16" fill="none" xmlns="http://www.w3.org/2000/svg">
<g id="th-large" clip-path="url(#clip0_1264_24920)">
<path id="Vector" d="M9.25049 0.997559H15.2505C15.6647 0.997559 16.0005 1.33334 16.0005 1.74756V6.74756C16.0005 7.16178 15.6647 7.49756 15.2505 7.49756H9.25049C8.83627 7.49756 8.50049 7.16178 8.50049 6.74756V1.74756C8.50049 1.33334 8.83627 0.997559 9.25049 0.997559ZM6.75049 0.997559H0.750488C0.33627 0.997559 0.000488281 1.33334 0.000488281 1.74756V6.74756C0.000488281 7.16178 0.33627 7.49756 0.750488 7.49756H6.75049C7.16471 7.49756 7.50049 7.16178 7.50049 6.74756V1.74756C7.50049 1.33334 7.16471 0.997559 6.75049 0.997559ZM0.000488281 9.24756V14.2476C0.000488281 14.6618 0.33627 14.9976 0.750488 14.9976H6.75049C7.16471 14.9976 7.50049 14.6618 7.50049 14.2476V9.24756C7.50049 8.83334 7.16471 8.49756 6.75049 8.49756H0.750488C0.33627 8.49756 0.000488281 8.83334 0.000488281 9.24756ZM9.25049 14.9976H15.2505C15.6647 14.9976 16.0005 14.6618 16.0005 14.2476V9.24756C16.0005 8.83334 15.6647 8.49756 15.2505 8.49756H9.25049C8.83627 8.49756 8.50049 8.83334 8.50049 9.24756V14.2476C8.50049 14.6618 8.83627 14.9976 9.25049 14.9976Z" fill="black"/>
</g>
<defs>
<clipPath id="clip0_1264_24920">
<rect width="16" height="16" fill="white"/>
</clipPath>
</defs>
</svg>
